<svg width="188" height="35" viewBox="0 0 188 35" fill="none" xmlns="http://www.w3.org/2000/svg">
<path d="M15.4251 17.1272C15.4251 13.9815 13.0591 11.7706 10.1528 11.7706C7.24646 11.7706 4.88045 14.0188 4.88045 17.1272C4.88045 20.1984 7.24646 22.4839 10.1528 22.4839C13.062 22.481 15.4251 20.2729 15.4251 17.1272ZM15.4666 26.49V24.0553C14.0327 25.7415 11.8983 26.7881 9.34233 26.7881C4.03141 26.7881 0 22.6674 0 17.1272C0 11.6215 4.18579 7.42908 9.46107 7.42908C11.9429 7.42908 14.0358 8.47861 15.4696 10.1246V7.76458H20.2372V26.49H15.4666Z" fill="black"/>
<path d="M43.3954 22.3319C41.727 22.3319 41.2639 21.7325 41.2639 20.1611V11.848H44.3275V7.76457H41.2639V3.19651H36.3776V7.76457H30.084V6.62614C30.084 5.05184 30.7045 4.4525 32.4115 4.4525H33.4832V0.819282H31.132C27.1005 0.819282 25.2006 2.09249 25.2006 5.98667V7.7617H22.4873V11.8451H25.2006V26.487H30.087V11.8451H36.3805V21.0214C36.3805 24.841 37.8916 26.4899 41.8458 26.4899H44.3661V22.3319H43.3954Z" fill="black"/>
<path d="M60.9196 15.4411C60.5722 13.0064 58.5149 11.5468 56.1133 11.5468C53.7087 11.5468 51.7316 12.9692 51.2299 15.4411H60.9196ZM51.1883 18.3631C51.5387 21.1332 53.5929 22.7075 56.1905 22.7075C58.2448 22.7075 59.836 21.7697 60.7651 20.2729H65.7673C64.6036 24.2416 60.9196 26.7881 56.0748 26.7881C50.2205 26.7881 46.112 22.8193 46.112 17.1644C46.112 11.5095 50.4551 7.42613 56.1934 7.42613C61.9705 7.42613 66.1562 11.5469 66.1562 17.1644C66.1562 17.5774 66.1176 17.9875 66.0404 18.3631H51.1883Z" fill="black"/>
<path d="M97.2231 17.1272C97.2231 14.0933 94.8571 11.7706 91.9507 11.7706C89.0445 11.7706 86.6783 14.0188 86.6783 17.1272C86.6783 20.1984 89.0445 22.4839 91.9507 22.4839C94.8571 22.481 97.2231 20.1612 97.2231 17.1272ZM81.8692 7.76458H86.6368V10.1992C88.0707 8.47574 90.2022 7.42908 92.7611 7.42908C97.9949 7.42908 102.104 11.5871 102.104 17.09C102.104 22.5957 97.9176 26.7909 92.6454 26.7909C90.2022 26.7909 88.1865 25.8533 86.7912 24.2819V34.1951H81.8692V7.76458Z" fill="black"/>
<path d="M119.289 17.1272C119.289 13.9815 116.926 11.7706 114.016 11.7706C111.11 11.7706 108.744 14.0188 108.744 17.1272C108.744 20.1984 111.11 22.4839 114.016 22.4839C116.926 22.481 119.289 20.2729 119.289 17.1272ZM119.331 26.49V24.0553C117.897 25.7415 115.762 26.7881 113.206 26.7881C107.895 26.7881 103.864 22.6674 103.864 17.1272C103.864 11.6215 108.05 7.42908 113.322 7.42908C115.804 7.42908 117.897 8.47861 119.331 10.1246V7.76458H124.099V26.49H119.331Z" fill="black"/>
<path d="M73.2749 9.59983C73.2749 9.59983 74.4892 7.42908 77.4607 7.42908C78.7313 7.42908 79.5537 7.8506 79.5537 7.8506V12.628C79.5537 12.628 77.7605 11.5584 76.1129 11.7735C74.4653 11.9885 73.4234 13.451 73.4293 15.4067V26.4928H68.5073V7.76745H73.2749V9.59983Z" fill="black"/>
<path d="M146.365 7.76454L134.328 34.1348H129.252L133.978 23.9406L125.986 7.76454H131.74L136.415 18.5725L141.213 7.76454H146.365Z" fill="black"/>
<path d="M184.792 7.34016L172.859 0.687363C169.355 -1.26546 164.977 1.17486 164.977 5.08337V5.76586C164.977 6.38239 165.318 6.95303 165.87 7.25986L168.123 8.51586C168.785 8.88579 169.61 8.42411 169.61 7.68714V5.98953C169.61 5.14072 170.561 4.61022 171.321 5.03463L181.657 10.7985C182.418 11.2229 182.418 12.2839 181.657 12.7055L171.321 18.4693C170.561 18.8937 169.61 18.3632 169.61 17.5143V16.611C169.61 12.7025 165.232 10.2594 161.726 12.215L149.792 18.8678C146.289 20.8207 146.289 25.7071 149.792 27.6598L161.726 34.3127C165.229 36.2654 169.61 33.8251 169.61 29.9167V29.2342C169.61 28.6176 169.269 28.0498 168.717 27.7401L166.464 26.4812C165.802 26.1114 164.977 26.573 164.977 27.3101V29.0077C164.977 29.8565 164.027 30.3869 163.266 29.9625L152.93 24.1987C152.17 23.7743 152.17 22.7133 152.93 22.2889L163.266 16.525C164.027 16.1006 164.977 16.6311 164.977 17.4799V18.3832C164.977 22.2917 169.355 24.735 172.859 22.7793L184.792 16.1264C188.296 14.1793 188.296 9.29298 184.792 7.34016Z" fill="black"/>
</svg>
