<svg width="202" height="25" viewBox="0 0 202 25" fill="none" xmlns="http://www.w3.org/2000/svg">
<path d="M7.32877 11.4035C7.25537 11.3074 7.15843 11.2319 7.04732 11.1843C6.93621 11.1367 6.81468 11.1185 6.6945 11.1316C6.57432 11.1446 6.45953 11.1885 6.36124 11.2588C6.26296 11.3292 6.18449 11.4238 6.13343 11.5334L0.0764157 23.6436C0.0212371 23.754 -0.00481526 23.8766 0.000732052 23.9999C0.00627936 24.1231 0.0432423 24.2429 0.108111 24.3479C0.17298 24.4529 0.263602 24.5395 0.371373 24.5996C0.479144 24.6597 0.600487 24.6913 0.72388 24.6913H9.15796C9.29304 24.6944 9.42613 24.6583 9.54106 24.5872C9.65599 24.5162 9.74783 24.4133 9.80542 24.2911C11.6248 20.5316 10.5222 14.8154 7.32877 11.4035Z" fill="url(#paint0_linear_611_5658)"/>
<path d="M11.7715 0.388498C10.2623 2.71073 9.38276 5.38546 9.21927 8.1502C9.05577 10.9149 9.61392 13.6747 10.8389 16.1586L14.9051 24.2909C14.9652 24.4112 15.0576 24.5123 15.172 24.583C15.2863 24.6537 15.4181 24.6911 15.5526 24.6911H23.9851C24.1085 24.6911 24.2299 24.6596 24.3376 24.5995C24.4454 24.5394 24.536 24.4527 24.6009 24.3478C24.6658 24.2428 24.7027 24.123 24.7083 23.9997C24.7138 23.8765 24.6878 23.7538 24.6326 23.6435C24.6326 23.6435 13.2879 0.951527 13.0028 0.383954C12.9465 0.268424 12.8587 0.171122 12.7495 0.103211C12.6404 0.0353002 12.5143 -0.000469691 12.3858 4.65718e-06C12.2572 0.000479005 12.1314 0.0371784 12.0228 0.105893C11.9141 0.174608 11.827 0.272555 11.7715 0.388498Z" fill="#2684FF"/>
<path d="M110.681 10.0986C110.681 13.0974 112.072 15.4782 117.513 16.5293C120.76 17.2108 121.44 17.7349 121.44 18.817C121.44 19.8681 120.758 20.5485 118.471 20.5485C115.708 20.4988 112.999 19.7659 110.588 18.4153V23.2997C112.227 24.1035 114.391 25.0001 118.41 25.0001C124.098 25.0001 126.355 22.4633 126.355 18.6932L110.681 10.0986ZM126.355 18.6932C126.355 15.1378 124.469 13.468 119.152 12.3246C116.215 11.6752 115.504 11.0262 115.504 10.0986C115.504 8.92481 116.555 8.42918 118.502 8.42918C120.852 8.42918 123.171 9.14025 125.366 10.1296V5.46106C123.261 4.5031 120.969 4.02781 118.657 4.06996C113.401 4.06996 110.681 6.35767 110.681 10.0986" fill="#0052CC"/>
<path d="M183.764 4.37915V24.6914H188.092V9.20219L189.916 13.3138L196.037 24.6914H201.479V4.37915H197.151V17.4878L195.512 13.6848L190.596 4.37915H183.764Z" fill="#0052CC"/>
<path d="M156.236 4.37915H151.506V24.6914H156.236V4.37915Z" fill="#0052CC"/>
<path d="M146.047 18.6932C146.047 15.1378 144.161 13.468 138.843 12.3246C135.906 11.6752 135.195 11.0262 135.195 10.0986C135.195 8.92481 136.246 8.42918 138.194 8.42918C140.544 8.42918 142.862 9.14025 145.057 10.1296V5.46106C142.953 4.5031 140.66 4.02781 138.348 4.06996C133.093 4.06996 130.372 6.35767 130.372 10.0986C130.372 13.0974 131.763 15.4782 137.204 16.5293C140.451 17.2108 141.131 17.7349 141.131 18.817C141.131 19.8681 140.449 20.5485 138.163 20.5485C135.399 20.4988 132.691 19.7659 130.279 18.4153V23.2997C131.918 24.1035 134.082 25.0001 138.101 25.0001C143.79 25.0001 146.047 22.4633 146.047 18.6932Z" fill="#0052CC"/>
<path d="M73.9336 4.37915V24.6914H83.6562L85.187 20.3011H78.6945V4.37915H73.9336Z" fill="#0052CC"/>
<path d="M54.7266 4.37915V8.76903H59.9824V24.6914H64.7433V8.76903H70.3702V4.37915H54.7266Z" fill="#0052CC"/>
<path d="M47.8226 4.37915H41.5831L34.5 24.6914H39.9092L40.9133 21.2704C43.3863 21.9966 46.016 21.9966 48.489 21.2704L49.4932 24.6914H54.9035L47.8226 4.37915ZM44.7027 17.6075C43.8216 17.6074 42.945 17.4813 42.0996 17.233L44.7027 8.36882L47.3058 17.2361C46.4602 17.4833 45.5837 17.6084 44.7027 17.6075Z" fill="#0052CC"/>
<path d="M100.418 4.37915H94.1788L87.0957 24.6914H92.506L93.5101 21.2704C95.9832 21.9966 98.6128 21.9966 101.086 21.2704L102.09 24.6914H107.5L100.418 4.37915ZM97.2984 17.6075C96.4173 17.6074 95.5407 17.4813 94.6953 17.233L97.2984 8.36882L99.9015 17.2361C99.0559 17.4833 98.1794 17.6084 97.2984 17.6075Z" fill="#0052CC"/>
<path d="M173.279 4.37915H167.04L159.957 24.6914H165.367L166.371 21.2704C168.845 21.9966 171.474 21.9966 173.947 21.2704L174.951 24.6914H180.362L173.279 4.37915ZM170.158 17.6075C169.277 17.6074 168.4 17.4813 167.555 17.233L170.158 8.36882L172.761 17.2361C171.915 17.4833 171.039 17.6084 170.158 17.6075Z" fill="#0052CC"/>
<defs>
<linearGradient id="paint0_linear_611_5658" x1="10.6483" y1="13.2724" x2="4.25616" y2="24.3441" gradientUnits="userSpaceOnUse">
<stop stop-color="#0052CC"/>
<stop offset="0.923" stop-color="#2684FF"/>
</linearGradient>
</defs>
</svg>
