<svg width="201" height="50" viewBox="0 0 201 50" fill="none" xmlns="http://www.w3.org/2000/svg">
<path d="M5.79877 26.0696V31.8486H7.77422C8.04707 31.8786 8.25443 31.7039 8.25443 31.3029V26.6398C8.25443 26.2715 8.13438 26.0696 7.77422 26.0696H5.79877ZM0.5 33.8704V17.0327L12.3554 17.0082V19.0682L5.79877 19.0382V24.0723H8.46726C9.75239 24.0723 13.5314 24.0068 13.5314 26.3533V31.5593C13.5559 33.4993 10.4782 33.8158 8.5 33.8431L0.5 33.8704ZM23.365 19.4229L21.927 27.2483H25.0403L23.6324 19.4229H23.365ZM15.7197 33.8704L19.556 17.0082H27.4304L31.2667 33.8704H26.118L25.3077 29.633H21.6542L20.8738 33.8704H15.7197ZM33.9215 17.0082H39.133V23.7913L41.4986 23.7585V17.0082H46.6828V33.8704H41.4986V26.1569H39.133V33.8458L33.9215 33.8704V17.0082ZM50.6446 17.0082H55.7333V23.8431L59.0866 17.0082H64.088L60.2272 24.9236L64.6583 33.8704H59.7742L55.7333 26.2115V33.8704H50.6446V17.0082ZM83.7142 19.3902L82.2735 27.2183H85.4222L83.9843 19.3902H83.7142ZM76.0826 33.8704L79.9107 17.0082H87.7879L91.6214 33.8704H86.47L85.6951 29.5975H82.0089L81.234 33.8704H76.0826ZM116.235 19.4366L114.8 27.2292H117.916L116.511 19.4366H116.235ZM108.601 33.8704L112.435 17.0082H120.309L124.145 33.8704H118.997L118.183 29.6085H114.535L113.755 33.8704H108.601ZM160.887 19.4366L159.479 27.2428L162.598 27.2183L161.155 19.4366H160.887ZM153.286 33.8704L157.111 17.0082H164.991L168.857 33.8704H163.67L162.866 29.6194H159.207L158.399 33.8704H153.286ZM132.148 17.0082V23.794H134.519V17.0327L139.728 17.0082V33.8458L134.519 33.8704V26.1733H132.148V33.8704H126.937V17.0327L132.148 17.0082ZM99.2694 26.1869V31.8486H101.068C101.422 31.8486 101.638 31.6439 101.638 31.3602V26.8172C101.638 26.4406 101.482 26.1869 101.043 26.1869H99.2694ZM94.2162 33.8458V33.8731V17.0082H101.728C106.762 17.0082 106.609 18.6917 106.609 19.4666V22.9509C106.609 23.4693 106.484 25.0109 103.75 24.9236V25.0928C105.968 25.0682 106.702 25.7831 106.702 26.8445V31.4829C106.702 32.2769 106.396 33.8185 101.695 33.8458H94.2162ZM99.2694 19.0382V23.8704L101.043 23.9004C101.485 23.9004 101.638 23.7285 101.638 23.4993V19.4911C101.638 19.2374 101.518 19.0355 101.068 19.0355H99.2694V19.0382ZM144.107 17.0082H154.418V19.0382H149.169V33.8704H144.107V17.0082ZM176.175 19.0355V25.8949H178.358C179.228 25.9522 179.228 25.5839 179.283 25.1828L179.258 19.6685C179.283 19.0409 178.642 19.0245 178.377 19.0355H176.175ZM171.084 33.8458V17.0082H178.988C180.669 17.0082 183.605 17.0082 183.605 19.4338V25.2428C183.605 27.7258 180.852 27.8131 178.988 27.8431H176.178V33.8677L171.084 33.8458ZM194.915 19.0437H191.932V30.0914C191.932 30.94 191.755 31.6521 190.855 31.9359V31.9086L194.898 31.8922L194.915 19.0437ZM184.093 35.9031V31.9686L184.451 31.9386C186.631 31.9386 186.907 30.7981 186.907 30.2033V17.0082L199.239 17V31.9113H200.5V35.9004H195.471V33.8458H189.119V35.9004H184.093V35.9031Z" fill="#003E22"/>
</svg>
