<svg width="201" height="50" viewBox="0 0 201 50" fill="none" xmlns="http://www.w3.org/2000/svg">
<path fill-rule="evenodd" clip-rule="evenodd" d="M70.4675 20.4374H65.9412L64.9175 22.7598H62.5088L67.4002 11.2959H69.08L73.8259 22.7598H71.4875L70.4663 20.4374H70.4675ZM69.8102 18.6244L68.2031 14.5593L66.5973 18.6231H69.8102V18.6244ZM52.1402 11.587H60.0261V13.474H54.2578V16.0122H57.3239C58.1995 16.0122 59.296 16.1577 60.1729 16.8829C60.829 17.4626 61.2668 18.3333 61.2668 19.3496C61.273 20.0799 61.0423 20.7926 60.6095 21.3809C59.7338 22.6142 58.3463 22.7598 57.3979 22.7598H52.1402V11.5857V11.587ZM54.3306 20.874H56.886C58.6386 20.874 59.0037 20.0748 59.0037 19.4223C59.0037 18.6971 58.6386 17.8979 56.9588 17.8979H54.3318V20.8727L54.3306 20.874ZM82.8786 15.9406H78.1327V11.587H75.9423V22.7598H78.1327V17.7524H82.8786V22.7598H85.069V11.5857H82.8786V15.9394V15.9406ZM89.5238 16.302L93.9046 11.587H96.4601L92.0793 16.302L96.6796 22.7598H93.7578L90.3995 17.8979L89.5238 18.6959V22.687H87.3334V11.587H89.5238V16.302ZM122.38 35.5285C122.38 38.9374 119.896 41.4041 116.392 41.4041C112.815 41.4041 110.404 38.9374 110.404 35.5285C110.404 32.1183 112.887 29.6516 116.392 29.6516C119.896 29.7244 122.379 32.1183 122.379 35.5285H122.38ZM120.115 35.5285C120.115 33.2789 118.582 31.6829 116.391 31.6829C114.202 31.6829 112.669 33.2789 112.669 35.5272C112.669 37.7768 114.202 39.3728 116.392 39.3728C118.51 39.4455 120.117 37.8496 120.117 35.5285H120.115ZM126.175 34.6577L130.556 29.9415H133.111L128.73 34.6577L133.331 41.1143H130.41L127.052 36.2537L126.176 37.0516V41.0415H123.984V29.8699H126.175V34.6577ZM52.0674 29.9415H54.2578V39.2285H59.0037V29.9415H61.1941V39.2285H62.5803V43H60.6095V41.113H52.0674V29.9415ZM67.1079 31.8285H73.3856V29.9415H64.9175V41.1143H73.3868V39.2272H67.1079V36.1809H72.6567V34.2939H67.1067V31.8272L67.1079 31.8285ZM155.162 31.8285H148.883V34.2951H154.506V36.1809H148.883V39.2272H155.162V41.1143H146.693V29.9415H155.162V31.8285ZM83.4632 34.2951H78.7173V29.9415H76.5269V41.1143H78.7173V36.1081H83.4632V41.1143H85.6536V29.9415H83.4632V34.2951ZM93.8306 31.8285V41.1143H91.6402V31.8272H87.9895V29.9415H97.3345V31.8285H93.8306ZM188.529 41.1143V31.8272H192.032V29.9415H182.687V31.8285H186.338V41.1143H188.529ZM104.857 29.9415C106.097 29.9415 106.973 30.087 107.85 30.8122C108.726 31.6102 109.018 32.6992 109.018 33.4972C109.018 33.9313 108.944 35.1646 108.068 35.9638C107.412 36.6163 106.535 36.9789 105.222 36.9789H102.082V41.1143H99.8912V29.9415H104.857ZM102.008 35.0931H104.637C105.075 35.0931 105.587 35.0931 106.097 34.7305C106.535 34.4394 106.682 33.9313 106.682 33.4232C106.682 32.7707 106.39 32.4081 106.025 32.1183C105.587 31.8285 105.002 31.7557 104.492 31.7557H102.009V35.0931H102.008ZM143.627 30.8122C142.75 30.087 141.874 29.9415 140.632 29.9415H135.668V41.1143H137.858V36.9789H140.997C142.312 36.9789 143.187 36.6163 143.845 35.9638C144.722 35.1646 144.794 33.9313 144.794 33.4972C144.794 32.698 144.575 31.6102 143.627 30.8122ZM140.414 35.0919H137.785V31.7557H140.267C140.779 31.7557 141.362 31.8285 141.801 32.1183C142.166 32.4081 142.457 32.772 142.457 33.4244C142.457 33.9313 142.312 34.4394 141.874 34.7293C141.362 35.0931 140.852 35.0931 140.414 35.0931V35.0919ZM167.209 39.2285V29.9415H159.105V34.7305C159.105 36.3264 158.885 37.1232 158.667 37.7041C158.302 38.5748 157.645 39.2285 156.842 39.2285V43H158.885V41.113H166.333V43H168.377V39.2285H167.209ZM160.857 37.9211C161.076 37.4142 161.223 36.5435 161.223 34.802H161.295V31.8272H165.091V39.2272H159.981C160.273 38.9374 160.638 38.5748 160.857 37.9224V37.9211ZM172.612 29.9415V37.4858L178.819 29.7232H180.352V41.1858H178.161V33.5687L171.955 41.3313H170.422V29.9415H172.612Z" fill="#231F20"/>
<path d="M9.5 38.5021V6H42.2105V12.3122H35.4925L21.9123 38.5021H9.5ZM11.5449 36.4708H20.7443L34.2518 10.2797H40.1657V8.0313H11.5449V36.4708Z" fill="#F6921E"/>
<path d="M14.0264 42.8551V36.4702H20.7431L34.1791 10.2803H46.6641V42.8539H14.0264V42.8551ZM45.6405 41.8389V40.8226V41.8389ZM17.1664 40.8226H44.6193V12.3116H35.4186L21.9851 38.4287H15.9972V40.8226H17.1664Z" fill="#009345"/>
</svg>
