<svg width="201" height="50" viewBox="0 0 201 50" fill="none" xmlns="http://www.w3.org/2000/svg">
<path d="M55.7902 17.0067V19.0467H59.9835V21.2567H55.7902V24.9967H53.0702V14.7967H60.3235V17.0067H55.7902ZM67.9167 22.2767H65.8201V24.9967H63.1001V14.7967H68.3701C69.2201 14.7967 69.9001 14.91 70.4101 15.08C70.9201 15.25 71.2601 15.5333 71.5434 15.9867C71.7701 16.44 71.9401 17.0633 71.9401 17.9133C71.9401 18.5933 71.8834 19.16 71.8267 19.5C71.7701 19.84 71.6001 20.18 71.3167 20.4633C71.0334 20.7467 70.5801 20.9167 69.9567 21.0867V21.2C70.5234 21.2 70.9767 21.37 71.3167 21.71C71.6567 21.9933 71.8267 22.4467 71.8267 23.0133V25.0533H69.1067V23.6367C68.9934 22.73 68.6534 22.2767 67.9167 22.2767ZM65.7634 19.9533H67.8601C68.2001 19.9533 68.4834 19.8967 68.6534 19.7833C68.8234 19.67 68.9367 19.5567 68.9367 19.33C68.9934 19.1033 68.9934 18.7633 68.9934 18.31C68.9934 17.8567 68.9367 17.5167 68.7667 17.4033C68.5967 17.2333 68.3134 17.1767 67.8601 17.1767H65.7634V19.9533ZM77.4934 17.0067V18.8767H81.8567V20.8033H77.4934V22.7867H82.2534V24.9967H74.7734V14.7967H82.1401V17.0067H77.4934ZM88.0333 17.0067V18.8767H92.3967V20.8033H88.0333V22.7867H92.7933V24.9967H85.3133V14.7967H92.68V17.0067H88.0333ZM95.7401 24.9967V14.7967H100.953C101.917 14.7967 102.71 14.91 103.333 15.1933C103.957 15.4767 104.353 15.8733 104.693 16.44C104.977 17.0067 105.147 17.8 105.147 18.7633V20.9167C105.147 21.88 105.033 22.6733 104.807 23.24C104.58 23.8633 104.183 24.3167 103.617 24.6C103.05 24.8833 102.313 25.0533 101.407 25.0533H95.7401V24.9967ZM98.4601 17.1767V22.6733H100.84C101.747 22.6733 102.2 22.1067 102.2 20.9167V18.7633C102.2 18.31 102.143 18.0267 102.03 17.7433C101.917 17.5167 101.803 17.3467 101.577 17.29C101.407 17.1767 101.123 17.1767 100.783 17.1767H98.4601ZM112.4 25.11C111.663 25.11 110.983 25.0533 110.417 24.94C109.85 24.8267 109.397 24.6567 108.943 24.3733C108.547 24.09 108.207 23.6933 107.98 23.24C107.753 22.73 107.64 22.1067 107.64 21.37V18.48C107.64 17.7433 107.753 17.0633 107.98 16.61C108.207 16.1 108.547 15.7033 108.943 15.4767C109.34 15.25 109.85 15.0233 110.417 14.91C110.983 14.7967 111.663 14.74 112.4 14.74C113.137 14.74 113.817 14.7967 114.383 14.91C114.95 15.0233 115.403 15.1933 115.857 15.4767C116.253 15.76 116.593 16.1 116.82 16.61C117.047 17.12 117.16 17.7433 117.16 18.48V21.37C117.16 22.1067 117.047 22.7867 116.82 23.24C116.593 23.75 116.253 24.1467 115.857 24.3733C115.46 24.6567 114.95 24.8267 114.383 24.94C113.817 25.0533 113.193 25.11 112.4 25.11ZM112.4 22.73C112.91 22.73 113.307 22.6733 113.59 22.6167C113.873 22.56 114.043 22.39 114.157 22.1633C114.27 21.9367 114.327 21.54 114.327 21.03V18.7067C114.327 18.31 114.27 18.0267 114.213 17.8C114.157 17.5733 114.043 17.4033 113.873 17.29C113.703 17.1767 113.533 17.12 113.307 17.0633C113.08 17.0067 112.74 17.0067 112.343 17.0067C111.833 17.0067 111.437 17.0633 111.21 17.12C110.927 17.1767 110.757 17.3467 110.643 17.5733C110.53 17.8 110.473 18.1967 110.417 18.65V20.9733C110.417 21.4833 110.473 21.8233 110.587 22.1067C110.7 22.3333 110.87 22.5033 111.153 22.56C111.437 22.6167 111.89 22.73 112.4 22.73ZM122.43 17.1767L122.713 24.9967H119.993V14.7967H124.3L126.283 21.2H126.397L128.21 14.7967H132.687V24.9967H129.967L130.193 17.1767H130.137L127.53 24.9967H125.15L122.543 17.1767H122.43ZM56.4701 30.6067V31.4567H54.6001V37.7467H53.5234V31.5133H52.4468V30.6633H53.5234V29.5867C53.5234 28.7933 53.6934 28.2267 54.0901 27.9433C54.4301 27.6033 55.0534 27.49 55.8468 27.49L56.5268 27.5467V28.4533C56.3568 28.4533 56.1301 28.3967 55.9601 28.3967H55.7334C55.3368 28.3967 55.0534 28.51 54.8834 28.68C54.7134 28.85 54.6568 29.1333 54.6568 29.5867V30.72H56.4701V30.6067ZM59.4167 28.7367H58.3401V27.5467H59.4167V28.7367ZM59.4167 37.8033H58.3401V30.6067H59.4167V37.8033ZM62.9868 33.3833V37.7467H61.9101V30.6067H62.9301V31.5133C63.1568 31.1167 63.5535 30.8333 64.0068 30.6633C64.3468 30.55 64.8001 30.4933 65.4235 30.4933C66.3868 30.4933 67.0668 30.6633 67.4635 31.06C67.8601 31.4 68.0301 32.08 68.0301 33.0433V37.8033H66.9535V33.1567C66.9535 32.42 66.8401 31.9667 66.6135 31.74C66.3868 31.5133 65.9335 31.4 65.1968 31.4C64.4601 31.4 63.9501 31.57 63.5535 31.8533C63.1568 32.1933 62.9868 32.7033 62.9868 33.3833ZM75.2834 34.29V33.27C75.2834 32.42 75.1701 31.8533 74.8868 31.6267C74.6601 31.4 74.0935 31.2867 73.1868 31.2867C72.5068 31.2867 72.1101 31.3433 71.8268 31.5133C71.6001 31.6267 71.4868 31.9667 71.4868 32.42V32.6467H70.4101C70.4101 31.74 70.6935 31.1733 71.2035 30.89C71.6001 30.6633 72.2801 30.55 73.2435 30.55C74.3768 30.55 75.1134 30.72 75.5668 30.9467C76.1334 31.2867 76.3601 32.0233 76.3601 33.0433V37.8033H75.3401L75.3968 36.8967C75.1701 37.35 74.8868 37.6333 74.6035 37.7467C74.3201 37.86 73.7534 37.9167 73.0168 37.9167C72.0534 37.9167 71.3735 37.8033 70.9201 37.52C70.4101 37.18 70.1834 36.5567 70.1834 35.65C70.1834 34.8 70.4101 34.1767 70.9201 33.8933C71.3168 33.61 71.9968 33.4967 72.9035 33.4967C73.6968 33.4967 74.2635 33.5533 74.6035 33.6667C74.8868 33.78 75.1134 33.95 75.2834 34.29ZM75.2834 35.7067C75.2834 35.0833 75.1134 34.6867 74.8301 34.5167C74.5468 34.3467 73.8668 34.29 72.9035 34.29C72.3368 34.29 71.8834 34.3467 71.6568 34.5167C71.3734 34.6867 71.2601 35.0267 71.2601 35.5367C71.2601 36.16 71.3734 36.5567 71.6001 36.7833C71.8268 37.01 72.2801 37.1233 72.9035 37.1233C73.7535 37.1233 74.3201 37.0667 74.6035 36.9533C75.0568 36.7267 75.2834 36.33 75.2834 35.7067ZM79.8734 33.3833V37.7467H78.7967V30.6067H79.8167V31.5133C80.0434 31.1167 80.4401 30.8333 80.8934 30.6633C81.2334 30.55 81.6867 30.4933 82.3101 30.4933C83.2734 30.4933 83.9534 30.6633 84.3501 31.06C84.7467 31.4 84.9167 32.08 84.9167 33.0433V37.8033H83.8401V33.1567C83.8401 32.42 83.7267 31.9667 83.5001 31.74C83.2734 31.5133 82.8201 31.4 82.0834 31.4C81.3467 31.4 80.8367 31.57 80.4401 31.8533C80.1001 32.1933 79.8734 32.7033 79.8734 33.3833ZM92.2834 35.1966H93.3601C93.3601 36.2733 93.1335 37.01 92.6235 37.4066C92.1701 37.7466 91.3768 37.9166 90.2434 37.9166C89.0534 37.9166 88.2601 37.6333 87.8068 37.1233C87.3534 36.6133 87.1834 35.65 87.1834 34.1766C87.1834 32.76 87.4101 31.7966 87.8068 31.23C88.2034 30.72 89.0534 30.4366 90.2434 30.4366C91.2634 30.4366 91.9434 30.6066 92.3968 30.89C92.9634 31.23 93.1901 31.8533 93.1901 32.7033V32.93H92.1701C92.1701 32.3066 92.0568 31.91 91.8301 31.74C91.5468 31.5133 91.0368 31.4 90.1868 31.4C89.3935 31.4 88.8834 31.57 88.6001 31.91C88.3734 32.25 88.2035 33.0433 88.2035 34.1766C88.2035 35.31 88.3168 36.1033 88.6001 36.4433C88.8834 36.7833 89.3935 37.01 90.1868 37.01C91.0368 37.01 91.6034 36.8966 91.8301 36.67C92.1134 36.4433 92.2834 35.9333 92.2834 35.1966ZM101.577 34.4033H96.4202C96.4202 35.48 96.5335 36.2167 96.8168 36.5567C97.1002 36.8967 97.6102 37.0667 98.4602 37.0667C99.3102 37.0667 99.8202 37.01 100.103 36.84C100.33 36.67 100.5 36.33 100.5 35.8767V35.65H101.577C101.577 36.6133 101.293 37.2367 100.783 37.5767C100.387 37.86 99.5935 37.9733 98.4602 37.9733C97.2702 37.9733 96.4202 37.69 96.0235 37.18C95.5702 36.67 95.3435 35.7067 95.3435 34.2333C95.3435 32.8733 95.5702 31.91 96.0802 31.3433C96.5902 30.7767 97.3268 30.55 98.4602 30.55C99.5935 30.55 100.387 30.7767 100.84 31.2867C101.35 31.7967 101.577 32.6467 101.577 33.8933V34.4033ZM100.5 33.61C100.5 32.76 100.33 32.1933 100.047 31.91C99.7635 31.57 99.2535 31.4 98.4602 31.4C97.6668 31.4 97.1568 31.57 96.8735 31.91C96.5902 32.25 96.4202 32.8167 96.4202 33.61H100.5Z" fill="black"/>
<path d="M153.313 20.123H160.113V21.143H154.447V24.713H157.903C159.037 24.713 159.83 24.9397 160.283 25.3364C160.737 25.733 160.963 26.4697 160.963 27.5464C160.963 28.623 160.737 29.3597 160.283 29.813C159.83 30.2664 159.037 30.493 157.96 30.493H153.37V20.123H153.313ZM154.447 25.6764V29.4164H157.847C158.64 29.4164 159.15 29.2464 159.433 28.963C159.66 28.6797 159.83 28.2264 159.83 27.4897C159.83 26.753 159.717 26.243 159.433 26.0164C159.15 25.7897 158.583 25.6764 157.733 25.6764H154.447ZM164.137 25.1664H163.06C163.06 24.2597 163.343 23.693 163.853 23.4097C164.25 23.183 164.93 23.1264 165.893 23.1264C167.027 23.1264 167.82 23.2397 168.217 23.523C168.783 23.863 169.067 24.5997 169.067 25.6197V30.4364H168.047L168.103 29.5297C167.877 29.983 167.593 30.2664 167.253 30.3797C166.97 30.493 166.403 30.5497 165.667 30.5497C164.703 30.5497 163.967 30.4364 163.57 30.153C163.06 29.813 162.833 29.1897 162.833 28.283C162.833 27.433 163.06 26.8097 163.57 26.5264C163.967 26.243 164.647 26.1297 165.553 26.1297C166.403 26.1297 166.913 26.1864 167.253 26.2997C167.593 26.413 167.82 26.6397 167.933 26.9797V25.9597C167.933 25.1097 167.82 24.5997 167.593 24.373C167.367 24.203 166.8 24.0897 165.837 24.0897C165.157 24.0897 164.703 24.1464 164.477 24.2597C164.25 24.373 164.137 24.6564 164.137 25.053V25.1664ZM167.933 28.283C167.933 27.6597 167.763 27.263 167.48 27.093C167.197 26.923 166.517 26.8664 165.553 26.8664C164.987 26.8664 164.533 26.923 164.307 27.093C164.023 27.263 163.853 27.603 163.853 28.113C163.853 28.7364 163.967 29.133 164.25 29.303C164.477 29.5297 164.93 29.5864 165.553 29.5864C166.403 29.5864 166.97 29.5297 167.253 29.4164C167.707 29.2464 167.933 28.8497 167.933 28.283ZM172.353 23.2397V26.1297H176.15V23.2397H177.227V30.4364H176.15V27.0364H172.353V30.4364H171.277V23.2397H172.353ZM180.627 23.2397V26.1297H181.023L183.63 23.2397H184.933L181.873 26.5264L185.5 30.4364H184.083L181.023 27.0364H180.627V30.4364H179.493V23.2397H180.627Z" fill="black"/>
<path d="M143.737 11H142.83V41.8267H143.737V11Z" fill="#A8A8A7"/>
<path d="M25.7002 19.9532V23.8066H39.6402V31.5132H25.7002V40.5232C26.7768 41.0332 27.9102 41.4299 29.0435 41.6566C35.9002 40.2966 42.2468 34.2332 42.4735 23.4666L42.5302 19.9532H25.7002Z" fill="#2E7E33"/>
<path d="M42.53 19.9533L42.6433 11.6233C38.1667 11.2833 33.6333 11.1133 29.1 11.1133C24.51 11.1133 19.9767 11.2833 15.5 11.6233L15.5567 18.14L15.7267 23.4667C15.7267 23.4667 15.7833 28.3967 17.4267 31.9667C20.1467 38.4267 25.7 40.58 25.7 40.58V31.57H39.64V23.8067H25.7V19.9533H42.53Z" fill="#76B949"/>
</svg>
