<svg width="201" height="50" viewBox="0 0 201 50" fill="none" xmlns="http://www.w3.org/2000/svg">
<path fill-rule="evenodd" clip-rule="evenodd" d="M33.5122 7C23.5762 7 15.5 15.0732 15.5 25.0098C15.5 34.9258 23.5762 43 33.5122 43C43.4258 43 51.5 34.9258 51.5 25.0098C51.5 15.0732 43.4258 7 33.5122 7ZM33.5122 42.0996C24.0762 42.0996 16.3999 34.4297 16.3999 25.0098C16.3999 15.5703 24.0732 7.90039 33.5122 7.90039C42.9321 7.90039 50.6001 15.5742 50.6001 25.0098C50.6001 34.4277 42.9292 42.0996 33.5122 42.0996ZM86.3911 21.8281C86.3911 22.9727 85.3281 23.3486 84.7461 23.3486H83.207V26.6777H84.6641C85.8921 26.6777 86.4521 27.2607 86.4521 28.1357C86.4521 28.7578 85.9961 29.6143 84.8301 29.6143C84.1431 29.6143 83.457 29.5742 82.437 29.1338L82.374 32.3643C82.7075 32.5459 83.0239 32.6904 83.3413 32.8037C84.0742 33.0645 84.8145 33.1602 85.7871 33.1738C88.4102 33.1738 90.4492 31.5508 90.4492 28.6143C90.4492 26.2393 89.0332 25.2227 87.9731 24.8857V24.7412C89.0742 24.2812 90.2002 23.0977 90.2002 21.1396C90.2002 19.1211 88.8892 17.0596 85.9312 17.0596C85.3184 17.0527 84.707 17.0947 84.1025 17.1836C83.6611 17.249 83.2231 17.3389 82.791 17.4541L82.832 20.8291C83.603 20.4541 84.3931 20.3906 84.8081 20.3906C85.1641 20.3906 86.3911 20.4756 86.3911 21.8281ZM120.145 33.0498C124.411 33.0498 125.845 29.0498 125.845 25.0742C125.845 21.0996 124.411 17.1006 120.145 17.1006C115.879 17.1006 114.445 21.0996 114.445 25.0742C114.445 29.0498 115.879 33.0488 120.145 33.0498ZM120.145 29.2793C118.873 29.2793 118.231 27.8027 118.231 25.0742C118.231 22.3457 118.873 20.8682 120.145 20.8682C121.416 20.8682 122.058 22.3457 122.058 25.0742C122.058 27.8027 121.416 29.2793 120.145 29.2793ZM130.634 17.3301H127.575V32.8613H131.174V23.3877L133.336 26.0938L135.5 23.3877V32.8613H139.103V17.3291H136.065L133.336 20.9941L130.634 17.3301ZM141.537 32.8613H145.823C146.759 32.8613 150.652 32.4648 150.672 27.7578C150.672 23.8076 147.656 23.1182 145.699 23.1182H145.054V21.0576H149.819V17.3301H141.537V32.8613ZM145.054 29.7383V26.2197H145.574C145.795 26.2197 146.193 26.2256 146.532 26.4385C146.862 26.6465 147.136 27.0518 147.136 27.8428C147.136 29.4697 146.01 29.7383 145.574 29.7383H145.054ZM163.617 17.3301H167.134V22.9307H169.652V17.3301H173.167V32.8623H169.652V26.6367H167.134V32.8623H163.617V17.3301ZM175.539 17.3301H179.078L179.057 22.9102H179.826L181.845 17.3301H185.674L182.926 24.7021L186.07 32.8623H181.927L179.89 26.6152H179.057L179.078 32.8613H175.539V17.3301ZM155.023 32.8818H151.36L154.46 17.3516H158.997L162.077 32.8818H158.415L157.977 30.1963H155.461L155.023 32.8818ZM157.394 26.7812L156.728 22.0547L156.041 26.7812H157.394ZM107.616 32.8613H104.016V17.3291H108.825C112.215 17.3291 113.485 20.4932 113.485 22.4912C113.485 24.5342 112.381 27.7412 108.825 27.7412H107.616V32.8613ZM108.47 20.7441H107.616L107.617 24.3242H108.47C108.928 24.3242 109.803 24.2002 109.803 22.5342C109.803 21.2441 109.282 20.7441 108.47 20.7441ZM92.1338 17.3301H101.956V32.8604H98.355V21.0771H95.7349V32.8613H92.1338V17.3301ZM70.5981 32.8613H74.2383L74.6973 30.1738H77.2153L77.6514 32.8613H81.291L78.2109 17.3291H73.6763L70.5981 32.8613ZM75.9443 22.0137L76.6323 26.7607H75.2573L75.9443 22.0137ZM71.0107 17.3301H63.627V32.8604H67.2871V21.2002H71.0107V17.3301ZM38.6196 13.6934C35.771 12.4229 30.4629 12.2969 26.1147 14.2334C26.6748 13.833 27.2744 13.4932 27.9048 13.2168C29.2739 12.5791 31.4819 11.9609 34.2339 11.9609C34.3638 11.9609 34.4937 11.9619 34.624 11.9648C36.9771 12.0068 39.7666 12.8193 41.4717 14.5059C41.6426 14.7139 41.771 14.9219 41.8604 15.1133C41.9229 15.2471 41.9663 15.3721 41.9917 15.4844C43.3447 16.1719 44.1348 16.8164 44.5708 17.5664C44.7598 17.9609 44.8218 18.376 44.7368 18.8555C45.1807 19.1045 45.5654 19.4463 45.8647 19.8584C45.9604 20.0205 46.0454 20.1924 46.1113 20.3652C46.1729 20.5254 46.2173 20.6855 46.2378 20.8379C46.2988 21.251 46.3398 21.7295 45.9028 22.293C46.3608 22.5225 46.7339 23.165 46.7788 23.4385C47.0078 24.4551 46.3398 25.4551 45.4878 26.2275C44.4878 27.1006 42.2817 28.1416 40.4917 28.6006C36.958 29.4951 33.813 29.8711 31.3179 30.3301C32.4409 30.5996 33.959 30.9551 36.437 30.9551C41.7407 30.9551 46.4238 28.4541 46.4238 28.4541C46.4238 28.4541 46.3208 28.7686 46.2148 29.0605C42.8447 31.0996 37.498 31.9521 35.207 31.8477C32.897 31.7422 30.9419 31.3896 29.0269 30.8057C28.4419 30.9707 27.8657 31.165 27.3008 31.3896C30.2158 32.7217 32.4199 33.0146 34.897 33.2002C37.4336 33.3896 41.6396 32.7832 45.1738 31.4961C45.0078 31.6641 44.9248 31.9121 44.7598 32.0576C43.5537 32.6953 41.4541 33.333 39.6143 33.7119C38.6909 33.9023 37.833 34.0283 37.186 34.0557C35.27 34.1396 32.9399 34.0557 30.8999 33.6797C29.1519 33.3281 27.7139 32.7832 26.2168 32.1201C25.9487 32.3252 25.8237 32.5781 25.7588 32.8701C31.6099 35.9297 37.0586 35.9902 43.2837 34.0557L42.7197 34.5977C35.873 37.3877 30.5249 36.3037 26.3818 34.3047L26.207 34.2295C26.1147 34.1895 26.0234 34.1465 25.9487 34.0967C26.3447 34.7637 29.5049 37.0742 33.043 37.3662C35.48 37.5742 38.4546 37.1572 40.2227 36.4512L39.1826 36.9912C38.3286 37.4082 36.061 38.3682 32.896 38.1582C28.6729 37.8652 26.2998 35.9912 25.2378 35.0146C24.7388 34.5537 24.5117 34.0352 24.3647 33.3896C23.6724 33.0283 23.165 32.6553 22.7495 32.1777C22.5903 31.9941 22.4443 31.7959 22.3066 31.5771C22.0146 31.1406 22.0747 30.6211 22.1367 30.1807L22.2666 29.8105C21.8057 29.4736 21.3276 29.1201 21.1406 28.7686C20.7217 28.0186 20.9756 27.3721 21.2656 26.8721C21.0146 26.5811 20.7847 26.29 20.6851 25.999C20.5586 25.666 20.5391 25.3291 20.5767 24.9561C20.6616 24.333 20.9946 23.752 21.4316 23.25C22.3457 22.1875 23.8057 21.3555 26.2788 20.5439C28.7158 19.7295 29.6948 19.6045 31.5259 19.1865C32.3398 18.998 33.2144 18.8574 34.103 18.7139C35.5537 18.4805 37.0425 18.2402 38.3706 17.7754C32.3979 16.7354 26.1978 17.6914 21.1406 21.165L21.4727 20.1875C26.0088 17.2324 31.0249 15.4844 39.5146 16.9629C39.9727 16.6914 40.2427 16.4199 40.3696 15.8799C38.2456 15.1104 35.937 14.8398 32.9619 14.8799C30.2969 14.9648 25.4878 15.96 22.9116 17.4854L23.6987 16.5049C25.4878 15.4395 30.1699 14.0469 33.6899 13.9844C36.1641 13.9229 37.4336 14.0674 40.3896 14.8594C40.1353 14.3965 39.5952 14.1465 38.7993 13.7764L38.6196 13.6934ZM43.1558 18.0254C43.0747 17.4424 42.4087 16.8799 41.8247 16.5049C41.7417 16.7969 41.4326 17.1504 41.2227 17.3799C41.8677 17.5479 42.5337 17.7939 43.1558 18.0254ZM40.3076 18.2109C39.8887 18.5449 39.4126 18.835 38.7026 19.1084C39.3325 19.2188 39.8774 19.3662 40.4014 19.5225C40.8491 19.6553 41.2817 19.7939 41.7407 19.9189C41.751 19.9238 41.7627 19.9258 41.7739 19.9248C41.9907 19.9248 42.7036 19.2656 42.8267 19.085C42.1147 18.7725 41.2407 18.459 40.3076 18.2109ZM44.7598 21.2715C45.0288 20.751 44.8628 20.418 44.3027 19.9385C44.0728 20.2119 43.8228 20.4385 43.5527 20.6465C43.9888 20.8545 44.3867 21.002 44.7598 21.2715ZM35.397 20.1699C32.6499 20.5029 29.6099 21.083 27.0098 21.8545L26.8711 21.8965C25.5806 22.2891 20.7007 23.7695 22.1826 25.8105C22.1978 25.8105 23.123 24.5342 26.6128 23.5195C28.8936 22.8496 31.2319 22.4238 33.6069 21.9912C35.7402 21.6025 37.9033 21.208 40.0796 20.627C38.2891 20.1504 37.2866 19.9385 35.397 20.1699ZM38.3721 22.6885C36.895 23.0625 33.314 23.583 29.4658 24.415C28.2578 24.6855 24.9478 25.4551 23.3247 26.8301C23.5356 27.0039 23.7114 27.1152 23.8882 27.2129C24.0947 27.3271 24.3032 27.4229 24.5718 27.5801C25.2378 27.1416 26.1548 26.7256 27.5098 26.3701C29.8569 25.7471 31.6299 25.4785 33.752 25.127C35.854 24.8086 39.8276 23.9766 42.0117 23.1855C42.5254 23.0117 43.0063 22.7949 43.4121 22.543C43.584 22.4365 43.7427 22.3242 43.8848 22.2061C43.7388 22.042 42.3237 21.3555 42.2817 21.4189C41.4106 21.834 40.1616 22.249 38.3721 22.6885ZM33.25 26.875C31.6582 27.1387 30.1245 27.3926 28.5059 27.79C27.7778 27.9746 27.0288 28.2051 26.3447 28.4951C27.0288 28.8496 27.7788 29.1631 28.5269 29.4551C30.0249 29.0176 30.7358 28.8301 32.896 28.4766C33.729 28.3281 36.2681 27.8711 38.0986 27.5C41.4106 26.7891 46.2588 25.248 44.9688 23.25C44.9043 23.3047 44.8398 23.3545 44.7754 23.4043C44.6938 23.4688 44.6128 23.5332 44.5317 23.6045C43.5527 24.3496 41.9917 24.9561 39.8496 25.5195C37.3643 26.1924 35.2607 26.541 33.25 26.875ZM23.251 28.5967C23.3135 28.5488 23.3745 28.501 23.4297 28.4541C23.1616 28.3154 22.9604 28.1943 22.7559 28.0654L22.4507 27.8701C22.3774 28.0371 22.4014 28.21 22.479 28.3672C22.5781 28.5674 22.7651 28.7432 22.9507 28.8496C23.0405 28.7598 23.1475 28.6768 23.251 28.5967ZM26.8198 30.0576C26.2168 29.7871 25.5728 29.5186 24.9478 29.2266C24.6567 29.4141 24.3877 29.5996 24.1787 29.7871C24.6777 30.0791 25.1577 30.3477 25.6577 30.6221C26.0254 30.3955 26.4146 30.2061 26.8198 30.0576ZM24.3877 31.9951C24.4478 31.7852 24.5537 31.6201 24.6997 31.4121C24.3438 31.2217 23.9907 31.0361 23.6377 30.8057C23.6147 31.2031 23.8667 31.5566 24.3877 31.9951Z" fill="#476BF0"/>
</svg>
