<svg width="141" height="45" viewBox="0 0 141 45" fill="none" xmlns="http://www.w3.org/2000/svg">
<path d="M9.5962 29.5208H0.00555389V34.3163H9.5962V29.5208Z" fill="#404041"/>
<path d="M23.9779 29.5208H14.3933V34.3163H23.9779V29.5208Z" fill="#404041"/>
<path d="M23.9804 19.9302H0V24.7257H23.9804V19.9302Z" fill="#404041"/>
<path d="M14.3929 10.3404H0.00555944V15.1356H14.3929V10.3404Z" fill="#404041"/>
<path d="M23.9828 10.3404H19.1877V15.1356H23.9828V10.3404Z" fill="#404041"/>
<path d="M93.5977 10.3131C85.8963 10.3131 81.9188 15.7592 81.9188 22.4775C81.9188 29.1961 85.7983 34.6429 93.5977 34.6429C101.397 34.6429 105.277 29.1961 105.277 22.4775C105.277 15.7592 101.299 10.3131 93.5977 10.3131ZM99.4242 22.4993C99.4187 26.8195 97.963 30.3187 93.5977 30.3187C89.2324 30.3187 87.7764 26.8198 87.7719 22.4993V22.4778C87.7764 18.1579 89.2327 14.659 93.598 14.659C97.963 14.659 99.4187 18.1579 99.4242 22.4778V22.4887C99.4242 22.4923 99.4242 22.4957 99.4242 22.4993Z" fill="#404041"/>
<path d="M59.1142 34.3158V0.682751C59.1142 0.682751 63.5503 0.0526114 63.8942 0.0063265C64.2839 -0.0463112 64.8012 0.231096 64.8012 0.779556V13.2474C65.7217 12.3723 66.7355 11.6668 67.8402 11.1292C68.9459 10.5923 70.2425 10.3233 71.7321 10.3233C73.0217 10.3233 74.1643 10.542 75.162 10.9798C76.1603 11.4166 76.9932 12.0313 77.6608 12.8212C78.3285 13.6123 78.8352 14.5561 79.1806 15.6536C79.5258 16.7512 79.6985 17.96 79.6985 19.2802V34.3155H74.0113V19.2802C74.0113 17.8375 73.6773 16.7206 73.0096 15.9295C72.3417 15.1394 71.34 14.744 70.0041 14.744C69.0219 14.744 68.1013 14.9666 67.2422 15.4122C66.3821 15.8575 65.5687 16.4632 64.8012 17.2313V34.3158H59.1142Z" fill="#404041"/>
<path d="M135.04 34.6397C131.126 34.6397 128.673 32.3621 128.673 28.113V15.5198H124.263C124.263 15.5198 125.2 12.2775 125.274 12.0222C125.349 11.7671 125.543 11.4931 125.932 11.4389C126.321 11.3848 128.668 11.0574 128.668 11.0574L129.752 4.16189C129.752 4.16189 132.936 3.71296 133.441 3.63763C133.918 3.56624 134.35 3.90959 134.35 4.42901V11.0574H139.929V15.5198H134.35V27.9432C134.35 29.6394 135.383 30.2877 136.373 30.2877C136.978 30.2877 137.807 29.9665 138.425 29.6797C138.807 29.503 139.399 29.634 139.552 30.1673C139.687 30.6399 140.406 33.148 140.406 33.148C139.786 33.5486 137.825 34.6397 135.04 34.6397Z" fill="#404041"/>
<path d="M121.139 15.595C120.03 15.235 117.947 14.6587 115.965 14.6587C113.946 14.6587 112.357 15.3563 112.357 17.0353C112.357 19.1323 115.781 19.7428 118.125 20.5977C119.692 21.1692 123.894 22.2833 123.894 26.8029C123.894 32.293 119.335 34.6402 114.472 34.6402C109.608 34.6402 106.734 32.8311 106.734 32.8311C106.734 32.8311 107.488 30.166 107.641 29.6399C107.779 29.1665 108.33 29.0004 108.68 29.135C109.932 29.6175 112.193 30.2882 114.748 30.2882C117.334 30.2882 118.586 29.4983 118.586 27.8145C118.586 25.5735 115.093 24.8886 112.782 24.1598C111.191 23.6583 106.978 22.4884 106.978 17.5178C106.978 12.6213 111.278 10.324 115.873 10.324C119.763 10.324 121.671 11.1375 123.096 11.8635C123.096 11.8635 122.302 14.6312 122.184 15.0435C122.045 15.5336 121.643 15.7584 121.139 15.595Z" fill="#404041"/>
<path d="M56.895 11.1346C56.895 10.6049 56.4425 10.3018 56.0108 10.3511C54.1022 10.5698 52.7406 11.468 51.8597 12.3041C50.1299 10.9489 47.7288 10.3018 45.034 10.3018C39.6311 10.3018 35.4098 12.9095 35.4098 18.5955C35.4098 21.8597 36.7992 24.1089 39.0058 25.433C37.3671 26.2087 36.2756 27.8546 36.2756 29.4728C36.2756 32.1797 38.4141 33.0273 38.4141 33.0273C38.4141 33.0273 34.675 34.8421 34.675 38.4729C34.675 43.1208 38.9522 45 44.1788 45C51.7126 45 56.896 41.8883 56.896 36.1747C56.896 32.6583 54.2051 30.717 48.3411 30.4862C44.8613 30.3489 42.6072 30.2236 42.0488 30.0388C41.311 29.7938 40.9482 29.2029 40.9482 28.5507C40.9482 27.8307 41.5397 27.1452 42.472 26.6745C43.2852 26.8185 44.1434 26.8896 45.0346 26.8896C50.4421 26.8896 54.6591 24.2895 54.6591 18.5958C54.6591 17.2152 54.4099 16.0166 53.9567 14.9926C54.7511 14.5688 55.7285 14.2705 56.8956 14.2705C56.8956 14.2705 56.895 11.6177 56.895 11.1346ZM42.0055 34.3457C42.0055 34.3457 44.8428 34.4531 47.678 34.5844C50.8632 34.7317 51.8557 35.4181 51.8557 37.0674C51.8557 39.0825 49.0877 41.0425 45.2195 41.0425C41.5475 41.0425 39.7134 39.765 39.7134 37.638C39.7134 36.4176 40.3577 35.0524 42.0055 34.3457ZM45.0443 22.9206C42.4847 22.9206 40.4878 21.5611 40.4878 18.5955C40.4878 15.6297 42.4865 14.2702 45.0443 14.2702C47.6024 14.2702 49.6008 15.6261 49.6008 18.5955C49.6008 21.565 47.6048 22.9206 45.0443 22.9206Z" fill="#404041"/>
</svg>
