<svg width="214" height="50" viewBox="0 0 214 50" fill="none" xmlns="http://www.w3.org/2000/svg">
<path fill-rule="evenodd" clip-rule="evenodd" d="M64.9293 36.8467C64.1449 36.5477 63.6313 35.9145 63.6313 35.0703C63.6313 34.0484 64.4755 33.2059 65.5027 33.2059C65.8052 33.2059 66.0479 33.2657 66.259 33.3554C67.6597 34.0014 69.1857 34.3304 70.7282 34.3193C73.8712 34.3193 75.3504 32.8155 75.3504 29.924V29.1413C73.9908 30.7682 72.5116 31.7619 70.0651 31.7619C66.2889 31.7619 62.875 29.0217 62.875 24.2342V24.1761C62.875 19.3587 66.3487 16.6501 70.0651 16.6501C72.5714 16.6501 74.0506 17.7054 75.2888 19.0597V19.028C75.2888 17.7933 76.316 16.7714 77.5858 16.7714C78.8522 16.7714 79.8794 17.7933 79.8794 19.0579V29.4438C79.8794 32.3336 79.1864 34.4389 77.8268 35.7932C76.316 37.3005 73.9908 37.9618 70.8495 37.9618C68.8223 37.9796 66.8112 37.6008 64.9293 36.8467ZM75.3504 24.2359V24.1761C75.3504 21.9776 73.6267 20.4421 71.393 20.4421C69.1593 20.4421 67.4673 21.9776 67.4673 24.1761V24.2359C67.4673 26.4626 69.1593 27.9681 71.393 27.9681C73.6267 27.9681 75.3504 26.4327 75.3504 24.2359ZM82.4789 19.0579C82.4789 17.7933 83.5061 16.7714 84.7742 16.7714C86.0441 16.7714 87.0695 17.7933 87.0695 19.0579V19.779C87.7343 18.2154 88.8213 16.7714 90.1826 16.7714C91.602 16.7714 92.4163 17.7036 92.4163 18.9981C92.4163 20.2012 91.6319 20.924 90.6944 21.1351C88.3692 21.6786 87.0712 23.4532 87.0712 26.7035V30.9775C87.0712 32.2421 86.0441 33.2657 84.7742 33.2657C84.4733 33.2664 84.1753 33.2078 83.897 33.0933C83.6188 32.9787 83.3659 32.8105 83.1528 32.5981C82.9396 32.3858 82.7704 32.1335 82.6547 31.8557C82.5391 31.578 82.4794 31.2801 82.4789 30.9793V19.0579ZM91.8728 28.4501V28.3903C91.8728 24.8673 94.5603 23.2422 98.3981 23.2422C100.029 23.2422 101.207 23.513 102.355 23.9035V23.6326C102.355 21.7384 101.177 20.6831 98.8818 20.6831C97.8073 20.6716 96.7374 20.824 95.7088 21.1351C95.4965 21.2138 95.2722 21.2548 95.0458 21.2565C94.7975 21.2611 94.5508 21.2163 94.3201 21.1245C94.0894 21.0327 93.8794 20.8959 93.7022 20.722C93.525 20.548 93.3842 20.3405 93.2882 20.1116C93.1921 19.8827 93.1427 19.6369 93.1427 19.3886C93.1427 18.576 93.6528 17.8848 94.3809 17.6122C95.8302 17.0704 97.4008 16.7714 99.5448 16.7714C102.051 16.7714 103.865 17.4328 105.011 18.576C106.22 19.779 106.765 21.5572 106.765 23.7241V31.0672C106.765 32.3019 105.768 33.2657 104.529 33.2657C103.2 33.2657 102.324 32.3336 102.324 31.3697V31.3381C101.207 32.5728 99.668 33.3853 97.4307 33.3853C94.3809 33.3853 91.8728 31.6406 91.8728 28.4501ZM102.415 27.3948V26.5839C101.492 26.1783 100.493 25.9727 99.485 25.9807C97.5204 25.9807 96.3139 26.7633 96.3139 28.2091V28.2689C96.3139 29.5036 97.341 30.2265 98.8202 30.2265C100.966 30.2265 102.415 29.0516 102.415 27.3948ZM109.211 19.0579C109.211 17.7933 110.239 16.7714 111.508 16.7714C112.777 16.7714 113.804 17.7933 113.804 19.0579V19.2391C114.859 17.8848 116.25 16.6501 118.575 16.6501C120.689 16.6501 122.29 17.5823 123.136 19.2092C124.555 17.5541 126.249 16.6501 128.451 16.6501C131.865 16.6501 133.921 18.6974 133.921 22.5809V30.9775C133.921 32.2421 132.892 33.2657 131.624 33.2657C131.323 33.2664 131.025 33.2078 130.747 33.0933C130.468 32.9788 130.215 32.8106 130.002 32.5982C129.789 32.3859 129.619 32.1337 129.504 31.8559C129.388 31.5781 129.328 31.2802 129.327 30.9793V24.0847C129.327 21.9178 128.36 20.8044 126.64 20.8044C124.918 20.8044 123.861 21.9178 123.861 24.0847V30.9793C123.861 32.2421 122.835 33.2657 121.565 33.2657C120.958 33.2667 120.375 33.0264 119.944 32.5976C119.514 32.1689 119.272 31.5868 119.27 30.9793V24.0847C119.27 21.9178 118.303 20.8044 116.583 20.8044C114.859 20.8044 113.804 21.9178 113.804 24.0847V30.9793C113.804 32.2421 112.777 33.2657 111.508 33.2657C111.207 33.2667 110.909 33.2082 110.631 33.0938C110.352 32.9793 110.099 32.8111 109.886 32.5987C109.672 32.3864 109.503 32.134 109.387 31.8561C109.272 31.5783 109.212 31.2803 109.211 30.9793V19.0579ZM136.398 19.0579C136.398 17.7933 137.425 16.7714 138.693 16.7714C139.963 16.7714 140.99 17.7933 140.99 19.0579V19.2391C142.045 17.8848 143.435 16.6501 145.762 16.6501C147.876 16.6501 149.476 17.5823 150.322 19.2092C151.742 17.5541 153.434 16.6501 155.637 16.6501C159.051 16.6501 161.106 18.6974 161.106 22.5809V30.9775C161.106 32.2421 160.078 33.2657 158.809 33.2657C158.201 33.2667 157.618 33.0264 157.188 32.5976C156.757 32.1689 156.515 31.5868 156.513 30.9793V24.0847C156.513 21.9178 155.546 20.8044 153.826 20.8044C152.102 20.8044 151.047 21.9178 151.047 24.0847V30.9793C151.047 32.2421 150.02 33.2657 148.752 33.2657C148.451 33.2664 148.153 33.2078 147.874 33.0933C147.596 32.9787 147.343 32.8105 147.13 32.5981C146.917 32.3858 146.748 32.1335 146.632 31.8557C146.517 31.578 146.457 31.2801 146.456 30.9793V24.0847C146.456 21.9178 145.489 20.8044 143.767 20.8044C142.045 20.8044 140.988 21.9178 140.988 24.0847V30.9793C140.988 32.2421 139.963 33.2657 138.693 33.2657C138.392 33.2664 138.094 33.2078 137.816 33.0933C137.538 32.9787 137.285 32.8105 137.071 32.5981C136.858 32.3858 136.689 32.1335 136.573 31.8557C136.458 31.578 136.398 31.2801 136.398 30.9793V19.0579ZM162.616 28.4501V28.3903C162.616 24.8673 165.306 23.2422 169.142 23.2422C170.489 23.23 171.828 23.4538 173.097 23.9035V23.6326C173.097 21.7384 171.919 20.6831 169.624 20.6831C168.356 20.6831 167.328 20.8642 166.452 21.1351C166.24 21.2138 166.016 21.2548 165.789 21.2565C165.541 21.2616 165.294 21.2171 165.063 21.1255C164.832 21.0339 164.622 20.8971 164.444 20.7231C164.267 20.5491 164.126 20.3415 164.03 20.1123C163.934 19.8831 163.884 19.6371 163.885 19.3886C163.885 18.576 164.4 17.8848 165.123 17.6122C166.574 17.0704 168.144 16.7714 170.288 16.7714C172.797 16.7714 174.608 17.4328 175.755 18.576C176.963 19.779 177.507 21.5572 177.507 23.7241V31.0672C177.507 31.3589 177.449 31.6477 177.336 31.9167C177.223 32.1858 177.058 32.4298 176.85 32.6344C176.643 32.839 176.396 33.0002 176.125 33.1086C175.854 33.217 175.565 33.2704 175.273 33.2657C173.943 33.2657 173.067 32.3336 173.067 31.3697V31.3381C171.951 32.5728 170.408 33.3853 168.174 33.3853C165.123 33.3853 162.616 31.6406 162.616 28.4501ZM173.159 27.3948V26.5839C172.236 26.1784 171.237 25.9728 170.229 25.9807C168.264 25.9807 167.058 26.7633 167.058 28.2091V28.2689C167.058 29.5036 168.083 30.2265 169.564 30.2265C171.708 30.2265 173.159 29.0516 173.159 27.3948ZM179.955 19.0579C179.955 17.7933 180.982 16.7714 182.25 16.7714C183.52 16.7714 184.546 17.7933 184.546 19.0579V19.779C185.21 18.2154 186.297 16.7714 187.659 16.7714C189.076 16.7714 189.892 17.7036 189.892 18.9981C189.892 20.2012 189.106 20.924 188.171 21.1351C185.845 21.6786 184.546 23.4532 184.546 26.7035V30.9775C184.546 32.2421 183.52 33.2657 182.25 33.2657C181.643 33.2667 181.06 33.0264 180.629 32.5976C180.199 32.1689 179.956 31.5868 179.955 30.9793V19.0579ZM191.282 13.2186C191.282 11.9522 192.309 10.9321 193.577 10.9321C194.847 10.9321 195.874 11.9522 195.874 13.2186V30.9775C195.874 32.2421 194.847 33.2657 193.577 33.2657C192.97 33.2667 192.387 33.0264 191.956 32.5976C191.526 32.1689 191.283 31.5868 191.282 30.9793V13.2168V13.2186ZM199.529 37.5696C198.864 37.3304 198.078 36.7869 198.078 35.6753C198.073 35.4332 198.116 35.1925 198.205 34.9671C198.293 34.7417 198.426 34.5362 198.594 34.3624C198.763 34.1887 198.965 34.0501 199.187 33.9549C199.41 33.8596 199.649 33.8095 199.891 33.8075C200.254 33.8075 200.465 33.8673 200.646 33.9288C201.038 34.0484 201.281 34.11 201.613 34.11C202.428 34.11 202.822 33.9587 203.244 33.1461L203.395 32.7838L197.869 20.0218C197.731 19.6857 197.649 19.3292 197.626 18.9665C197.626 17.6737 198.623 16.7714 199.891 16.7714C201.038 16.7714 201.703 17.4029 202.095 18.4863L205.601 27.8784L208.983 18.5162C209.345 17.5541 210.008 16.7714 211.188 16.7714C212.365 16.7714 213.36 17.6737 213.36 18.8785C213.36 19.2391 213.241 19.7509 213.151 19.962L207.502 33.4768C206.142 36.757 204.784 37.9917 202.035 37.9917C201.008 37.9917 200.284 37.8422 199.529 37.5696Z" fill="#4C4C4C"/>
<path fill-rule="evenodd" clip-rule="evenodd" d="M50.1724 25C50.1724 38.8068 38.9405 50 25.0862 50C11.2319 50 0 38.8068 0 25C0 11.1932 11.2319 0 25.0862 0C38.9405 0 50.1724 11.1932 50.1724 25Z" fill="#15C39A"/>
<path fill-rule="evenodd" clip-rule="evenodd" d="M28.363 30.3989C28.5108 31.2168 29.2829 31.7779 30.1183 31.7779H32.746L34.2692 31.5668C31.8314 35.1302 27.5997 36.7694 22.9722 36.0465C19.2048 35.4573 15.9686 32.9158 14.602 29.3683C11.5029 21.3146 17.4038 13.6267 25.0951 13.6267C29.1035 13.6267 32.6176 15.9642 34.6333 18.7871C35.1679 19.5557 36.2303 19.8372 37.0024 19.3042C37.3532 19.0667 37.6006 18.7048 37.6946 18.2917C37.7887 17.8787 37.7223 17.4453 37.5089 17.0793C36.0804 14.8546 34.0795 13.0553 31.7162 11.8701C29.3528 10.6848 26.7141 10.1574 24.0768 10.343C16.7424 10.8337 10.8064 16.8155 10.3843 24.1287C9.89533 32.6414 16.6686 39.5888 25.0951 39.5888C27.1962 39.5975 29.2744 39.1528 31.1879 38.2849C33.1014 37.4171 34.8051 36.1467 36.1828 34.5603L35.8627 36.3438V37.9549C35.8627 38.785 36.4255 39.5554 37.2469 39.7031C37.4921 39.7493 37.7445 39.741 37.9861 39.6787C38.2278 39.6165 38.4528 39.5018 38.6451 39.3428C38.8375 39.1839 38.9925 38.9845 39.0992 38.7589C39.2059 38.5334 39.2616 38.2871 39.2625 38.0375V28.3886H30.0339C29.7843 28.3882 29.5376 28.4429 29.3115 28.5487C29.0854 28.6546 28.8855 28.809 28.7259 29.001C28.5663 29.193 28.4511 29.4178 28.3884 29.6594C28.3256 29.9011 28.317 30.1536 28.363 30.3989Z" fill="white"/>
</svg>
