<?xml version="1.0" encoding="utf-8"?>
<!-- Generator: Adobe Illustrator 23.0.1, SVG Export Plug-In . SVG Version: 6.00 Build 0)  -->
<svg version="1.1" id="Artwork" xmlns="http://www.w3.org/2000/svg" xmlns:xlink="http://www.w3.org/1999/xlink" x="0px" y="0px"
	 viewBox="0 0 765.4 765.4" style="enable-background:new 0 0 765.4 765.4;" xml:space="preserve">
<style type="text/css">
	.st0{fill:none;stroke:#FFFFFF;stroke-width:5;stroke-miterlimit:10;}
</style>
<circle class="st0" cx="382.9" cy="383.3" r="367.7"/>
<g>
	<path class="st0" d="M94.6,388.4c-13.1,16.9-20.9,38.2-20.9,61.2c0,4,0.2,7.9,0.7,11.8c3.4,29.2,19.4,54.6,42.5,70.6
		c0,0,68.1,53.1,266.8,53.1C582.4,585,649,532,649,532c22.6-15.7,38.5-40.5,42.3-69.1c0.6-4.4,0.9-8.8,0.9-13.3
		c0-23.1-7.8-44.3-20.9-61.2c0,0-161.8-189.5-200.2-227.9l-0.1-0.1l0,0c-22.6-22.6-53.7-36.5-88-36.5s-65.6,14-88.2,36.5
		c0,0,0,0-0.1,0.1C256,198.6,94.6,388.4,94.6,388.4z"/>
	<g>
		<path class="st0" d="M638.5,454.7c-3.4-3.9-7.4-6.8-12.1-8.6c-4.7-1.8-10.7-3.6-18.1-5.5c-7.1-1.6-12.3-3.3-15.8-5
			s-5.2-4.2-5.2-7.7c0-3.4,1.5-6.2,4.5-8.3s7.6-3.2,13.9-3.2c8.9,0,17.8,2.6,26.8,7.9l6.9-17.6c-4.4-2.9-9.6-5.1-15.5-6.6
			c-5.9-1.5-11.9-2.3-18.1-2.3c-8.8,0-16.3,1.4-22.4,4.2c-6.1,2.8-10.7,6.5-13.7,11.3c-3,4.7-4.5,10-4.5,15.9c0,6.7,1.7,12,5,16.1
			c3.4,4,7.4,6.9,12.1,8.8c4.7,1.8,10.7,3.6,18.1,5.5c4.8,1.1,8.6,2.2,11.4,3.2c2.8,1,5.1,2.2,6.9,3.8c1.8,1.6,2.7,3.6,2.7,6
			c0,3.3-1.5,5.9-4.5,7.8c-3,2-7.7,2.9-14.1,2.9c-5.7,0-11.4-1-17.1-2.9c-5.7-1.9-10.6-4.5-14.8-7.6l-2.3-1.9l-2.6,21.3
			c3.9,2.6,8.7,4.7,14.5,6.5c7.1,2.1,14.5,3.2,22.1,3.2c8.8,0,16.3-1.4,22.5-4.2c6.2-2.8,10.8-6.5,13.9-11.3
			c3.1-4.7,4.6-10,4.6-15.7C643.5,463.9,641.9,458.6,638.5,454.7z"/>
		<path class="st0" d="M273.1,397.6c-28.7,0-52.1,23.3-52.1,52.1s23.3,52.1,52.1,52.1s52.1-23.3,52.1-52.1S301.8,397.6,273.1,397.6z
			 M273.1,481c-17.3,0-31.3-14-31.3-31.4s14-31.4,31.3-31.4s31.4,14,31.4,31.4S290.4,481,273.1,481z"/>
		<g>
			<polygon class="st0" points="471.3,456.9 471.3,456.9 471.3,456.9 471.3,456.9 			"/>
			<polygon class="st0" points="517.5,456.9 517.5,456.9 517.5,456.9 			"/>
			<path class="st0" d="M517.5,399.4v19v38.5l0,0c0,12.8-10.3,23.1-23.1,23.1s-23.1-10.3-23.1-23.1l0,0v-38.5v-18.3h-21.8v56.8
				c0,24.8,20.1,44.9,44.9,44.9s44.9-20.1,44.9-44.9v-57.5L517.5,399.4L517.5,399.4z"/>
		</g>
		<polygon class="st0" points="423.9,399.4 342,399.4 339.5,420.4 372,420.4 372,500.2 393.9,500.2 393.9,420.4 426.5,420.4 		"/>
		<polygon class="st0" points="210.2,479.1 156,479.1 156,399.4 134.1,399.4 134.1,500.2 207.6,500.2 		"/>
	</g>
	<path class="st0" d="M382.9,339.4c-36.2,0-66.4-25.9-73.1-60.1l0,0l9-9H353c2.3,12.4,12.1,22.2,24.4,24.5v24h25.5
		c16.4,0,29.8-13.3,29.8-29.7c0-10-5-18.8-12.5-24.2c7.6-5.4,12.5-14.3,12.5-24.2c0-16.4-13.4-29.8-29.8-29.8h-27.4
		c-8.1,0-15.8,3.1-21.6,8.8l-45.5,45.5c0-0.1,0-0.2,0-0.3c0-41.2,33.4-74.5,74.5-74.5c29.5,0,55,17.1,67,41.9h12
		c-12.8-31.1-43.4-53-79.1-53c-47.2,0-85.5,38.3-85.5,85.5c0,3.6,0.2,7.2,0.7,10.7l-42.7,42.7h15.5l29.8-29.8
		c10.3,35.7,43.2,61.9,82.2,61.9c35.5,0,66-21.7,78.9-52.5h-12C437.6,322.4,412.3,339.4,382.9,339.4z M363.5,264.8
		c0-8.8,5.9-16.3,14-18.6v37.3C369.4,281.1,363.5,273.6,363.5,264.8z M421.7,289c0,10.3-8.4,18.7-18.8,18.7h-14.5v-13
		c8.4-1.5,15.6-6.5,20.1-13.5h-15.3c-1.5,0.9-3.1,1.7-4.8,2.2v-13.2h14.5C413.3,270.3,421.7,278.7,421.7,289z M388.4,246.1
		c1.7,0.5,3.3,1.2,4.8,2.2h15.3c-4.5-6.9-11.7-11.9-20.1-13.4v-13.1h14.5c10.3,0,18.8,8.4,18.8,18.8c0,10.3-8.4,18.8-18.8,18.8
		h-14.5L388.4,246.1L388.4,246.1z M361.7,227.4c3.7-3.6,8.7-5.6,13.9-5.6h1.9v13.1c-12.4,2.3-22.2,12.1-24.4,24.4h-23.2L361.7,227.4
		z"/>
</g>
</svg>
