<svg width="185" height="40" viewBox="0 0 185 40" fill="none" xmlns="http://www.w3.org/2000/svg">
<path fill-rule="evenodd" clip-rule="evenodd" d="M19.4247 17.4043C19.4247 7.87753 17.8257 3.92839 13.4296 3.92839C9.55229 3.92839 7.59385 6.69686 7.59385 16.3053C7.59385 25.791 9.11268 29.6998 13.5893 29.6998C17.5461 29.6998 19.4247 26.9717 19.4247 17.4043ZM0 17.1602C0 6.45246 7.23411 2.21856 13.6695 2.21856C20.5438 2.21856 27.0185 6.41209 27.0185 16.5087C27.0185 27.2975 19.7844 31.4096 13.3491 31.4096C6.475 31.4096 0 26.9313 0 17.1602Z" fill="#147BD1"/>
<path fill-rule="evenodd" clip-rule="evenodd" d="M59.5707 17.8522L66.4051 17.4857C66.4051 12.5596 65.7661 10.7681 63.3677 10.7681C61.3291 10.7681 59.7304 12.7224 59.5707 17.8522ZM53.2557 20.2542C53.2557 13.1702 58.4113 9.22102 63.6872 9.22102C69.1386 9.22102 72.5597 11.9645 72.7545 19.1421C72.7584 19.2816 72.6469 19.3993 72.5093 19.3993H59.8217C59.684 19.3993 59.5728 19.5169 59.5762 19.6568C59.755 26.1238 62.2219 27.9084 66.2853 27.9084C68.2686 27.9084 69.8676 27.439 71.2058 26.8344C71.3044 26.7897 71.4187 26.816 71.4891 26.8998L72.0205 27.5366C72.1007 27.6327 72.0998 27.7748 72.015 27.8662C70.557 29.4324 67.5888 31.4097 63.6872 31.4097C56.7327 31.4097 53.2557 27.1755 53.2557 20.2542Z" fill="#147BD1"/>
<path fill-rule="evenodd" clip-rule="evenodd" d="M135.559 20.58C135.559 12.356 134.001 10.8088 131.283 10.8088C128.764 10.8088 127.286 12.6817 127.286 19.6844C127.286 28.0308 128.605 29.8217 131.522 29.8217C133.921 29.8217 135.559 28.3969 135.559 20.58ZM120.571 20.3766C120.571 12.5594 126.007 9.22105 131.403 9.22105C137.198 9.22105 142.274 12.7631 142.274 20.1729C142.274 27.9898 136.918 31.4101 131.403 31.4101C125.607 31.4101 120.571 27.8267 120.571 20.3766Z" fill="#147BD1"/>
<path fill-rule="evenodd" clip-rule="evenodd" d="M159.399 20.58C159.399 12.356 157.84 10.8088 155.122 10.8088C152.604 10.8088 151.126 12.6817 151.126 19.6844C151.126 28.0308 152.445 29.8217 155.362 29.8217C157.761 29.8217 159.399 28.3969 159.399 20.58ZM144.411 20.3766C144.411 12.5594 149.846 9.22105 155.242 9.22105C161.038 9.22105 166.114 12.7631 166.114 20.1729C166.114 27.9898 160.758 31.4101 155.242 31.4101C149.447 31.4101 144.411 27.8267 144.411 20.3766Z" fill="#147BD1"/>
<path fill-rule="evenodd" clip-rule="evenodd" d="M89.185 9.22105C86.2675 9.22105 83.6295 10.5648 81.5113 12.1116H81.3512L81.4299 9.54462C81.436 9.34779 81.2695 9.19164 81.0778 9.21354L75.4848 9.85942C75.3205 9.8782 75.196 10.0196 75.196 10.1883V30.5983C75.196 30.7767 75.338 30.921 75.5128 30.921H81.2342C81.409 30.921 81.5509 30.7767 81.5509 30.5983V13.5366C82.4302 13.3329 83.8691 13.0075 85.2684 13.0075C87.1467 13.0075 88.0262 13.781 88.0262 16.2644V30.5983C88.0262 30.7767 88.1682 30.921 88.343 30.921H94.1043C94.2791 30.921 94.4214 30.7767 94.4214 30.5983V14.6769C94.4214 11.0126 92.5827 9.22105 89.185 9.22105Z" fill="#147BD1"/>
<path fill-rule="evenodd" clip-rule="evenodd" d="M111.568 27.2976C110.929 27.542 109.849 28.1935 108.211 28.1935C105.173 28.1935 103.574 26.1169 103.574 19.725C103.574 13.0071 105.573 10.8495 108.45 10.8495C109.93 10.8495 110.889 11.7044 111.568 12.5593V27.2976ZM117.923 5.2312C117.923 3.12677 117.993 1.19319 118.031 0.399608C118.041 0.167416 117.848 -0.0190883 117.621 0.00156492L111.864 0.667474C111.697 0.682807 111.568 0.825815 111.568 0.997612V6.69695C111.568 8.16239 111.648 9.66882 111.648 9.66882C110.809 9.42442 109.69 9.22102 108.611 9.22102C102.375 9.22102 97.0192 12.6003 97.0192 21.0688C97.0192 28.4782 100.896 31.4097 104.853 31.4097C107.651 31.4097 109.889 30.2697 111.608 28.7636H111.768L111.687 31.0108C111.678 31.2501 111.883 31.4395 112.115 31.406L117.599 30.7823C117.785 30.756 117.923 30.5939 117.923 30.4027V5.2312Z" fill="#147BD1"/>
<path fill-rule="evenodd" clip-rule="evenodd" d="M180.967 9.22105C178.649 9.22105 176.371 11.0126 175.132 12.3559H174.972L175.05 9.62003C175.057 9.38721 174.859 9.20196 174.632 9.22793L169.106 9.85973C168.941 9.87851 168.817 10.0199 168.817 10.1889V30.5379C168.817 30.7495 168.985 30.921 169.193 30.921H174.796C175.003 30.921 175.172 30.7495 175.172 30.5379V14.0254C175.732 13.4959 176.651 12.9665 177.37 12.9665C177.73 12.9665 177.97 13.0481 178.21 13.4959C178.969 14.758 179.57 15.4874 181.287 15.4874C182.846 15.4874 184.24 14.2288 184.24 12.2746C184.24 10.2794 182.886 9.22105 180.967 9.22105Z" fill="#147BD1"/>
<path fill-rule="evenodd" clip-rule="evenodd" d="M39.5149 29.7811C38.1558 29.7811 37.0769 29.1703 36.3571 28.3154V13.4958C36.9967 13.2517 37.996 12.7629 39.5947 12.7629C42.6324 12.7629 44.3512 14.7985 44.3512 20.6205C44.3512 28.0713 42.6723 29.7811 39.5149 29.7811ZM43.072 9.22118C40.274 9.22118 38.0363 10.5646 36.3571 12.0303H36.1574L36.2345 9.59419C36.2416 9.37232 36.0536 9.19552 35.8373 9.22055L30.291 9.85924C30.1263 9.87833 30.0022 10.0201 30.0022 10.1887V39.6687C30.0022 39.8661 30.1709 40.0201 30.3638 39.9979L36.0686 39.3413C36.233 39.3226 36.3571 39.1808 36.3571 39.0121V33.4862C36.3571 32.0614 36.3175 31.0028 36.3175 31.0028C37.1967 31.2469 38.5158 31.4096 39.3551 31.4096C46.0298 31.4096 50.9058 27.7048 50.9058 19.2364C50.9058 11.7859 46.8691 9.22118 43.072 9.22118Z" fill="#147BD1"/>
</svg>
