<svg width="201" height="50" viewBox="0 0 201 50" fill="none" xmlns="http://www.w3.org/2000/svg">
<path d="M15.5 24.79C15.5026 20.3378 17.2724 16.0688 20.4206 12.9206C23.5688 9.77244 27.8378 8.00265 32.29 8V14.08C30.1661 14.084 28.0912 14.7182 26.328 15.9023C24.5648 17.0864 23.1927 18.7671 22.3855 20.7316C21.5782 22.6961 21.3721 24.856 21.7932 26.9377C22.2144 29.0194 23.2439 30.9293 24.7513 32.4255C26.2587 33.9217 28.1763 34.9369 30.2611 35.3425C32.3459 35.7481 34.5041 35.5259 36.4625 34.704C38.4209 33.882 40.0914 32.4974 41.2623 30.7254C42.4332 28.9535 43.0519 26.8739 43.04 24.75H49.12C49.12 29.2083 47.349 33.484 44.1965 36.6365C41.044 39.7889 36.7683 41.56 32.31 41.56C27.8517 41.56 23.576 39.7889 20.4235 36.6365C17.271 33.484 15.5 29.2083 15.5 24.75" fill="#016438"/>
<path d="M37.5 15.3495C37.504 14.5067 37.7573 13.6839 38.228 12.9848C38.6987 12.2857 39.3658 11.7415 40.1452 11.4208C40.9246 11.1001 41.7815 11.0172 42.6079 11.1826C43.4343 11.348 44.1933 11.7542 44.7893 12.3502C45.3853 12.9462 45.7915 13.7052 45.9569 14.5316C46.1223 15.358 46.0395 16.2149 45.7188 16.9943C45.398 17.7738 44.8539 18.4408 44.1547 18.9116C43.4556 19.3823 42.6328 19.6355 41.79 19.6395C41.2263 19.6408 40.6678 19.5308 40.1467 19.3156C39.6257 19.1005 39.1522 18.7846 38.7536 18.3859C38.355 17.9873 38.039 17.5139 37.8239 16.9928C37.6088 16.4717 37.4987 15.9132 37.5 15.3495Z" fill="#016438"/>
<path d="M24.8896 24.7896C24.8896 23.3181 25.326 21.8797 26.1435 20.6562C26.961 19.4326 28.123 18.479 29.4825 17.9159C30.8419 17.3528 32.338 17.2055 33.7812 17.4926C35.2244 17.7796 36.55 18.4882 37.5905 19.5287C38.631 20.5692 39.3397 21.8949 39.6268 23.3381C39.9138 24.7813 39.7664 26.2773 39.2034 27.6368C38.6403 28.9962 37.6867 30.1582 36.4632 30.9757C35.2396 31.7932 33.8011 32.2296 32.3296 32.2296C30.3572 32.2269 28.4664 31.4422 27.0717 30.0475C25.677 28.6528 24.8923 26.762 24.8896 24.7896Z" fill="#4FAE2E"/>
<path d="M168.71 19.6003L168.2 22.1503C166.97 27.6803 166.5 29.5003 165.5 35.0003L165.24 35.2103L161.88 35.2903L161.71 35.0803L163.07 29.3803L163.45 27.5103H156.26C155.75 29.7203 155.37 31.7203 154.73 34.9903L154.47 35.2003L151.11 35.2803L150.94 35.0703L152.3 29.3703L152.85 26.9103C153.527 24.1648 154.051 21.3838 154.42 18.5803L154.63 18.3703C155.803 18.2323 156.967 18.0354 158.12 17.7803L158.29 17.9903L157.95 19.6503L157.5 22.1903L156.95 24.6103H164.18C164.65 22.4903 164.82 21.3403 165.24 18.6103L165.45 18.4003C166.623 18.2659 167.788 18.0689 168.94 17.8103L169.11 18.0203L168.77 19.5903L168.71 19.6003ZM128.21 27.0003C128.438 26.0666 128.565 25.1112 128.59 24.1503C128.59 20.7903 126.42 20.2403 125.19 20.2403C119.96 20.2403 119.32 28.3103 119.32 29.5503C119.32 32.1903 120.89 33.3803 122.72 33.3803C126.25 33.3803 127.57 29.7303 128.2 27.0103L128.21 27.0003ZM131.64 28.0703C130.92 30.9203 128.88 35.8503 122.64 35.8503C118.22 35.8503 115.8 33.5503 115.8 29.0503C115.804 28.4116 115.847 27.7737 115.93 27.1403C115.936 26.9677 115.963 26.7964 116.01 26.6303C117.2 19.1303 120.43 12.0003 127.57 12.0003C128.967 11.9876 130.36 11.8436 131.73 11.5703L131.26 14.5703C129.739 14.9031 128.187 15.074 126.63 15.0803C126.027 15.067 125.428 15.1732 124.867 15.3929C124.306 15.6126 123.793 15.9414 123.36 16.3603C123.039 16.6815 122.754 17.0369 122.51 17.4203C122.321 17.6988 122.163 17.9972 122.04 18.3103C123.06 17.9928 124.122 17.8343 125.19 17.8403C129.53 17.8403 132.12 20.2603 132.12 24.5503C132.108 25.7417 131.95 26.9272 131.65 28.0803L131.64 28.0703ZM174.41 25.0003C175.22 24.3203 175.64 23.9003 176.75 22.8303C177.86 21.7603 180.75 18.8303 181.26 18.2403L181.64 18.0303H185.42L185.51 18.3303C185.17 18.6303 185 18.7503 183.68 19.8603C183.17 20.2903 182.83 20.6203 182.19 21.1803L177.9 25.1803L183.04 34.9103L182.83 35.1603L179.17 35.2503L178.91 35.0403C178.06 33.0403 177.8 32.5303 176.62 30.1103L174.33 25.4303C173.61 28.6603 173.14 30.7003 172.33 34.9503L172.12 35.1603L168.76 35.2503L168.59 35.0403L169.95 29.3503L170.46 26.8903C171.137 24.1448 171.661 21.3638 172.03 18.5603L172.24 18.3503C173.413 18.2159 174.578 18.0189 175.73 17.7603L175.9 17.9703L175.56 19.6303L175.05 22.1803L174.41 25.0003ZM145.21 31.0003C144.869 31.32 144.497 31.6047 144.1 31.8503C143.224 32.3621 142.225 32.6249 141.21 32.6103C138.21 32.6103 137.34 30.0603 137.34 28.4903C137.386 27.1658 137.727 25.8683 138.338 24.692C138.948 23.5157 139.813 22.4903 140.87 21.6903C142.435 20.7125 144.256 20.2249 146.1 20.2903H147.59L145.21 31.0003ZM151.5 18.0703L151.33 17.8103H146.78C143.72 17.8103 139.47 18.0203 136.37 21.6403C134.743 23.6577 133.816 26.1498 133.73 28.7403C133.73 32.8603 136.49 35.2403 139.85 35.2403C141.62 35.3015 143.347 34.6947 144.69 33.5403L144.5 34.8203L144.67 35.0703L147.77 34.9803L148.03 34.7703C148.71 30.7703 148.92 29.5803 150.03 24.4803L151.5 18.0703Z" fill="#4FAE2E"/>
<path d="M64.1599 35.75C60.5499 35.75 55.4099 34.6 57.2799 26.31C57.9999 23.21 60.1299 16.58 69.0099 16.58C77.6399 16.58 76.3599 23.64 75.8099 26.14C74.1899 33.16 69.8999 35.75 64.1599 35.75ZM65.3099 32.05C67.8199 32.05 69.0099 29.41 69.7699 26.05C70.3199 23.67 70.8799 20.19 67.8599 20.19C65.2699 20.19 64.1199 22.7 63.3599 26.05C62.6799 29.21 62.4999 32.06 65.3099 32.06V32.05ZM85.1999 35.33H79.6699L79.4999 35.16C79.8399 34.06 80.6099 31.08 81.4099 27.42C82.0899 24.49 82.6399 21.89 82.8999 20.71C81.4999 20.71 79.3699 20.71 78.3099 20.8L78.1399 20.54C78.3999 19.65 78.8199 18.07 79.0299 17.14L79.3299 16.97C80.2599 16.97 83.7899 17.06 86.5999 17.06C90.0399 17.06 93.3599 16.97 94.0799 16.93L94.3399 17.1C94.0799 17.91 93.6199 19.61 93.4099 20.5L93.0699 20.71H88.6899C88.5199 21.47 87.9699 23.71 87.0699 27.64C86.3899 30.64 85.8399 33.33 85.5399 35.08L85.2399 35.38L85.1999 35.33ZM104.5 21.13H101.57C101.4 21.89 100.72 24.74 100.08 27.51C99.3599 30.78 98.6799 33.8 98.4199 35.07L98.0799 35.28H92.4699L92.2599 35.07C92.5999 33.67 93.5299 29.76 94.3899 25.93C95.2499 22.1 96.0099 18.24 96.2599 17.17L96.4999 17C98.3699 17 100.24 17.09 104.87 17.09C108.53 17.09 112.01 16.96 113.87 16.96L114.04 17.17C113.78 18.11 112.76 22.57 111.75 26.99C110.94 30.56 110.22 34.13 110.01 35.11L109.75 35.32H104.1L103.93 35.07C104.23 33.88 104.93 31.07 105.67 27.59C106.26 24.95 106.86 22.15 107.11 21.13H104.43H104.5Z" fill="#016438"/>
</svg>
