<svg width="211" height="40" viewBox="0 0 211 40" fill="none" xmlns="http://www.w3.org/2000/svg">
<path d="M208.501 18.5975C209.736 19.9076 210.358 21.6837 210.358 23.9341V35.7726H205.777V25.2763C205.777 23.9502 205.402 22.9054 204.653 22.1419C203.904 21.3783 202.892 20.9926 201.61 20.9926C200.096 21.0167 198.893 21.5391 198.009 22.5517C197.124 23.5644 196.678 24.8664 196.678 26.4497V35.7726H192.129V9.46755H196.678V20.4219C197.961 17.9385 200.215 16.6767 203.434 16.6285C205.569 16.6285 207.266 17.2795 208.501 18.5975ZM182.01 20.7032C180.497 20.7032 179.262 21.2256 178.322 22.2624C177.382 23.3072 176.903 24.6494 176.903 26.305C176.903 28.0088 177.382 29.3751 178.322 30.4199C179.27 31.4567 180.497 31.9791 182.018 31.9791C184.257 31.9791 185.938 31.2317 187.062 29.7448L189.898 32.1238C189.061 33.3534 187.914 34.3339 186.576 34.9608C185.197 35.6199 183.604 35.9494 181.779 35.9494C179.939 35.9494 178.298 35.5475 176.864 34.7438C175.453 33.9642 174.29 32.7828 173.525 31.3603C172.729 29.9056 172.33 28.2339 172.33 26.3452C172.33 24.4324 172.737 22.7366 173.541 21.2739C174.314 19.8352 175.485 18.6618 176.903 17.8742C178.338 17.0705 179.987 16.6687 181.859 16.6687C183.564 16.6687 185.086 16.966 186.424 17.5688C187.763 18.1716 188.854 19.0315 189.699 20.1406L186.934 22.8009C185.651 21.4025 184.018 20.7032 182.01 20.7032ZM169.422 16.8053V35.7726H164.873V32.7587C164.228 33.7713 163.327 34.5992 162.268 35.1537C161.208 35.7083 159.989 35.9895 158.611 35.9895C156.834 35.9895 155.281 35.5797 153.934 34.7679C152.596 33.9562 151.544 32.8069 150.803 31.3281C150.062 29.8493 149.688 28.1535 149.688 26.2407C149.688 24.352 150.062 22.6803 150.811 21.2256C151.552 19.7709 152.604 18.6458 153.942 17.8421C155.281 17.0384 156.826 16.6365 158.579 16.6365C159.957 16.6365 161.184 16.9178 162.252 17.4724C163.319 18.0269 164.228 18.8467 164.873 19.8674V16.8214L169.422 16.8053ZM163.224 30.7173C164.18 29.785 164.73 28.5473 164.873 27.0123V25.6701C164.73 24.127 164.188 22.8973 163.232 21.965C162.276 21.0327 161.065 20.5666 159.591 20.5666C158.029 20.5666 156.754 21.1051 155.775 22.182C154.795 23.259 154.293 24.6494 154.269 26.3452C154.293 28.049 154.795 29.4314 155.775 30.5083C156.754 31.5853 158.029 32.1238 159.591 32.1238C161.057 32.1238 162.268 31.6576 163.224 30.7173ZM145.106 19.2485C146.612 20.9765 147.361 23.3956 147.361 26.514C147.361 27.1248 147.345 27.5909 147.329 27.8963H133.506C133.809 29.2465 134.43 30.2994 135.378 31.0709C136.319 31.8425 137.482 32.2202 138.86 32.2202C139.8 32.2202 140.74 32.0354 141.609 31.6657C142.477 31.312 143.258 30.7736 143.903 30.0904L146.349 32.6783C145.401 33.7312 144.238 34.5509 142.931 35.0894C141.593 35.66 140.103 35.9413 138.47 35.9413C136.558 35.9413 134.869 35.5395 133.411 34.7358C131.984 33.9642 130.805 32.7828 130.033 31.3522C129.236 29.8975 128.845 28.2258 128.845 26.3372C128.845 24.4485 129.244 22.7687 130.056 21.306C130.837 19.8674 132.008 18.6779 133.435 17.8823C134.885 17.0625 136.526 16.6606 138.366 16.6606C141.354 16.6606 143.601 17.5286 145.106 19.2485ZM143.202 24.8182C143.154 23.4197 142.7 22.3106 141.84 21.4828C140.979 20.655 139.832 20.2371 138.406 20.2371C137.076 20.2371 135.96 20.647 135.06 21.4587C134.16 22.2704 133.61 23.3876 133.395 24.8101H143.202V24.8182ZM123.898 17.6411C124.981 16.9902 126.248 16.6526 127.698 16.6285V21.097C125.762 20.9765 124.216 21.4346 123.061 22.4633C121.906 23.4921 121.324 24.8825 121.324 26.6265V35.7726H116.775V16.8053H121.324V20.4541C121.962 19.2244 122.814 18.2841 123.898 17.6411ZM113.365 34.5992C111.875 35.5234 110.306 35.9815 108.672 35.9815C107.063 35.9815 105.741 35.4993 104.721 34.5429C103.693 33.5865 103.183 32.172 103.183 30.3074V12.3689L107.7 11.8224V17.5769H113.054V20.9443H107.7V29.4957C107.7 30.3717 107.86 30.9906 108.186 31.3522C108.513 31.7219 108.999 31.8987 109.652 31.8987C110.354 31.8987 111.238 31.6416 112.313 31.1191L113.365 34.5992ZM94.7538 16.8053H99.2712V27.4382C99.2712 33.6428 94.9928 35.9494 90.6507 35.9494C86.3086 35.9494 82.0382 33.6428 82.0382 27.4382V16.8053H86.5556V27.599C86.5556 29.9779 88.3083 31.9068 90.6587 31.9068C93.009 31.9068 94.7618 29.9779 94.7618 27.599L94.7538 16.8053ZM72.6767 12.3046C74.6287 13.3735 76.254 14.9568 77.3853 16.8776C78.5326 18.8145 79.0983 20.9685 79.0983 23.3313C79.0983 25.6942 78.5246 27.8481 77.3853 29.8011C76.254 31.738 74.6287 33.3373 72.6767 34.4304C70.6769 35.5636 68.47 36.1342 66.04 36.1342C63.6101 36.1342 61.4031 35.5636 59.4113 34.4304C57.4594 33.3373 55.8341 31.738 54.7027 29.8011C53.5634 27.8481 52.9898 25.6942 52.9898 23.3313C52.9898 20.9685 53.5634 18.8145 54.7027 16.8776C55.8341 14.9488 57.4594 13.3735 59.4113 12.3046C61.4031 11.1955 63.618 10.6409 66.04 10.6409C68.47 10.6329 70.6849 11.1875 72.6767 12.3046ZM61.9529 16.0096C60.6861 16.733 59.6344 17.7858 58.9094 19.0557C58.1605 20.3496 57.786 21.7722 57.786 23.3313C57.786 24.8905 58.1685 26.3211 58.9253 27.6231C59.6583 28.9009 60.71 29.9618 61.9688 30.7093C63.2436 31.4647 64.6219 31.8425 66.1197 31.8425C67.5618 31.8505 68.9799 31.4567 70.2149 30.7093C71.4657 29.9618 72.4935 28.9009 73.2105 27.6231C73.9515 26.313 74.3259 24.8342 74.31 23.3313C74.31 21.7722 73.9435 20.3496 73.2105 19.0557C72.5014 17.7939 71.4657 16.741 70.2149 16.0096C68.972 15.2702 67.5618 14.8845 66.1197 14.8925C64.6538 14.8845 63.2197 15.2702 61.9529 16.0096ZM18.707 0C25.1524 0 34.8883 2.00121 39.4137 6.59031C40.561 7.75568 42.0668 10.0301 42.0668 13.3735C42.0668 19.3048 37.3422 28.4107 32.1317 33.699C29.4388 36.4316 25.1524 40 19.3842 40C13.7434 40 9.44112 36.1262 8.19824 34.8563C3.41792 30.0181 0 22.6723 0 15.8328C0 11.5089 1.21898 7.73156 4.31822 4.58911C7.18641 1.68776 12.134 0 18.707 0ZM26.6821 23.6689C28.8572 21.4667 29.4467 18.7502 29.4467 17.2554C29.4467 16.1704 29.1679 14.5871 27.8294 13.2289C25.7818 11.1473 23.5032 10.5606 21.0334 10.5606C17.9023 10.5606 15.7989 11.5652 14.3967 12.9797C13.2972 14.1049 12.3491 15.8087 12.3491 18.2439C12.3491 20.6711 13.6319 23.0179 15.0182 24.4324C16.3088 25.7344 18.3325 26.6988 20.3641 26.6988C22.4037 26.6988 24.5071 25.871 26.6821 23.6689Z" fill="#5952FF"/>
</svg>
