<svg width="173" height="40" viewBox="0 0 173 40" fill="none" xmlns="http://www.w3.org/2000/svg">
<path fill-rule="evenodd" clip-rule="evenodd" d="M134.449 27.5835C138.903 27.5835 142.525 24.033 142.525 19.6691C142.525 15.3049 138.903 11.7545 134.449 11.7545C129.997 11.7545 126.373 15.3049 126.373 19.6691C126.373 24.033 129.997 27.5835 134.449 27.5835ZM142.525 0H142.744H146.352V31.3598H142.525V28.2286C140.317 30.2343 137.47 31.333 134.449 31.333C127.887 31.333 122.548 26.1005 122.548 19.6691C122.548 13.2372 127.887 8.00491 134.449 8.00491C137.47 8.00491 140.317 9.10346 142.525 11.1093V0ZM55.1033 27.4453C59.5563 27.4453 63.1791 23.895 63.1791 19.5308C63.1791 15.1669 59.5563 11.6165 55.1033 11.6165C50.65 11.6165 47.0271 15.1669 47.0271 19.5308C47.0271 23.895 50.65 27.4453 55.1033 27.4453ZM47.0271 10.9715C49.2353 8.9657 52.0831 7.86698 55.1033 7.86698C61.6658 7.86698 67.0051 13.0994 67.0051 19.5308C67.0051 25.9624 61.6658 31.1948 55.1033 31.1948C52.0831 31.1948 49.2353 30.0964 47.0271 28.0903V39.1997H43.2012V7.83995H47.0271V10.9715ZM74.3052 17.7097C75.1663 14.1654 78.3748 11.6205 82.0345 11.6205C85.6465 11.6205 88.6721 14.1111 89.4785 17.7097H74.3052ZM82.0345 7.83995C75.5702 7.83995 70.3112 13.1157 70.3112 19.5999C70.3112 26.0843 75.5702 31.3598 82.0345 31.3598C85.6545 31.3598 88.9769 30.0003 91.1512 27.6299L92.2808 26.3977L92.4264 26.2388L92.268 26.0921L89.8121 23.826L89.6537 23.6795L89.5073 23.8386L88.3777 25.0709C86.9369 26.6416 84.5657 27.5795 82.0345 27.5795C78.3748 27.5795 75.1665 25.0345 74.3052 21.49H93.4536V19.5999C93.4536 13.0055 88.4377 7.83995 82.0345 7.83995ZM168.974 19.5999C168.974 23.9998 165.352 27.5794 160.898 27.5794C156.445 27.5794 152.822 23.9998 152.822 19.5999C152.822 15.1999 156.445 11.6203 160.898 11.6203C165.352 11.6203 168.974 15.1999 168.974 19.5999ZM160.898 7.83995C154.336 7.83995 148.996 13.1154 148.996 19.5999C148.996 26.0843 154.336 31.3598 160.898 31.3598C167.461 31.3598 172.8 26.0843 172.8 19.5999C172.8 13.1154 167.461 7.83995 160.898 7.83995ZM107.67 7.83995C105.011 7.83995 102.478 8.85234 100.485 10.7014V7.83995H96.76V31.3598H100.485V19.3572C100.485 15.075 103.708 11.591 107.67 11.591C111.632 11.591 114.856 15.075 114.856 19.3572V31.3598H118.58V19.3572C118.58 13.0066 113.685 7.83995 107.67 7.83995Z" fill="#1A2022"/>
<path fill-rule="evenodd" clip-rule="evenodd" d="M0 22.4001H17.9998V40.0001L35.9998 22.4001V4.80029H17.9998L0 22.4001Z" fill="#FF4876"/>
</svg>
