<svg width="201" height="50" viewBox="0 0 201 50" fill="none" xmlns="http://www.w3.org/2000/svg">
<path d="M68.5 37.44C68.5 42.3 65.8 45 60.94 45H36.06C31.2 45 28.5 42.3 28.5 37.44V12.56C28.5 7.7 31.2 5 36.06 5H60.95C65.8 5 68.5 7.7 68.5 12.56V37.44Z" fill="#FFE600"/>
<path fill-rule="evenodd" clip-rule="evenodd" d="M54.2198 23.0499V19.23L55.5993 17.8494V21.1595L56.8 22.3591L61.6293 17.5297L62.8197 18.7191C62.8094 17.8196 62.6295 15.2096 60.4194 13.0396C58.0397 10.7401 55.4595 11.7793 54.5796 12.6593L49.7595 17.4794L50.9899 18.7098L48.5002 21.2191L46.0095 18.7294L47.2399 17.4999L42.4198 12.6798C41.5399 11.7999 38.9597 10.7596 36.58 13.0591C34.3699 15.2292 34.19 17.8392 34.1797 18.7396L35.3701 17.5493L40.1994 22.3797L41.4001 21.18V17.87L42.7796 19.2495V23.0694L44.7194 24.9999L35.1593 34.56L38.9402 38.3295L48.5002 28.7797L58.0592 38.3398L61.84 34.5692L52.28 24.9999L54.2198 23.0499ZM75.1706 26.6704H82.3808V28.9401H77.8711V31.2705H79.3709C80.3803 31.2705 81.6807 31.3908 82.6604 32.3509C83.0808 32.7703 83.6009 33.5402 83.6009 34.7799C83.6009 35.1541 83.5547 35.5129 83.4653 35.848C83.3152 36.4072 83.0428 36.8986 82.6604 37.2799C82.4003 37.54 82.1053 37.7394 81.7815 37.8906C81.6345 37.9584 81.4813 38.017 81.322 38.0674C81.2438 38.092 81.1647 38.1146 81.0835 38.1352C80.4955 38.2843 79.8396 38.3305 79.1406 38.3305H75.1706V26.6704ZM78.9309 36.1605C79.301 36.1605 79.9609 36.1307 80.3803 35.7904C80.4616 35.7205 80.6003 35.5828 80.7021 35.3638C80.7761 35.2065 80.8306 35.0071 80.8306 34.7604C80.8306 34.672 80.8234 34.5887 80.8111 34.5106C80.7977 34.4274 80.7771 34.3503 80.7525 34.2783C80.7134 34.1652 80.662 34.0665 80.6044 33.9812C80.55 33.901 80.4893 33.8332 80.4287 33.7767C80.4019 33.752 80.3752 33.7294 80.3485 33.7088L80.3104 33.68C79.891 33.3799 79.2105 33.3706 78.9309 33.3706H77.8608V36.1708H78.9309V36.1605ZM93.3799 30.5304H90.8604V31.4103C90.3742 30.7493 89.7276 30.4615 89.156 30.3443C88.8816 30.2878 88.6246 30.2703 88.4097 30.2703C87.3304 30.2703 86.3805 30.6599 85.7 31.3404C84.9805 32.06 84.4901 33.1804 84.4901 34.4901C84.4901 35.5201 84.8098 36.5398 85.6301 37.4105C86.4905 38.3202 87.4301 38.5998 88.5506 38.5998C88.8805 38.5998 89.2969 38.5587 89.7153 38.3799C90.1192 38.2072 90.5263 37.906 90.8604 37.3899V38.3305H93.3799V30.5304ZM87.0806 34.4202C87.0806 34.0347 87.1772 33.7222 87.3078 33.4755C87.4147 33.275 87.5432 33.1177 87.6604 33.0005C87.9903 32.6706 88.4899 32.4403 89.0306 32.4506C89.4901 32.4506 90.0504 32.6202 90.4297 32.9903C90.4996 33.0561 90.5643 33.128 90.6229 33.2051C90.6898 33.2945 90.7484 33.3912 90.7987 33.4929C90.9365 33.7695 91.0105 34.0881 91.0105 34.4202C91.0105 35.0904 90.7298 35.5807 90.3999 35.8901C90.2354 36.0546 90.036 36.1893 89.8139 36.2828C89.5909 36.3774 89.3452 36.4298 89.0903 36.4298C88.4899 36.4298 87.9502 36.1903 87.5997 35.8202C87.3797 35.5704 87.0806 35.1202 87.0806 34.4202ZM94.9003 30.5304H97.4198V33.2401H100.241V30.5304H102.76V38.3305H100.241V35.2703H97.4198V38.3305H94.9003V30.5304ZM106.79 30.5304H104.27V38.3305H106.79V34.8704L109.45 38.3305H112.7L109.13 34.1508L112.47 30.5304H109.34L106.79 33.6307V30.5304ZM79.2794 11.6704C80.2899 11.6704 81.4104 11.8102 82.3396 12.6305C83.3398 13.5001 83.4796 14.6607 83.4796 15.4605C83.4796 16.9304 82.9194 17.7508 82.4794 18.2102C81.5502 19.1508 80.33 19.2403 79.5097 19.2403H77.8701V23.3305H75.1799V11.6704H79.2794ZM77.8598 17.0404H78.8199C78.9628 17.0404 79.1447 17.0373 79.34 17.0096C79.6536 16.9654 80 16.8585 80.2704 16.6005C80.5099 16.3599 80.7103 15.9508 80.7103 15.4502C80.7103 15.2261 80.6743 15.0195 80.6096 14.8385C80.5335 14.6247 80.4163 14.4448 80.2704 14.3102C79.8694 13.9308 79.2897 13.8702 78.7695 13.8702H77.8598V17.0404ZM92.5699 15.5304H90.0504V16.4103C89.705 15.9405 89.2784 15.6589 88.8559 15.4933C88.3974 15.3135 87.943 15.2703 87.5997 15.2703C86.5204 15.2703 85.5705 15.6599 84.89 16.3404C84.1704 17.06 83.6801 18.1804 83.6801 19.4901C83.6801 20.1562 83.8137 20.8182 84.1303 21.438C84.303 21.7773 84.5302 22.1031 84.8201 22.4105C85.6805 23.3202 86.6201 23.5998 87.7405 23.5998C88.0695 23.5998 88.4827 23.5598 88.8991 23.3829C89.3051 23.2102 89.7142 22.9091 90.0504 22.3899V23.3305H92.5699V15.5304ZM86.2706 19.4202C86.2706 18.7201 86.5903 18.2606 86.8503 18.0005C87.1803 17.6706 87.6902 17.4403 88.2206 17.4506C88.3563 17.4506 88.5002 17.466 88.6462 17.4958C88.7315 17.5133 88.8168 17.5359 88.9021 17.5647C89.1643 17.6531 89.4171 17.7929 89.6197 17.9903C89.8129 18.1732 89.963 18.4025 90.0617 18.6605C90.1038 18.7705 90.1367 18.8856 90.1604 19.0038C90.1706 19.0552 90.1789 19.1077 90.185 19.1611C90.1902 19.2033 90.1933 19.2464 90.1953 19.2896C90.1984 19.3328 90.2004 19.376 90.2004 19.4202C90.2004 20.0904 89.9198 20.5807 89.5898 20.8901C89.4171 21.0628 89.2064 21.2026 88.971 21.2972C88.8795 21.3342 88.7839 21.364 88.6852 21.3856L88.5763 21.4072L88.4745 21.4195C88.4108 21.4267 88.346 21.4298 88.2802 21.4298C88.0181 21.4298 87.7673 21.3836 87.538 21.3013C87.244 21.1954 86.987 21.0289 86.7897 20.8202C86.5697 20.5704 86.2706 20.1202 86.2706 19.4202ZM96.6098 15.5304V19.9907L99.9301 15.5304H102.271V23.3305H99.7502V18.8003L96.4299 23.3305H94.0903V15.5304H96.6098ZM101.351 12.3807C101.14 13.0098 100.721 13.5505 100.23 13.8702C99.5703 14.3102 98.7603 14.3605 98.1805 14.3605C97.6007 14.3605 96.8 14.3102 96.1308 13.8702C96.0732 13.8332 96.0166 13.7941 95.9611 13.751C95.8984 13.7026 95.8368 13.6502 95.7771 13.5937C95.7134 13.533 95.6517 13.4693 95.5921 13.4014C95.3423 13.1136 95.1377 12.7621 95.0103 12.3807L96.7599 11.7002C96.8298 12.0497 97.0004 12.3303 97.2101 12.4999C97.4404 12.6901 97.7303 12.8104 98.1702 12.8104C98.2782 12.8104 98.3768 12.8032 98.4683 12.7898L98.5208 12.7816L98.5722 12.7713L98.641 12.7538L98.7099 12.7333C98.8744 12.6788 99.0101 12.5986 99.1303 12.4999C99.34 12.3303 99.5107 12.0497 99.5806 11.7002L101.351 12.3807ZM107.84 23.4508V27.2203H110.38V23.4508H110.48C112.25 23.4508 113.23 22.7199 113.68 22.2799C113.911 22.0528 114.142 21.7629 114.333 21.4021C114.366 21.3404 114.398 21.2767 114.427 21.2109L114.481 21.0896C114.548 20.9282 114.606 20.7555 114.655 20.5694C114.714 20.3422 114.757 20.0966 114.781 19.8303C114.787 19.7553 114.792 19.6792 114.795 19.6011C114.799 19.5312 114.8 19.4613 114.8 19.3903C114.8 18.8846 114.723 18.4395 114.599 18.0509C114.489 17.7055 114.34 17.4054 114.17 17.1473C114.13 17.0857 114.088 17.026 114.045 16.9685L114.008 16.9202L113.944 16.841C113.785 16.6467 113.616 16.4833 113.45 16.3507C112.68 15.7401 111.52 15.4101 110.49 15.4101H110.37V11.6704H107.851V15.4101H107.73C106.69 15.4101 105.54 15.7401 104.77 16.3507C104.12 16.8708 103.42 17.8505 103.42 19.3903C103.42 20.81 103.98 21.7403 104.54 22.2799C104.99 22.7199 105.97 23.4508 107.74 23.4508H107.84ZM107.329 17.4938C107.535 17.4485 107.75 17.43 107.961 17.4403V21.4206C107.32 21.4401 106.72 21.2006 106.39 20.8305C106.09 20.5201 105.88 20.0102 105.88 19.4006C105.88 18.7808 106.09 18.2801 106.39 17.98C106.621 17.7425 106.96 17.575 107.329 17.4938ZM111.81 20.8408C111.48 21.2006 110.89 21.4504 110.241 21.4308V17.4506C110.646 17.4228 111.061 17.5133 111.401 17.6932C111.555 17.7754 111.695 17.8751 111.81 17.9903C111.947 18.127 112.065 18.3069 112.154 18.5197C112.258 18.7756 112.32 19.0778 112.32 19.4099C112.32 20.0205 112.11 20.5304 111.81 20.8408ZM119.961 27.2203V23.4508H119.86C119.291 23.4508 118.803 23.3747 118.388 23.2575C118.161 23.1938 117.956 23.1167 117.772 23.0334C117.246 22.795 116.886 22.501 116.661 22.2799C116.584 22.2059 116.507 22.1247 116.432 22.0353C116.366 21.9582 116.301 21.8749 116.24 21.7865C116.095 21.5789 115.96 21.3394 115.849 21.0659C115.725 20.7606 115.63 20.4132 115.58 20.0205C115.564 19.9023 115.553 19.7789 115.547 19.6525C115.543 19.5672 115.541 19.4798 115.541 19.3903C115.541 17.8505 116.241 16.8708 116.89 16.3507C117.66 15.7401 118.811 15.4101 119.851 15.4101H119.971V11.6704H122.491V15.4101H122.611C122.931 15.4101 123.263 15.442 123.592 15.5036C123.758 15.5345 123.924 15.5735 124.087 15.6208C124.231 15.6619 124.372 15.7092 124.51 15.7616C124.902 15.9128 125.266 16.1101 125.571 16.3507C126.221 16.8708 126.92 17.8505 126.92 19.3903C126.92 19.9557 126.832 20.4409 126.69 20.8562C126.562 21.2283 126.392 21.5439 126.204 21.8081C126.074 21.989 125.937 22.1453 125.801 22.2799C125.513 22.5616 125.007 22.9625 124.216 23.2144C124.005 23.2812 123.774 23.3377 123.522 23.3788C123.242 23.4251 122.936 23.4508 122.601 23.4508H122.501V27.2203H119.961ZM120.081 17.4403C119.491 17.4105 118.87 17.6099 118.51 17.98C118.21 18.2801 118.001 18.7808 118.001 19.4006C118.001 20.0102 118.21 20.5201 118.51 20.8305C118.84 21.2006 119.441 21.4401 120.081 21.4206V17.4403ZM122.36 21.4308C123.011 21.4504 123.601 21.2006 123.931 20.8408C124.09 20.6763 124.224 20.4553 124.314 20.1932C124.395 19.9609 124.441 19.6967 124.441 19.4099C124.441 18.8003 124.231 18.2904 123.931 17.9903C123.561 17.6202 122.95 17.4105 122.36 17.4506V21.4308ZM136.54 15.5304H134.02V16.4103C133.3 15.4306 132.23 15.2703 131.57 15.2703C130.49 15.2703 129.54 15.6599 128.86 16.3404C128.14 17.06 127.65 18.1804 127.65 19.4901C127.65 20.1459 127.78 20.7976 128.085 21.4093C128.26 21.7588 128.492 22.0939 128.79 22.4105C129.65 23.3202 130.59 23.5998 131.711 23.5998C132.36 23.5998 133.34 23.4405 134.02 22.3899V23.3305H136.54V15.5304ZM130.241 19.4202C130.241 19.0953 130.309 18.8229 130.409 18.5978C130.524 18.3367 130.681 18.1403 130.82 18.0005C131.15 17.6706 131.66 17.4403 132.191 17.4506C132.65 17.4506 133.21 17.6202 133.59 17.9903C133.96 18.3398 134.17 18.8599 134.17 19.4202C134.17 20.0904 133.89 20.5807 133.56 20.8901C133.23 21.2201 132.76 21.4298 132.25 21.4298C131.65 21.4298 131.11 21.1903 130.76 20.8202C130.654 20.7 130.529 20.5324 130.429 20.3135C130.321 20.0781 130.241 19.782 130.241 19.4202ZM140.58 15.5304V19.9907L143.9 15.5304H146.241V23.3305H143.72V18.8003L140.4 23.3305H138.06V15.5304H140.58ZM145.321 12.3807C145.223 12.6726 145.08 12.945 144.906 13.1856C144.785 13.3542 144.648 13.5063 144.5 13.6389C144.405 13.7253 144.304 13.8024 144.2 13.8702C144.033 13.9812 143.856 14.0676 143.675 14.1354C143.467 14.2125 143.256 14.2639 143.048 14.2978C142.725 14.3503 142.414 14.3605 142.15 14.3605C141.571 14.3605 140.77 14.3102 140.101 13.8702C139.61 13.5598 139.19 13.0098 138.98 12.3807L140.73 11.7002C140.8 12.0497 140.97 12.3303 141.18 12.4999C141.295 12.5945 141.425 12.6716 141.581 12.7251C141.737 12.7795 141.92 12.8104 142.14 12.8104C142.58 12.8104 142.87 12.6901 143.1 12.4999C143.207 12.4136 143.304 12.2984 143.383 12.1597C143.458 12.026 143.517 11.8718 143.551 11.7002L145.321 12.3807ZM148.8 15.5499C148.38 15.7102 147.84 15.9899 147.51 16.2006L148.49 17.8906C148.741 17.6798 149.001 17.5205 149.331 17.3807C149.661 17.2399 149.96 17.17 150.361 17.17C150.78 17.17 151.03 17.2604 151.15 17.3108C151.331 17.392 151.431 17.504 151.482 17.6109C151.518 17.688 151.531 17.7621 151.531 17.8207C151.531 17.9707 151.461 18.2 151.161 18.3398C151.079 18.3778 150.971 18.4056 150.855 18.4261C150.629 18.4672 150.372 18.4806 150.22 18.4806H149.5V20.1901H150.44C150.721 20.1901 151.14 20.2405 151.351 20.3299C151.449 20.3731 151.532 20.4276 151.593 20.4964C151.675 20.5869 151.721 20.702 151.721 20.8501C151.721 20.9642 151.698 21.1132 151.594 21.2499C151.542 21.3178 151.47 21.3836 151.37 21.4401C151.12 21.5799 150.74 21.6303 150.461 21.6303C150.195 21.6303 149.905 21.5881 149.644 21.5213C149.501 21.4843 149.368 21.4401 149.251 21.3908C148.94 21.2499 148.57 21.0001 148.29 20.7606L147.22 22.4208C147.319 22.4999 147.481 22.6274 147.697 22.7672C147.798 22.832 147.909 22.8998 148.03 22.9666C148.207 23.0632 148.406 23.1578 148.62 23.2401C149.321 23.5001 150.05 23.5906 150.75 23.5906C152.051 23.5906 152.961 23.4004 153.62 22.7507C153.88 22.4907 154.051 22.2131 154.157 21.9325C154.259 21.6611 154.3 21.3856 154.3 21.1204C154.3 21.0515 154.298 20.9837 154.292 20.9179C154.288 20.8757 154.284 20.8336 154.277 20.7925L154.263 20.7061C154.199 20.3813 154.05 20.0935 153.781 19.8303C153.671 19.7203 153.31 19.4099 152.73 19.2701C152.79 19.2485 152.848 19.2218 152.906 19.192C152.954 19.1673 153.001 19.1395 153.047 19.1097L153.106 19.0696C153.148 19.0408 153.188 19.01 153.227 18.9781C153.284 18.9319 153.339 18.8815 153.39 18.8301C153.771 18.4302 153.86 17.9903 153.86 17.4999C153.86 17.3509 153.849 17.2039 153.822 17.061C153.808 16.9829 153.788 16.9058 153.763 16.8297C153.677 16.5593 153.525 16.3044 153.28 16.07C152.491 15.3001 151.061 15.2703 150.64 15.2703C150.04 15.2703 149.39 15.3402 148.8 15.5499ZM163.42 19.8704H157.6C157.6 20.0153 157.619 20.1778 157.657 20.3422C157.729 20.6527 157.868 20.9713 158.071 21.1996C158.17 21.3106 158.281 21.398 158.397 21.4648C158.479 21.5121 158.563 21.5501 158.647 21.5799C158.897 21.6693 159.151 21.6899 159.36 21.6899C159.499 21.6899 159.64 21.6796 159.776 21.6591C159.999 21.6241 160.208 21.5593 160.37 21.4596C160.4 21.4401 160.7 21.2499 160.91 20.81L163.29 21.0505C162.94 22.1504 162.24 22.7302 161.79 23.0098C161.04 23.46 160.2 23.5896 159.321 23.5896C158.15 23.5896 157.12 23.3799 156.21 22.4701C155.53 21.7896 155.04 20.7596 155.04 19.4602C155.04 18.3398 155.44 17.1905 156.23 16.3805C156.698 15.9117 157.227 15.6321 157.746 15.4697C158.269 15.3052 158.783 15.26 159.22 15.26C160.09 15.26 161.35 15.4204 162.32 16.4298C163.25 17.4105 163.42 18.6297 163.42 19.6001V19.8704ZM161.1 18.3696C161.08 18.2997 160.96 17.8104 160.59 17.4598C160.487 17.3642 160.368 17.2799 160.233 17.2111C160.146 17.1658 160.052 17.1278 159.952 17.098C159.785 17.0476 159.601 17.0199 159.4 17.0199C159.183 17.0199 158.997 17.0487 158.835 17.0959C158.512 17.1915 158.286 17.3632 158.12 17.5297C157.93 17.7405 157.75 18.0201 157.68 18.3696H161.1ZM167.08 15.5304H164.56V23.3305H167.08V20.2703H169.9V23.3305H172.42V15.5304H169.9V18.2401H167.08V15.5304Z" fill="#2B2D34"/>
</svg>
