<svg width="201" height="50" viewBox="0 0 201 50" fill="none" xmlns="http://www.w3.org/2000/svg">
<path d="M57.0996 11.2501H64.4996C66.1384 11.2391 67.716 11.8723 68.8925 13.0133C70.069 14.1543 70.7503 15.7117 70.7896 17.3501C70.7737 19.0051 70.1031 20.5866 68.9243 21.7484C67.7456 22.9103 66.1547 23.5581 64.4996 23.5501H59.8996V28.5501H57.0996V11.2501ZM64.2296 20.9201C64.7123 20.9402 65.1941 20.863 65.6464 20.693C66.0986 20.523 66.512 20.2638 66.8619 19.9306C67.2118 19.5975 67.4911 19.1973 67.6831 18.754C67.8752 18.3107 67.976 17.8332 67.9796 17.3501C67.9831 16.8649 67.8871 16.3842 67.6975 15.9375C67.508 15.4909 67.2289 15.0878 66.8774 14.7533C66.526 14.4187 66.1097 14.1598 65.6543 13.9924C65.1989 13.825 64.714 13.7528 64.2296 13.7801H59.9096V20.9101L64.2296 20.9201ZM71.6396 22.2301C71.5991 21.3642 71.7383 20.4993 72.0484 19.6899C72.3585 18.8804 72.8329 18.1439 73.4416 17.5268C74.0503 16.9096 74.7801 16.4252 75.5852 16.1039C76.3903 15.7827 77.2532 15.6315 78.1196 15.6601C82.1196 15.6601 84.1196 19.0401 84.1196 22.4201V23.0801H74.4996C74.8796 25.2401 76.7496 26.4601 79.2896 26.4601C80.7004 26.4507 82.0824 26.0603 83.2896 25.3301V27.6801C81.9127 28.5376 80.3104 28.9626 78.6896 28.9001C74.7396 28.8901 71.6396 26.2701 71.6396 22.2301ZM81.3096 20.9201C81.2983 20.5055 81.2036 20.0973 81.0312 19.72C80.8589 19.3427 80.6123 19.004 80.3062 18.7241C80.0001 18.4441 79.6408 18.2287 79.2497 18.0905C78.8585 17.9524 78.4436 17.8944 78.0296 17.9201C77.1732 17.8648 76.3295 18.1484 75.6803 18.7096C75.0312 19.2709 74.6286 20.0648 74.5596 20.9201H81.3096ZM86.5596 15.9401H89.3796V20.8201H95.7596V15.9401H98.5796V28.5201H95.7596V23.2601H89.3796V28.5201H86.5596V15.9401ZM100.92 22.2301C100.879 21.3642 101.019 20.4993 101.329 19.6899C101.639 18.8804 102.113 18.1439 102.722 17.5268C103.331 16.9096 104.061 16.4252 104.866 16.1039C105.671 15.7827 106.534 15.6315 107.4 15.6601C111.4 15.6601 113.4 19.0401 113.4 22.4201V23.0801H103.73C104.11 25.2401 105.98 26.4601 108.52 26.4601C109.931 26.4507 111.313 26.0603 112.52 25.3301V27.6801C111.143 28.5376 109.541 28.9626 107.92 28.9001C104.02 28.8901 100.92 26.2701 100.92 22.2301ZM110.59 20.9201C110.579 20.5055 110.484 20.0973 110.312 19.72C110.139 19.3427 109.893 19.004 109.587 18.7241C109.281 18.4441 108.921 18.2287 108.53 18.0905C108.139 17.9524 107.724 17.8944 107.31 17.9201C106.454 17.8648 105.61 18.1484 104.961 18.7096C104.312 19.2709 103.909 20.0648 103.84 20.9201H110.59ZM115 22.2301C114.995 21.342 115.171 20.4622 115.517 19.6443C115.863 18.8264 116.372 18.0876 117.013 17.4728C117.654 16.8581 118.413 16.3803 119.245 16.0686C120.076 15.757 120.963 15.618 121.85 15.6601C123.15 15.6276 124.438 15.9161 125.6 16.5001V18.8501C124.559 18.2981 123.398 18.0097 122.22 18.0101C121.644 17.979 121.068 18.0648 120.527 18.2623C119.985 18.4598 119.489 18.7649 119.069 19.1592C118.648 19.5535 118.312 20.0289 118.08 20.5567C117.848 21.0844 117.726 21.6537 117.72 22.2301C117.719 22.8086 117.836 23.3813 118.066 23.9124C118.295 24.4436 118.631 24.9219 119.053 25.3176C119.475 25.7134 119.974 26.0181 120.519 26.213C121.064 26.4078 121.643 26.4885 122.22 26.4501C123.477 26.4984 124.72 26.1712 125.79 25.5101V27.8601C124.566 28.535 123.188 28.8797 121.79 28.8601C120.905 28.887 120.023 28.7351 119.197 28.4135C118.372 28.0918 117.62 27.6071 116.986 26.9882C116.352 26.3693 115.85 25.629 115.508 24.8114C115.167 23.9939 114.994 23.116 115 22.2301ZM127.2 22.2301C127.195 21.342 127.371 20.4622 127.717 19.6443C128.063 18.8264 128.572 18.0876 129.213 17.4728C129.854 16.8581 130.613 16.3803 131.445 16.0686C132.276 15.757 133.163 15.618 134.05 15.6601C135.35 15.6276 136.638 15.9161 137.8 16.5001V18.8501C136.759 18.2981 135.598 18.0097 134.42 18.0101C133.844 17.979 133.268 18.0648 132.727 18.2623C132.185 18.4598 131.689 18.7649 131.269 19.1592C130.848 19.5535 130.512 20.0289 130.28 20.5567C130.048 21.0844 129.926 21.6537 129.92 22.2301C129.919 22.8086 130.036 23.3813 130.266 23.9124C130.495 24.4436 130.831 24.9219 131.253 25.3176C131.675 25.7134 132.174 26.0181 132.719 26.213C133.264 26.4078 133.843 26.4885 134.42 26.4501C135.677 26.4984 136.92 26.1712 137.99 25.5101V27.8601C136.766 28.535 135.388 28.8797 133.99 28.8601C133.107 28.8787 132.228 28.7211 131.407 28.3965C130.585 28.0719 129.836 27.5868 129.204 26.9696C128.572 26.3523 128.069 25.6153 127.725 24.8015C127.381 23.9878 127.202 23.1136 127.2 22.2301ZM153.38 26.1701V28.2301C152.895 28.5096 152.339 28.6416 151.78 28.6101C151.205 28.6564 150.631 28.5054 150.152 28.1818C149.674 27.8582 149.321 27.3815 149.15 26.8301C148.573 27.4756 147.863 27.9886 147.069 28.3339C146.275 28.6791 145.416 28.8484 144.55 28.8301C141.92 28.8301 139.86 27.3301 139.86 24.6101C139.86 21.8901 141.92 20.9501 144.65 20.9501H148.97V20.7601C148.97 18.6001 147.19 18.0401 145.31 18.0401C143.922 18.0745 142.565 18.4635 141.37 19.1701V16.7001C142.798 15.9953 144.378 15.6519 145.97 15.7001C149.35 15.7001 151.79 17.3001 151.79 20.4901V25.1801C151.773 25.3262 151.786 25.4742 151.828 25.6153C151.87 25.7563 151.939 25.8876 152.032 26.0014C152.125 26.1151 152.241 26.209 152.371 26.2775C152.501 26.346 152.643 26.3877 152.79 26.4001C153.005 26.3818 153.21 26.3019 153.38 26.1701ZM148.78 23.0701H145.5C143.72 23.0701 142.5 23.4501 142.5 24.6701C142.5 26.0801 143.72 26.5501 145.22 26.5501C145.885 26.55 146.543 26.4173 147.156 26.1597C147.769 25.9022 148.325 25.5249 148.79 25.0501L148.78 23.0701ZM155.35 15.9401H158.17V20.8201H164.5V15.9401H167.32V28.5201H164.5V23.2601H158.12V28.5201H155.3L155.35 15.9401ZM169.71 22.2301C169.705 21.342 169.881 20.4622 170.227 19.6443C170.573 18.8264 171.082 18.0876 171.723 17.4728C172.364 16.8581 173.123 16.3803 173.955 16.0686C174.786 15.757 175.673 15.618 176.56 15.6601C177.86 15.6276 179.148 15.9161 180.31 16.5001V18.8501C179.269 18.2981 178.108 18.0097 176.93 18.0101C176.354 17.979 175.778 18.0648 175.237 18.2623C174.695 18.4598 174.199 18.7649 173.779 19.1592C173.358 19.5535 173.022 20.0289 172.79 20.5567C172.558 21.0844 172.436 21.6537 172.43 22.2301C172.429 22.8086 172.546 23.3813 172.776 23.9124C173.005 24.4436 173.341 24.9219 173.763 25.3176C174.185 25.7134 174.684 26.0181 175.229 26.213C175.774 26.4078 176.353 26.4885 176.93 26.4501C178.187 26.4984 179.43 26.1712 180.5 25.5101V27.8601C179.276 28.535 177.898 28.8797 176.5 28.8601C175.615 28.887 174.733 28.7351 173.907 28.4135C173.082 28.0918 172.33 27.6071 171.696 26.9882C171.062 26.3693 170.56 25.629 170.218 24.8114C169.877 23.9939 169.704 23.116 169.71 22.2301ZM57.0996 35.2801H58.4096V37.7201L60.6596 35.2801H62.2596L59.6296 38.1001L62.7296 41.4801H61.1296L58.4996 38.6501V41.4701H57.0996V35.2801ZM64.4196 35.2801H67.1396C67.4115 35.2356 67.6898 35.2507 67.9552 35.3244C68.2207 35.3981 68.4669 35.5287 68.6769 35.7071C68.8869 35.8854 69.0555 36.1073 69.1712 36.3574C69.2869 36.6074 69.3468 36.8796 69.3468 37.1551C69.3468 37.4306 69.2869 37.7028 69.1712 37.9528C69.0555 38.2029 68.8869 38.4248 68.6769 38.6032C68.4669 38.7815 68.2207 38.9121 67.9552 38.9858C67.6898 39.0595 67.4115 39.0746 67.1396 39.0301H65.7296V41.4701H64.4196V35.2801ZM67.0496 37.9101C67.6096 37.9101 67.9896 37.6301 67.9896 37.1601C67.9896 36.6901 67.6096 36.4101 67.0496 36.4101H65.7296V37.9101H67.0496ZM71.1696 35.2801H75.6696V36.4001H72.3896V37.6201H75.0196V38.7501H72.3896V40.3501H75.8596V41.4801H71.1696V35.2801ZM77.5596 40.3401H78.1196C78.7913 39.12 79.0837 37.7273 78.9596 36.3401V35.4001H83.2796V40.4701H84.1196V42.9101H82.8996V41.6601H78.6796V42.8801H77.4996V40.3401H77.5596ZM82.0596 40.3401V36.4001H80.2796C80.3359 37.745 80.1111 39.0869 79.6196 40.3401H82.0596ZM86.0996 35.2801H87.4096V39.2801L90.4096 35.2801H91.4996V41.4701H90.3196V37.4701L87.1296 41.4701H86.1296L86.0996 35.2801ZM98.4996 35.2801V36.4001H96.4996V41.4701H95.1996V36.4001H93.1996V35.2801H98.4996Z" fill="#323E48"/>
<path d="M24.5 35.28H20.5V17.91C20.5158 15.0532 21.6576 12.3178 23.6777 10.2977C25.6978 8.27761 28.4332 7.13575 31.29 7.12H44.62V17.82C44.62 20.6817 43.4832 23.4262 41.4597 25.4497C39.4362 27.4732 36.6917 28.61 33.83 28.61H27.07L28.57 24.61H33.73C34.6222 24.6153 35.5066 24.4432 36.3317 24.1036C37.1568 23.764 37.9061 23.2638 38.5361 22.6319C39.1661 22.0001 39.6641 21.2493 40.0013 20.4232C40.3384 19.5971 40.508 18.7122 40.5 17.82V11.16H31.2C30.3112 11.156 29.4303 11.3282 28.6084 11.6665C27.7864 12.0048 27.0396 12.5026 26.4111 13.1311C25.7826 13.7596 25.2848 14.5064 24.9465 15.3284C24.6082 16.1503 24.436 17.0311 24.44 17.92V35.28H24.5Z" fill="url(#paint0_radial_179_601)"/>
<defs>
<radialGradient id="paint0_radial_179_601" cx="0" cy="0" r="1" gradientUnits="userSpaceOnUse" gradientTransform="translate(21.31 34.14) scale(23.35)">
<stop stop-color="#D6005E"/>
<stop offset="1" stop-color="#E3448A"/>
</radialGradient>
</defs>
</svg>
