<svg width="201" height="50" viewBox="0 0 201 50" fill="none" xmlns="http://www.w3.org/2000/svg">
<path d="M121.5 24.2304C122.077 24.2608 122.643 24.0673 123.08 23.6904C123.286 23.487 123.446 23.2413 123.548 22.9702C123.649 22.6992 123.691 22.4092 123.67 22.1204C123.685 21.85 123.645 21.5794 123.552 21.325C123.459 21.0706 123.316 20.8377 123.13 20.6404C122.916 20.4283 122.661 20.2621 122.381 20.1521C122.101 20.042 121.801 19.9904 121.5 20.0004H119.25V24.1804L121.5 24.2304ZM117.05 18.0604H121.6C122.777 18.0004 123.934 18.386 124.84 19.1404C125.24 19.539 125.551 20.0177 125.753 20.5451C125.954 21.0725 126.042 21.6367 126.01 22.2004C126.03 22.739 125.942 23.2763 125.749 23.7798C125.557 24.2833 125.265 24.7427 124.89 25.1304C124.028 25.8583 122.915 26.2176 121.79 26.1304H119.32V30.7204H117.12V18.0604H117.05ZM131.05 21.1704C130.416 22.1285 130.101 23.2625 130.15 24.4104C130.067 25.5619 130.385 26.7067 131.05 27.6504C131.344 28.0341 131.723 28.3449 132.156 28.5588C132.59 28.7728 133.067 28.884 133.55 28.884C134.033 28.884 134.51 28.7728 134.944 28.5588C135.377 28.3449 135.756 28.0341 136.05 27.6504C136.684 26.6923 136.999 25.5583 136.95 24.4104C137.033 23.2589 136.715 22.1141 136.05 21.1704C135.765 20.7701 135.387 20.4459 134.947 20.2262C134.508 20.0065 134.021 19.898 133.53 19.9104C133.038 19.8889 132.548 19.9933 132.107 20.2138C131.666 20.4343 131.288 20.7635 131.01 21.1704H131.05ZM137.63 19.6404C138.723 20.9856 139.298 22.6779 139.25 24.4104C139.321 26.1463 138.743 27.8465 137.63 29.1804C137.113 29.751 136.479 30.2036 135.772 30.5073C135.064 30.811 134.3 30.9587 133.53 30.9404C132.759 30.969 131.991 30.8259 131.282 30.5215C130.573 30.2171 129.94 29.7591 129.43 29.1804C128.337 27.8351 127.763 26.1429 127.81 24.4104C127.759 22.6653 128.362 20.964 129.5 19.6404C130.018 19.0716 130.652 18.6209 131.359 18.3189C132.067 18.017 132.831 17.8708 133.6 17.8904C134.368 17.8747 135.131 18.0226 135.838 18.3244C136.545 18.6261 137.18 19.0747 137.7 19.6404H137.63ZM169.25 18.1604V26.8904L175.15 18.1604H177.31V30.7104H175.15V21.9304L169.25 30.7004H167.05V18.1504L169.25 18.1604Z" fill="#CD1F45"/>
<path d="M185.19 20.0004C184.34 20.0004 182.26 19.6404 182.26 22.0004C182.26 22.9404 182.62 24.2104 185.26 24.2104H188.32V20.0004H185.19ZM182.4 30.7104H179.79L183.17 25.8904C182.266 25.7798 181.44 25.3254 180.863 24.6214C180.285 23.9175 180.002 23.0182 180.07 22.1104C180.07 20.5404 180.75 18.1104 184.3 18.1104H190.5V30.7104H188.34V26.1204H185.5L182.4 30.7104ZM149.68 27.0004C149.566 27.2507 149.432 27.4915 149.28 27.7204C148.998 28.1244 148.62 28.4525 148.18 28.6758C147.741 28.899 147.253 29.0105 146.76 29.0004C146.268 29.0219 145.778 28.9175 145.337 28.697C144.896 28.4765 144.518 28.1473 144.24 27.7404C143.606 26.7823 143.291 25.6483 143.34 24.5004C143.257 23.3489 143.575 22.2041 144.24 21.2604C144.525 20.8601 144.904 20.5359 145.343 20.3162C145.782 20.0965 146.269 19.988 146.76 20.0004C147.253 19.9789 147.742 20.0833 148.183 20.3038C148.624 20.5243 149.002 20.8535 149.28 21.2604C149.52 21.6115 149.714 21.9911 149.86 22.3904H152.2C151.971 21.4109 151.508 20.5016 150.85 19.7404C150.332 19.1716 149.698 18.7209 148.991 18.4189C148.283 18.117 147.519 17.9708 146.75 17.9904C145.98 17.9606 145.212 18.1021 144.503 18.4047C143.794 18.7074 143.161 19.1636 142.65 19.7404C141.563 21.0891 140.99 22.7789 141.03 24.5104C140.959 26.2463 141.537 27.9465 142.65 29.2804C143.167 29.851 143.801 30.3036 144.508 30.6073C145.216 30.911 145.98 31.0587 146.75 31.0404C147.521 31.069 148.289 30.9259 148.998 30.6215C149.707 30.3171 150.34 29.8591 150.85 29.2804C151.422 28.6213 151.839 27.8421 152.07 27.0004H149.68ZM162.5 27.0004C162.386 27.2507 162.252 27.4915 162.1 27.7204C161.81 28.136 161.42 28.4713 160.965 28.6952C160.51 28.919 160.006 29.024 159.5 29.0004C159.008 29.0219 158.518 28.9175 158.077 28.697C157.636 28.4765 157.258 28.1473 156.98 27.7404C156.346 26.7823 156.031 25.6483 156.08 24.5004C155.997 23.3489 156.315 22.2041 156.98 21.2604C157.265 20.8601 157.644 20.5359 158.083 20.3162C158.522 20.0965 159.009 19.988 159.5 20.0004C159.993 19.9789 160.482 20.0833 160.923 20.3038C161.364 20.5243 161.742 20.8535 162.02 21.2604C162.26 21.6115 162.454 21.9911 162.6 22.3904H164.94C164.711 21.4109 164.248 20.5016 163.59 19.7404C163.072 19.1716 162.438 18.7209 161.731 18.4189C161.023 18.117 160.259 17.9708 159.49 17.9904C158.72 17.9606 157.952 18.1021 157.243 18.4047C156.534 18.7074 155.901 19.1636 155.39 19.7404C154.303 21.0891 153.73 22.7789 153.77 24.5104C153.699 26.2463 154.277 27.9465 155.39 29.2804C155.912 29.8451 156.549 30.2909 157.258 30.5877C157.967 30.8844 158.732 31.0252 159.5 31.0004C160.271 31.029 161.039 30.8859 161.748 30.5815C162.457 30.2771 163.09 29.8191 163.6 29.2404C164.178 28.5958 164.605 27.8306 164.85 27.0004H162.5ZM52.3498 23.2404V22.6104C51.8098 18.6104 48.1199 14.6104 44.8799 13.1104C42.8612 12.0944 40.6887 11.4186 38.4499 11.1104C36.7946 10.9352 35.1814 10.4787 33.6798 9.76043C33.5498 9.67043 33.4099 9.62043 33.2699 9.54043C33.1439 9.47733 33.0235 9.40374 32.9098 9.32043C32.18 8.76084 31.5098 8.12749 30.9098 7.43043C30.5353 6.99897 30.2224 6.51773 29.9798 6.00043L29.7998 5.69043V23.4204H31.6899V10.8604C32.0159 11.1729 32.3786 11.4449 32.7699 11.6704C34.3 12.3548 35.9252 12.8033 37.5898 13.0004C39.5885 13.3018 41.5495 13.8147 43.4398 14.5304C47.5798 16.4204 50.1498 20.8304 50.4398 23.3104V26.4604H33.2699V35.2804C33.8498 35.2804 34.2698 35.2804 34.8498 35.1904H34.9798V28.1904H52.3498V23.2804" fill="#CD1F45"/>
<path d="M65.3604 28.8204H68.5004C69.0764 28.8467 69.641 28.6537 70.0804 28.2804C70.2524 28.1275 70.3896 27.9394 70.4827 27.729C70.5759 27.5185 70.6228 27.2905 70.6204 27.0604C70.6211 26.8009 70.5692 26.5439 70.4678 26.305C70.3664 26.0661 70.2176 25.8502 70.0304 25.6704C69.5288 25.2942 68.9045 25.1194 68.2804 25.1804H65.3104L65.3604 28.8204ZM63.1504 30.7504V18.1104H71.8404V20.1804H65.4004V23.2404H68.2404C69.4415 23.0763 70.6606 23.365 71.6604 24.0504C72.0828 24.4145 72.4187 24.8683 72.6436 25.3786C72.8685 25.8889 72.9767 26.443 72.9604 27.0004C72.9756 27.522 72.879 28.0408 72.6772 28.5219C72.4754 29.0031 72.1731 29.4356 71.7904 29.7904C70.8734 30.517 69.7175 30.8738 68.5504 30.7904L63.1504 30.7504ZM80.3404 20.9404C80.2328 20.5576 80.1592 20.1661 80.1204 19.7704C80.0857 20.1474 80.0256 20.5215 79.9404 20.8904L78.1904 26.7804H82.0604L80.3504 20.9304L80.3404 20.9404ZM83.3404 30.7104L82.7104 28.7104H77.6004L77.0104 30.7104H74.8104L78.8104 18.1104H81.5004L85.6404 30.7104H83.3404ZM87.8404 18.1104H90.0404V23.2404H95.6704V18.1104H97.8004V30.7504H95.6404V25.1704H90.0104V30.7504H87.8104L87.8404 18.1104Z" fill="#073D59"/>
<path d="M107.56 18.1504H110.26L104.69 24.0004L110.69 30.7504H107.94L102.5 24.9504V30.7604H100.3V18.1504H102.5V23.3304L107.5 18.1504H107.56Z" fill="#073D59"/>
<path d="M29.85 27.0004C28.1734 27.072 26.5032 27.2523 24.85 27.5404C23.8958 27.7194 22.9513 27.9464 22.02 28.2204C21.5778 28.3434 21.1436 28.4937 20.72 28.6704C20.54 28.2204 20.45 27.8104 20.32 27.3604V27.1804C20.1672 26.5219 20.0603 25.8537 20 25.1804H29.85V27.0004ZM29.85 36.1304H29.76C29.4 36.0404 29.04 35.9904 28.68 35.9004C27.8686 35.6893 27.0837 35.3874 26.34 35.0004C25.8492 34.7607 25.3835 34.4726 24.95 34.1404C23.8461 33.3726 22.8878 32.4143 22.12 31.3104C21.94 31.0404 21.8 30.8204 21.67 30.5904C21.76 30.5904 21.85 30.5904 21.94 30.5004C22.03 30.4104 22.07 30.5004 22.12 30.5004C23.0493 30.1947 23.9939 29.9376 24.95 29.7304C26.5835 29.4158 28.238 29.222 29.9 29.1504L29.85 36.1304ZM22.07 34.6004C21.4373 34.3686 20.8195 34.0981 20.22 33.7904L19.95 33.7004L18.42 32.8904C18.42 32.8904 18.29 32.8904 18.24 32.8004C18.2933 32.7298 18.337 32.6525 18.37 32.5704L18.5 32.3904C18.7999 32.093 19.1358 31.8343 19.5 31.6204H19.63C19.6594 31.629 19.6906 31.629 19.72 31.6204C19.81 31.7104 19.85 31.8504 19.94 31.9404L20.17 32.3004C20.7231 33.1005 21.3419 33.8531 22.02 34.5504C22.11 34.6404 22.2 34.7804 22.29 34.8704C22.2 34.7304 22.11 34.6904 22.07 34.6904V34.6004ZM16.98 31.0004L16.58 31.5404C16.2885 31.3074 16.0175 31.0498 15.77 30.7704C14.1109 29.316 13.0111 27.3286 12.66 25.1504H17.84C17.932 26.2004 18.1127 27.2408 18.38 28.2604C18.4821 28.7121 18.633 29.1513 18.83 29.5704C18.83 29.5704 18.7 29.6604 18.65 29.7004L18.43 29.8304C17.908 30.1699 17.4222 30.562 16.98 31.0004ZM12.98 21.7304C13.2687 20.8943 13.6798 20.1058 14.2 19.3904C14.6563 18.7622 15.1683 18.1765 15.73 17.6404C15.8382 17.5212 15.9589 17.4139 16.09 17.3204C16.1838 17.22 16.2877 17.1295 16.4 17.0504C16.9549 17.7287 17.6336 18.2954 18.4 18.7204H18.49C18.5909 18.7901 18.698 18.8503 18.81 18.9004C18.68 19.2604 18.54 19.6704 18.41 20.0704V20.2104C18.32 20.5304 18.23 20.8404 18.14 21.2104C18.008 21.8707 17.9178 22.5387 17.87 23.2104H12.66C12.7166 22.7038 12.8376 22.2064 13.02 21.7304H12.98ZM18.2 15.7304C18.2998 15.6865 18.3911 15.6256 18.47 15.5504C19.01 15.2304 19.55 14.9704 20.14 14.6504H20.27L21.71 14.0004C21.851 13.9591 21.9856 13.8985 22.11 13.8204H22.24L22.06 14.0004C21.3668 14.684 20.7468 15.4381 20.21 16.2504L19.94 16.6504C19.8769 16.7764 19.8033 16.8968 19.72 17.0104C19.2745 16.7549 18.8644 16.4423 18.5 16.0804C18.3664 15.96 18.2457 15.8259 18.14 15.6804C18.14 15.7704 18.14 15.7704 18.14 15.6804L18.2 15.7304ZM51.58 29.6304H36.38V31.4304H46.77C46.3626 31.8005 45.9244 32.135 45.46 32.4304C41.3361 34.9613 36.5781 36.2688 31.74 36.2004V25.2004H49.2V23.2404H19.9C19.9 22.7004 20.03 22.2404 20.12 21.6704C20.1718 21.4947 20.202 21.3134 20.21 21.1304C20.326 20.6535 20.4764 20.1856 20.66 19.7304L20.93 19.8204C21.29 19.9504 21.65 20.0404 22.01 20.1804C22.9369 20.4712 23.8871 20.6819 24.85 20.8104H25.12C25.84 20.9404 26.65 21.0804 27.6 21.1704L29.85 21.3004V19.2804C29.1581 19.2776 28.4669 19.2342 27.78 19.1504C26.9943 19.091 26.2128 18.9842 25.44 18.8304C25.2566 18.8262 25.0748 18.7959 24.9 18.7404C23.9386 18.5688 22.9923 18.3213 22.07 18.0004C21.94 18.0004 21.84 18.0004 21.71 17.9104C21.58 17.8204 21.62 17.9104 21.58 17.9104C21.6837 17.7074 21.8041 17.5134 21.94 17.3304C21.94 17.2404 22.03 17.2004 22.07 17.1004C22.8245 15.9826 23.7849 15.0188 24.9 14.2604C26.3125 13.2313 27.9459 12.5465 29.67 12.2604H29.85V10.1004H29.72C29.6618 10.0798 29.5982 10.0798 29.54 10.1004C27.9965 10.1967 26.4623 10.4072 24.95 10.7304C23.9876 10.9288 23.0416 11.1995 22.12 11.5404C21.54 11.7204 20.95 11.9404 20.27 12.2204C19.77 12.4404 19.19 12.7204 18.52 13.0704C17.5714 13.575 16.668 14.1605 15.82 14.8204C14.6036 15.7382 13.5287 16.8298 12.63 18.0604C11.9851 18.9657 11.467 19.9548 11.09 21.0004C10.706 22.0239 10.5062 23.1073 10.5 24.2004C10.5 27.5804 12.34 30.8604 15.68 33.4704C15.86 33.6004 16.08 33.7404 16.27 33.8804C16.46 34.0204 16.67 34.1504 16.86 34.2904L17.99 34.9604C18.12 35.0504 18.26 35.1004 18.39 35.1904C18.89 35.4604 19.39 35.6804 19.92 35.9104L20.14 36.0004C20.68 36.2304 21.27 36.4504 21.99 36.7204C22.9367 37.0337 23.88 37.3037 24.82 37.5304C27.0529 38.0219 29.3336 38.2634 31.62 38.2504C36.9162 38.3583 42.1289 36.9196 46.62 34.1104C47.3938 33.627 48.1174 33.0676 48.78 32.4404C49.32 31.9504 50.94 30.3204 51.48 29.6504H51.62L51.58 29.6304Z" fill="#073D59"/>
</svg>
