<svg width="210" height="45" viewBox="0 0 210 45" fill="none" xmlns="http://www.w3.org/2000/svg">
<path fill-rule="evenodd" clip-rule="evenodd" d="M78.2095 21.4814L74.3876 20.655C72.4752 20.2418 71.4223 19.0663 71.4223 17.3438C71.4223 15.1545 73.3727 13.503 75.9596 13.503C79.5391 13.503 80.5961 16.1275 80.8355 16.9329C80.9114 17.2006 81.0983 17.4276 81.3494 17.5527C81.5946 17.6778 81.8691 17.6964 82.1319 17.6051L84.1465 16.8969C84.3883 16.8113 84.5883 16.6369 84.7055 16.4093C84.8227 16.1818 84.8483 15.9182 84.7771 15.6725C84.2574 13.851 82.3479 9.6145 75.872 9.6145C71.0778 9.6145 67.0311 13.2691 67.0311 17.5958C67.0311 21.3143 69.4796 24.0611 73.5829 24.9514L77.2267 25.7429C79.42 26.2026 80.7304 27.5352 80.7304 29.3043C80.7304 31.5623 78.8676 32.9647 75.8661 32.9647C72.3391 32.9647 70.6398 30.6602 70.2252 28.5013C70.199 28.3621 70.1434 28.23 70.0621 28.1138C69.9808 27.9976 69.8757 27.9 69.7537 27.8274C69.6317 27.7548 69.4956 27.7088 69.3544 27.6925C69.2132 27.6763 69.0701 27.6901 68.9347 27.7331L66.7216 28.4373C66.489 28.5079 66.2907 28.6615 66.1646 28.8687C66.0386 29.0759 65.9936 29.3222 66.0384 29.5604C66.7274 33.1393 69.6781 36.9568 75.907 36.9568C81.1707 36.9568 85.1403 33.5408 85.1403 29.0134C85.1403 25.19 82.6084 22.4433 78.1914 21.4715L78.2095 21.4814ZM100.82 24.9631C100.832 25.0387 100.797 25.0969 100.774 25.1202C100.754 25.144 100.73 25.1632 100.702 25.1763C100.674 25.1894 100.644 25.1961 100.613 25.1959H92.4963C92.464 25.1959 92.4321 25.1885 92.403 25.1744C92.374 25.1603 92.3486 25.1398 92.3287 25.1144C92.3102 25.0931 92.2969 25.0679 92.2898 25.0406C92.2827 25.0133 92.282 24.9848 92.2878 24.9573C92.6586 23.2708 94.1097 21.5704 96.5156 21.5704C98.8788 21.5704 100.486 22.8332 100.816 24.9532L100.82 24.9631ZM96.484 17.7936C92.2096 17.7936 87.7891 21.3551 87.7891 27.3199C87.7891 30.1947 88.7351 32.6505 90.5278 34.4137C92.1885 36.049 94.4577 36.951 96.9161 36.951C100.577 36.951 103.544 35.0446 104.852 31.8532C104.957 31.5913 104.951 31.3004 104.838 31.0443C104.782 30.9201 104.701 30.8086 104.6 30.7169C104.499 30.6252 104.38 30.5552 104.251 30.5113L102.464 29.8944C102.225 29.8126 101.964 29.8236 101.732 29.9253C101.501 30.0271 101.317 30.212 101.216 30.4432C100.445 32.253 98.9973 33.1667 96.9126 33.1667C94.39 33.1667 92.4688 31.4732 92.136 28.9517C92.1318 28.9235 92.1341 28.8946 92.1427 28.8674C92.1513 28.8402 92.1659 28.8153 92.1856 28.7946C92.209 28.7655 92.2615 28.7189 92.3433 28.7189H104.188C104.719 28.7189 105.163 28.3057 105.192 27.7785C105.204 27.6097 105.21 27.4235 105.21 27.2396C105.21 21.4086 101.864 17.7872 96.4799 17.7872L96.484 17.7936ZM116.653 31.9463C113.81 31.9463 112.04 29.9794 112.04 26.8136C112.04 23.6945 113.85 21.6786 116.653 21.6786C119.369 21.6786 121.193 23.7387 121.193 26.8113C121.193 29.8805 119.368 31.944 116.653 31.944L116.653 31.9463ZM124.233 18.329H122.09C121.535 18.329 121.083 18.7788 121.083 19.359C121.082 19.4001 121.07 19.4401 121.047 19.4743C121.024 19.5084 120.992 19.5351 120.954 19.5511C120.913 19.5685 120.832 19.5918 120.758 19.522C119.654 18.5164 118.101 18.006 116.145 18.006C111.296 18.006 107.777 21.713 107.777 26.8166C107.777 31.898 111.296 35.5863 116.145 35.5863C117.938 35.5863 119.561 34.9998 120.717 33.9348C120.793 33.865 120.875 33.8824 120.916 33.8999C120.945 33.9115 121.044 33.9639 121.044 34.0919V34.8252C121.044 38.375 119.485 40.0306 116.145 40.0306C114.025 40.0306 112.361 38.7212 111.911 36.6973C111.853 36.4354 111.695 36.2143 111.467 36.0728C111.24 35.9314 110.965 35.8866 110.702 35.9448L108.598 36.4278C108.339 36.4891 108.115 36.6491 107.974 36.8733C107.833 37.0975 107.786 37.368 107.842 37.6266C108.596 41.3045 111.933 43.7777 116.14 43.7777C119.276 43.7777 121.664 42.8262 123.241 40.9495C124.543 39.398 125.232 37.2443 125.232 34.721V19.348C125.232 18.7951 124.783 18.347 124.228 18.347L124.233 18.329ZM149.71 17.8262C147.34 17.8262 145.411 18.7177 144.131 20.41C144.11 20.4413 144.08 20.4666 144.046 20.4833C144.012 20.5 143.974 20.5076 143.936 20.5055C143.908 20.5058 143.88 20.4987 143.855 20.4849C143.831 20.4711 143.81 20.4511 143.796 20.4269C142.723 18.7742 140.871 17.8256 138.715 17.8256C137 17.8256 135.352 18.4262 134.191 19.4754C134.163 19.5046 134.127 19.5242 134.087 19.5315C134.047 19.5389 134.006 19.5335 133.969 19.5162C133.933 19.5015 133.903 19.4762 133.882 19.4437C133.861 19.4112 133.851 19.3731 133.852 19.3346C133.852 18.7818 133.4 18.3337 132.846 18.3337H130.81C130.255 18.3337 129.806 18.7818 129.806 19.3346V35.4135C129.806 35.9664 130.258 36.4156 130.812 36.4156H132.955C133.51 36.4156 133.96 35.964 133.96 35.4112V25.6096C133.96 23.2278 135.42 21.6268 137.598 21.6268C140.447 21.6268 140.874 23.8539 140.874 25.1807V35.4286C140.874 35.9815 141.323 36.4296 141.878 36.4296H144.058C144.613 36.4296 145.062 35.9792 145.062 35.4263V25.5747C145.062 23.2493 146.546 21.6257 148.665 21.6257C151.517 21.6257 151.941 23.8545 151.941 25.1813V35.4292C151.941 35.9821 152.391 36.4302 152.946 36.4302H155.089C155.643 36.4302 156.093 35.9797 156.093 35.4269V24.8182C156.093 19.9997 152.887 17.8448 149.71 17.8448V17.8262ZM164.198 25.2098C164.166 25.2097 164.134 25.2025 164.105 25.1886C164.076 25.1747 164.051 25.1545 164.031 25.1295C164.013 25.1083 164 25.0833 163.993 25.0565C163.987 25.0297 163.986 25.0018 163.992 24.9747C164.363 23.2871 165.814 21.5879 168.222 21.5879C170.585 21.5879 172.193 22.8507 172.522 24.9689C172.534 25.0446 172.497 25.1028 172.476 25.126C172.455 25.1477 172.43 25.165 172.402 25.177C172.375 25.189 172.345 25.1954 172.315 25.1959H164.198V25.2098ZM168.186 17.8076C163.912 17.8076 159.492 21.3714 159.492 27.3339C159.492 30.2122 160.438 32.6662 162.228 34.4312C163.886 36.0664 166.152 36.9626 168.616 36.9626C172.272 36.9626 175.238 35.0539 176.552 31.859C176.657 31.5972 176.651 31.3062 176.534 31.0501C176.418 30.7941 176.207 30.6079 175.945 30.5148L174.158 29.8991C173.662 29.7286 173.113 29.9689 172.909 30.4473C172.139 32.2524 170.69 33.1707 168.606 33.1707C166.083 33.1707 164.162 31.4738 163.829 28.9517C163.825 28.9231 163.826 28.894 163.835 28.8662C163.843 28.8385 163.857 28.8128 163.876 28.7911C163.899 28.762 163.952 28.7183 164.033 28.7183H175.882C176.413 28.7183 176.855 28.3052 176.886 27.7773C176.896 27.6086 176.904 27.4224 176.904 27.2361C176.904 21.4051 173.558 17.7797 168.174 17.7797L168.186 17.8076ZM189.658 17.8443C187.845 17.8443 186.255 18.4599 185.062 19.625C185.035 19.6524 185 19.671 184.962 19.6783C184.924 19.6856 184.884 19.6812 184.849 19.6657C184.812 19.6497 184.781 19.6233 184.759 19.5898C184.737 19.5563 184.726 19.5171 184.726 19.4772V19.3491C184.726 18.7963 184.274 18.3482 183.719 18.3482H181.617C181.062 18.3482 180.61 18.7963 180.61 19.3491V35.4251C180.61 35.978 181.06 36.4278 181.615 36.4278H183.793C184.348 36.4278 184.8 35.9768 184.8 35.424V26.0391C184.8 23.9395 185.755 21.6955 188.438 21.6955C190.85 21.6955 192.074 23.0241 192.074 25.644V35.4205C192.074 35.9733 192.523 36.4214 193.078 36.4214H195.256C195.811 36.4214 196.262 35.9675 196.262 35.4147V25.0684C196.262 20.6108 193.729 17.8408 189.657 17.8408L189.658 17.8443ZM206.411 22.1983H208.951C209.506 22.1983 209.955 21.7473 209.955 21.195V19.348C209.955 18.7951 209.506 18.347 208.951 18.347H206.411C206.384 18.347 206.357 18.3418 206.333 18.3315C206.308 18.3213 206.285 18.3063 206.266 18.2874C206.247 18.2685 206.232 18.246 206.222 18.2213C206.212 18.1966 206.206 18.1701 206.206 18.1434V13.8871C206.206 13.3342 205.753 12.885 205.199 12.885H203.307C202.752 12.885 202.303 13.3342 202.303 13.8871V16.0868C202.303 17.1168 201.907 18.3465 200.032 18.3465H199.709C199.155 18.3465 198.705 18.7946 198.705 19.3474V21.1921C198.705 21.745 199.156 22.1931 199.709 22.1931H201.817C201.931 22.1931 202.022 22.2804 202.022 22.3967V31.2829C202.022 34.565 204.028 36.6018 207.254 36.6018C208.153 36.6018 208.853 36.4738 209.19 36.3981C209.645 36.2934 209.965 35.8919 209.965 35.4205V33.7102C209.965 33.5695 209.935 33.4304 209.878 33.3019C209.82 33.1735 209.736 33.0585 209.631 32.9645C209.526 32.8705 209.402 32.7996 209.268 32.7563C209.133 32.713 208.991 32.6984 208.851 32.7133C208.623 32.7366 208.403 32.75 208.23 32.75C206.764 32.75 206.215 32.2146 206.215 30.7772V22.3973C206.215 22.2856 206.309 22.1948 206.42 22.1948" fill="#43AF79"/>
<path fill-rule="evenodd" clip-rule="evenodd" d="M24.3208 45C22.0411 45 19.7894 44.6625 17.6288 43.995C17.0371 43.8123 16.5425 43.4029 16.2538 42.8568C15.965 42.3107 15.9057 41.6726 16.0889 41.083C16.4708 39.8493 17.7824 39.1626 19.0116 39.5467C20.7237 40.0762 22.5094 40.3439 24.3208 40.3439C32.2466 40.3439 39.1284 35.2753 41.4461 27.7275C41.5358 27.4353 41.6824 27.1635 41.8776 26.9278C42.0728 26.6921 42.3127 26.497 42.5836 26.3538C42.8545 26.2105 43.1511 26.1219 43.4564 26.093C43.7617 26.0642 44.0698 26.0955 44.3629 26.1854C45.5962 26.5578 46.2899 27.8614 45.9127 29.0893C42.9906 38.6045 34.3132 45 24.3208 45Z" fill="#43AF79"/>
<path fill-rule="evenodd" clip-rule="evenodd" d="M4.96305 18.9153C4.59773 18.9153 4.23749 18.83 3.91127 18.6661C3.58506 18.5022 3.30196 18.2643 3.08474 17.9716C2.86751 17.6789 2.72221 17.3395 2.66051 16.9807C2.59881 16.6218 2.62243 16.2536 2.72946 15.9055C5.6521 6.39083 14.3295 0 24.3208 0C26.6022 0 28.8539 0.337523 31.0128 1.00559C31.3058 1.09605 31.5781 1.24316 31.814 1.43849C32.05 1.63383 32.245 1.87357 32.388 2.14404C32.531 2.4145 32.6192 2.71039 32.6474 3.0148C32.6756 3.3192 32.6434 3.62618 32.5526 3.91818C32.4621 4.21036 32.3147 4.48187 32.1187 4.71718C31.9228 4.95248 31.6821 5.14695 31.4107 5.28944C31.1392 5.43193 30.8421 5.51965 30.5366 5.54758C30.231 5.5755 29.9229 5.54308 29.63 5.45217C27.919 4.92842 26.1322 4.66073 24.3208 4.66073C16.3967 4.66073 9.51372 9.7294 7.19605 17.2771C7.04956 17.7534 6.7537 18.1704 6.3519 18.4668C5.95011 18.7632 5.46354 18.9235 4.96363 18.924" fill="#43AF79"/>
<path fill-rule="evenodd" clip-rule="evenodd" d="M30.3218 30.7408H2.33577C1.04526 30.7408 0 29.6992 0 28.4131C0 27.127 1.04526 26.0853 2.33577 26.0853H30.3218C31.6124 26.0853 32.6576 27.127 32.6576 28.4131C32.6576 29.6992 31.6124 30.7408 30.3218 30.7408Z" fill="#93C8A2"/>
<path fill-rule="evenodd" clip-rule="evenodd" d="M46.3067 18.9146H18.3218C17.0313 18.9146 15.986 17.873 15.986 16.5869C15.986 15.3008 17.0313 14.2591 18.3218 14.2591H46.3067C47.5972 14.2591 48.6425 15.3008 48.6425 16.5869C48.6425 17.873 47.5972 18.9146 46.3067 18.9146Z" fill="#93C8A2"/>
<path fill-rule="evenodd" clip-rule="evenodd" d="M40.521 7.71642C40.521 8.33378 40.2749 8.92585 39.8369 9.36238C39.3988 9.79892 38.8047 10.0442 38.1852 10.0442C37.5657 10.0442 36.9716 9.79892 36.5336 9.36238C36.0955 8.92585 35.8495 8.33378 35.8495 7.71642C35.8495 7.09906 36.0955 6.50699 36.5336 6.07045C36.9716 5.63392 37.5657 5.38867 38.1852 5.38867C38.8047 5.38867 39.3988 5.63392 39.8369 6.07045C40.2749 6.50699 40.521 7.09906 40.521 7.71642ZM12.7924 37.2869C12.7924 37.9043 12.5464 38.4964 12.1083 38.9329C11.6703 39.3694 11.0762 39.6147 10.4567 39.6147C9.83719 39.6147 9.24308 39.3694 8.80503 38.9329C8.36699 38.4964 8.1209 37.9043 8.1209 37.2869C8.1209 36.6696 8.36699 36.0775 8.80503 35.641C9.24308 35.2044 9.83719 34.9592 10.4567 34.9592C11.0762 34.9592 11.6703 35.2044 12.1083 35.641C12.5464 36.0775 12.7924 36.6696 12.7924 37.2869Z" fill="#93C8A2"/>
</svg>
