<svg width="201" height="50" viewBox="0 0 201 50" fill="none" xmlns="http://www.w3.org/2000/svg">
<path d="M58.6184 22.3659L59.2625 20.3431L57.1675 20.4094C56.1863 20.3732 55.2411 20.0421 54.4465 19.4582H54.7294C56.0057 19.4522 57.1736 18.7237 57.7394 17.5799L58.6605 15.6114C57.9381 15.6174 57.2157 15.5752 56.4993 15.4849C55.813 15.3224 55.199 14.9492 54.7354 14.4194C54.1093 13.7512 53.2425 13.3719 52.3274 13.3659C51.9722 13.3659 51.617 13.4261 51.2739 13.5344C51.3221 13.3719 51.3642 13.2094 51.3943 13.0408C51.5388 11.8669 51.2077 10.6809 50.4792 9.74782L48.8899 7.7913L47.9147 10.0789C47.7582 10.404 47.5234 10.687 47.2224 10.8916C47.0538 10.0729 46.6565 9.32642 46.0665 8.73645C45.0793 7.72508 43.7247 7.1592 42.31 7.17124C42.0632 7.17124 41.8164 7.1893 41.5756 7.22542L39.6732 7.59866C39.8358 6.96053 40.0946 6.35251 40.4438 5.79264L41.4913 4.1612L38.8545 4.40803L38.0117 2.60201L36.3863 3.48696L34.8813 2L33.3762 3.48696L31.7508 2.64415L30.908 4.40803L28.2712 4.10702L29.3187 5.74448C29.6679 6.30435 29.9267 6.91237 30.0893 7.5505L28.2833 7.19532H28.2231C27.9702 7.1592 27.7174 7.14114 27.4645 7.14114C26.0498 7.1291 24.6953 7.69498 23.708 8.70635C23.112 9.30234 22.7027 10.0609 22.5401 10.8916C22.2512 10.693 22.0164 10.4221 21.8599 10.103L20.8786 7.79732L19.2773 9.75986C18.5609 10.693 18.2418 11.8729 18.3803 13.0408C18.4104 13.2094 18.4525 13.3719 18.5007 13.5344C18.1575 13.4261 17.8023 13.3659 17.4472 13.3659C16.5321 13.3719 15.6652 13.7512 15.0391 14.4194C14.5816 14.9431 13.9736 15.3164 13.2933 15.4849C12.5709 15.5933 11.8365 15.6354 11.102 15.6114L11.999 17.61C12.5649 18.7538 13.7328 19.4823 15.009 19.4883H15.292C14.5094 20.0602 13.5763 20.3913 12.607 20.4334L10.5 20.3431L11.1441 22.3659C11.6258 23.9492 12.9923 25.111 14.6358 25.3217C14.4672 26.3873 13.793 27.3084 12.8298 27.79L11.2164 28.4461L12.0833 29.9572C12.7997 31.0709 14.0338 31.7331 15.3522 31.7211C15.6953 31.7211 16.0385 31.6849 16.3756 31.6127C16.4599 31.9799 16.5682 32.3471 16.6886 32.7023C16.9896 33.497 17.0077 34.3639 16.7488 35.1706L15.9662 36.814L17.7181 37.2776C18.1094 37.3799 18.5187 37.4281 18.9221 37.4281C19.211 37.4281 19.494 37.398 19.7769 37.3318C19.9816 37.2836 20.1863 37.2234 20.3789 37.1451C20.6017 37.5485 20.8846 37.9217 21.2037 38.2528C22.3234 39.4027 23.9127 39.9866 25.9294 39.9866H27.3682L24.4003 41.2207L26.6518 42.3344C27.5609 42.7799 28.488 43.1833 29.4331 43.5384L29.1622 44.3211L29.9388 44.6762C31.2271 45.1819 32.5936 45.4649 33.9783 45.513H35.8264C37.205 45.4649 38.5655 45.1759 39.8478 44.6702L40.6003 44.3211L40.3354 43.5384C41.2926 43.1712 42.2318 42.7558 43.1468 42.2923L45.3562 41.2207L42.3943 40.0167H43.8391C45.8558 40.0167 47.4512 39.4147 48.5649 38.2829C48.8899 37.9518 49.1669 37.5786 49.3896 37.1752C49.5823 37.2535 49.7869 37.3137 49.9916 37.3619C50.2746 37.4281 50.5575 37.4582 50.8465 37.4582C51.2498 37.4582 51.6592 37.404 52.0505 37.3077L53.8083 36.8441L53.0438 35.2308C52.7548 34.412 52.7669 33.515 53.0739 32.7023C53.2003 32.3351 53.3027 31.9619 53.3869 31.5886C53.7241 31.6609 54.0732 31.697 54.4164 31.697C55.7468 31.709 56.9869 31.0227 57.6913 29.891L58.5461 28.398L56.9568 27.7478C55.9936 27.2662 55.3194 26.3451 55.1508 25.2796C56.7943 25.0629 58.1609 23.907 58.6425 22.3177L58.6184 22.3659Z" fill="white"/>
<path d="M42.1176 28.7587H27.6694V34.1767C27.6694 36.4042 29.2768 37.7888 31.6547 37.7888C33.6413 37.7888 34.1651 37.867 34.8995 38.6015C35.3631 38.1018 36.0192 37.8189 36.7055 37.8309V37.7466L37.1631 36.3379L36.3865 35.4891C36.0734 35.5854 35.7483 35.6216 35.4233 35.6035C34.9356 35.5975 34.454 35.5493 33.9784 35.453H33.8279C33.7617 35.453 33.7617 35.453 33.7437 35.4891L33.6534 35.6396L33.4908 35.9105L33.1778 35.8383L31.7871 35.5132L31.5945 35.8262V35.8624L31.7631 36.049L31.6908 36.2898C31.5644 36.5848 31.3838 36.8496 31.155 37.0784L30.8059 37.4517L30.4868 37.0543L30.252 36.7593C29.9992 36.4282 29.939 35.9948 30.0835 35.6035L29.6922 35.766L29.5176 35.3808L29.4213 35.1098C29.1744 34.5379 29.361 33.8757 29.8607 33.5145L30.9804 32.9125L32.046 33.1232C32.046 33.0209 32.1122 32.6537 32.1423 32.5634H32.0821L31.4801 32.7921L30.8781 32.3828C30.7577 32.2624 30.7517 32.0637 30.8781 31.9373L31.45 31.0704L29.9992 29.2644L32.1724 30.1192L32.3229 29.9386L32.6239 29.5774L32.9671 29.9025C33.0574 29.9928 33.1176 30.1012 33.1477 30.2276C33.7497 30.4684 34.8634 31.1727 34.9537 32.3165L34.6105 32.455C34.6527 32.5152 34.7069 32.5634 34.7731 32.5935L36.3624 32.75L36.5069 32.7078C36.7778 32.6055 37.0667 32.5513 37.3557 32.5453C37.6447 32.5453 37.9276 32.6115 38.1865 32.7379C38.3008 32.6958 38.4273 32.6717 38.5477 32.6657H38.6259C39.4748 32.6657 39.9022 33.3038 40.2393 33.8095L40.4139 34.0624C40.7089 34.4838 41.1002 35.0978 41.1182 35.1219L41.2928 35.3928L41.0761 35.6456C40.8774 35.9105 40.5644 36.061 40.2333 36.061C40.137 36.067 40.0406 36.067 39.9443 36.061C39.86 36.043 39.7758 36.0189 39.6915 35.9828C39.6915 36.067 39.6915 36.1694 39.6433 36.2537L39.3965 37.6744C41.034 37.3433 42.1898 35.8744 42.1236 34.2008L42.1176 28.7587ZM27.6514 28.3192H38.9029C38.4453 27.8376 38.2888 27.1453 38.4935 26.5132C38.343 26.441 38.1985 26.3446 38.0721 26.2363C37.6326 26.5614 36.2661 27.5366 35.941 27.7834L35.8688 27.8316L31.45 27.049H31.3597C31.2152 27.055 31.0708 27.055 30.9263 27.049C30.8841 27.2476 30.7096 27.3861 30.5109 27.3861H30.4387C30.2039 27.344 30.0413 27.1212 30.0775 26.8864V26.7901C29.5055 26.3808 29.2346 25.6704 29.3851 24.9841V24.9058L29.4514 24.8577C29.4514 24.8577 29.5356 24.7975 29.65 24.7313L29.331 24.6831C29.2106 24.659 29.1323 24.5507 29.1504 24.4303C29.1684 24.3099 29.2768 24.2316 29.3972 24.2497H29.4032L30.1678 24.3701L30.24 21.6791L31.3778 20.4751L32.0882 21.968L31.3417 24.5567L32.0159 24.665C32.1363 24.6891 32.2146 24.7975 32.1965 24.9179C32.1785 25.0262 32.0882 25.0985 31.9798 25.0985H31.9437L31.3958 25.0082V25.0503C31.456 25.1587 31.5464 25.243 31.6607 25.2971L35.0259 25.3513L35.8868 24.5025C35.2306 24.2737 34.7611 23.6958 34.6828 23.0035C34.2614 22.841 33.9183 22.5279 33.7256 22.1246C33.5631 21.7453 33.533 21.3179 33.6474 20.9206C33.1176 20.7099 32.636 20.3908 32.2447 19.9814H27.248C27.4888 20.5714 27.6273 21.1975 27.6514 21.8296V28.3192Z" fill="#FCE527"/>
<path d="M66.4863 23.6725H71.4468V32.1006H75.0588V23.6725H80.0194V20.6143H66.4863V23.6725ZM84.7873 27.2846V20.6625H81.2957V32.1006H84.378L90.398 25.4063V32.1006H93.8897V20.6143H90.8074L84.7873 27.2846ZM105.515 24.8765H99.9037V20.6625H96.412V32.1006H99.9037V27.8143H105.515V32.1006H109.006V20.6625H105.515V24.8765ZM121.185 23.9856C120.36 23.7327 119.493 23.6304 118.632 23.6725H115.02V20.6625H111.529V32.1006L118.608 32.0525C119.349 32.0645 120.083 31.9802 120.8 31.7876C122.618 31.3421 123.87 29.6866 123.81 27.8143C123.882 26.0986 122.816 24.5334 121.185 23.9856ZM119.403 29.1628C118.963 29.3133 118.494 29.3735 118.03 29.3314H115.02V26.4177H118.03C118.482 26.3876 118.939 26.4418 119.379 26.5622C119.933 26.7247 120.306 27.2364 120.294 27.8143C120.3 28.4043 119.951 28.9401 119.403 29.1628ZM138.438 20.6625H134.056L129.842 24.9729H128.879V20.6625H125.387V32.1006H128.879V27.7662H129.842L134.008 32.1006H138.655L132.852 26.0806L138.438 20.6625Z" fill="#222220"/>
<path d="M145.952 20.3006C141.232 20.3006 138.414 22.9494 138.414 26.3688C138.414 29.7882 141.256 32.437 145.927 32.437C150.599 32.437 153.416 29.7882 153.416 26.3688C153.416 22.9494 150.671 20.3006 145.952 20.3006ZM145.927 29.6437C143.592 29.6437 142.099 28.2471 142.099 26.3688C142.099 24.4906 143.616 23.118 145.927 23.118C148.239 23.118 149.756 24.4906 149.756 26.3688C149.756 28.2471 148.263 29.6437 145.927 29.6437ZM164.921 21.1193V19.9635H161.429V21.1193C157.046 21.2156 154.422 23.0698 154.422 26.3447C154.422 29.6197 157.046 31.3294 161.429 31.4257V32.5815H164.921V31.4257C169.327 31.3294 171.952 29.6197 171.952 26.3447C171.952 23.0698 169.333 21.2156 164.921 21.1193ZM161.429 28.9695C159.021 28.8732 157.961 27.8859 157.961 26.3447C157.961 24.8036 159.021 23.6959 161.429 23.5996V28.9695ZM164.921 28.9695V23.5996C167.353 23.6959 168.388 24.8036 168.388 26.3447H168.394C168.394 27.8859 167.359 28.8732 164.921 28.9695ZM183.468 21.1193V19.9635H179.977V21.1193C175.594 21.2156 172.969 23.0698 172.969 26.3447C172.969 29.6197 175.594 31.3294 179.977 31.4257V32.5815H183.468V31.4257C187.875 31.3294 190.5 29.6197 190.5 26.3447C190.5 23.0698 187.875 21.2156 183.468 21.1193ZM179.977 28.9695C177.569 28.8732 176.509 27.8859 176.509 26.3447C176.509 24.8036 177.569 23.6959 179.977 23.5996V28.9695ZM186.93 26.3447C186.93 27.8859 185.901 28.8732 183.468 28.9695V23.5996C185.901 23.6959 186.936 24.8036 186.936 26.3447H186.93ZM32.2688 31.1247C32.1965 31.1247 32.1303 31.1789 32.1243 31.2511V31.2571C32.1183 31.3354 32.1785 31.4076 32.2567 31.4136H32.2627C32.347 31.4136 32.4072 31.3474 32.4072 31.2692C32.4072 31.1849 32.347 31.1247 32.2688 31.1247ZM32.2628 31.1186C32.2688 31.1186 32.2688 31.1247 32.2688 31.1247C32.2748 31.1247 32.2748 31.1186 32.2808 31.1186H32.2628ZM42.0995 40.9916L41.2687 40.6725L41.4975 39.8116L41.7503 38.8725C40.6125 39.4564 39.4206 39.926 38.1925 40.2752C37.5905 40.4437 37.157 40.522 37.157 40.522V41.13C36.4166 41.2504 35.6701 41.3166 34.9176 41.3227H34.8513C34.0988 41.3166 33.3523 41.2504 32.6119 41.13V40.528C32.6119 40.528 32.1724 40.4437 31.5704 40.2752C30.3423 39.926 29.1503 39.4564 28.0125 38.8725L28.2594 39.8116L28.4941 40.6725L27.6574 40.9916L26.7544 41.3347C27.9945 41.9788 29.2888 42.5146 30.6253 42.936L30.3062 43.8029C31.757 44.3568 33.3102 44.6277 34.8634 44.5916H34.8995C36.4527 44.6277 38.0059 44.3568 39.4567 43.8029L39.1436 42.936C40.4741 42.5146 41.7684 41.9788 43.0085 41.3347L42.0995 40.9916ZM27.7597 41.3889L29.1082 40.9374L28.7049 39.613C29.5898 40.0524 30.5049 40.4197 31.45 40.7086L30.7878 42.5146C29.7463 42.2377 28.7289 41.8585 27.7597 41.3889ZM34.9176 44.1641L34.8875 44.1401C33.563 44.134 32.2446 43.9534 30.9684 43.6043L31.7811 41.4009C32.7925 41.6538 33.8339 41.7922 34.8814 41.7982H34.9477C35.9952 41.7862 37.0366 41.6538 38.048 41.4009L38.8607 43.6043C37.5784 43.9655 36.248 44.1521 34.9176 44.1641ZM39.0232 42.5508V42.5327L38.361 40.7267C39.3062 40.4377 40.2212 40.0705 41.1062 39.631L40.7028 40.9554L42.0694 41.413C41.0941 41.8886 40.0707 42.2738 39.0232 42.5508ZM34.8814 6.62907C36.2419 6.59295 37.5784 7.00231 38.686 7.79094C38.8606 6.89997 39.1917 6.04511 39.6673 5.26853L38.3008 5.42505L37.5904 3.90198L36.2118 4.61235L34.8814 3.29395L33.5509 4.61235L32.1723 3.90198L31.462 5.42505L30.0954 5.26853C30.571 6.04511 30.9021 6.89997 31.0767 7.79094C32.1844 7.00231 33.5208 6.59295 34.8814 6.62907ZM31.4018 5.95482L31.781 5.99696L31.9436 5.65382L32.4192 4.63041L33.3041 5.08793L33.6473 5.26251L33.9242 5.00967L34.8814 4.04044L35.8386 5.00967L36.1155 5.28057L36.4586 5.10599L37.3376 4.64847L37.8192 5.67188L37.9817 6.01502L38.361 5.97288L38.7222 5.93074C38.5777 6.26184 38.4513 6.60499 38.3489 6.95415C36.1757 5.84044 33.5931 5.84044 31.4198 6.95415C31.3175 6.60499 31.1911 6.26184 31.0466 5.93074L31.4018 5.95482ZM52.737 19.0544L52.5744 18.8558C51.4547 17.429 50.3891 16.0745 48.4868 15.4544C48.5651 15.3882 48.6433 15.328 48.7276 15.2738C49.6306 14.7621 50.2687 13.8832 50.4734 12.8658C50.5758 11.9447 50.3169 11.0237 49.751 10.2892L49.149 9.53676L48.7697 10.4337C48.7697 10.4879 48.1015 11.9267 46.753 11.9267H46.3557C46.4279 10.9815 46.0848 10.0484 45.4166 9.37422C44.6039 8.54345 43.4841 8.07991 42.3223 8.08593C42.1055 8.08593 41.8888 8.10399 41.6781 8.13409L40.757 8.31469L41.3289 9.0672C41.7744 9.6692 42.1778 10.7106 41.7022 11.2705C41.4734 11.4692 41.2146 11.6257 40.9316 11.734C40.3296 12.017 39.4627 12.4203 39.4627 13.4317C39.4627 14.0879 39.9744 14.7742 40.8955 15.3581C43.6105 17.0799 45.2901 18.8558 46.0186 20.8544C47.1443 23.9006 45.6754 25.6344 44.2487 26.5494L43.6105 26.9588L44.1704 27.4705C44.6701 27.8979 45.2841 28.1628 45.9403 28.229H46.4881C47.048 28.229 47.6019 28.1508 48.1376 27.9882C48.0052 28.223 47.8427 28.4457 47.6681 28.6504C46.8554 29.5956 45.6513 30.1133 44.4052 30.0471H43.8694L43.8273 30.5829C43.8213 31.3354 44.1524 32.0457 44.7243 32.5334C44.8748 32.6658 45.0433 32.7742 45.2239 32.8584C44.333 33.7253 43.8273 34.9113 43.8092 36.1574C43.8092 36.8377 43.6527 37.512 43.3577 38.126L42.7557 39.029H43.8273C45.5972 39.029 46.9517 38.5414 47.8908 37.5722C48.3784 37.0605 48.7396 36.4404 48.9503 35.7661C49.2995 36.0611 49.7089 36.2658 50.1544 36.3681C50.3651 36.4163 50.5818 36.4404 50.7985 36.4404C51.1236 36.4404 51.4487 36.3982 51.7617 36.326L52.448 36.1454L52.147 35.5073C51.7677 34.4899 51.7677 33.3641 52.147 32.3467C52.3697 31.6845 52.5263 30.9982 52.6105 30.2999C53.1523 30.5768 53.7544 30.7153 54.3624 30.7093C55.3617 30.7213 56.2948 30.2277 56.8366 29.3909L57.1677 28.7889L56.5657 28.536C54.549 27.6993 54.1035 25.4478 54.0132 24.2317C54.2119 24.2738 54.4105 24.2979 54.6152 24.3039L54.7838 24.4183C56.9751 24.4183 57.7095 22.1849 57.7396 22.0886L57.9865 21.2999H57.1617C55.4279 21.2397 53.8085 20.421 52.737 19.0544ZM54.7898 23.8103H54.7055C54.2661 23.8163 53.8326 23.6959 53.4594 23.4672C53.4594 23.4672 53.1403 27.8197 56.3851 29.1682V29.1862C55.9577 29.8364 55.2233 30.2217 54.4467 30.2096C53.5677 30.2638 52.7189 29.8906 52.1651 29.2103C52.1831 30.2337 52.0146 31.2571 51.6714 32.2203C51.2319 33.3822 51.2319 34.6705 51.6714 35.8324C51.4005 35.8986 51.1296 35.9347 50.8527 35.9347C50.6841 35.9347 50.5095 35.9166 50.347 35.8745C49.5463 35.6819 48.9082 35.0919 48.6493 34.3153C48.6493 34.3153 48.7758 38.4932 43.9055 38.4932H43.8694C44.2366 37.7949 44.4293 37.0183 44.4233 36.2297C44.634 33.1414 46.7289 32.7019 46.7289 32.7019C46.151 32.6297 45.6032 32.425 45.1216 32.0999C44.6821 31.7327 44.4293 31.1909 44.4172 30.619C45.8259 30.6792 47.1865 30.0952 48.1075 29.0237C48.6614 28.3916 49.0286 27.621 49.1851 26.7962C48.4085 27.3802 47.4513 27.6752 46.4821 27.633H45.9885C45.4647 27.5789 44.9651 27.3742 44.5617 27.031C46.4159 25.827 47.7162 23.7682 46.5664 20.6437C45.6393 18.1394 43.4179 16.2672 41.1845 14.8585C40.444 14.4009 39.9985 13.8832 39.9985 13.4377C39.9985 12.3902 41.4855 12.3601 42.0995 11.6317C42.8039 10.813 42.3644 9.4886 41.7503 8.69395C41.9249 8.66385 42.1055 8.65181 42.2801 8.65181C43.2855 8.63977 44.2547 9.04311 44.953 9.76551C45.6634 10.4397 45.9343 11.4571 45.6634 12.3963L45.9885 12.4625C46.1871 12.4986 46.3858 12.5167 46.5905 12.5227H46.7229C48.4868 12.5227 49.2814 10.6745 49.2814 10.6745C49.2814 10.6745 51.1597 12.9862 48.3965 14.7922C47.9209 15.0993 47.7102 15.3942 47.7945 15.6952L47.8366 15.8939L48.0353 15.93C50.04 16.4718 51.0453 17.8565 52.2915 19.4277C53.4714 20.9267 55.2534 21.8297 57.1617 21.8959H57.1978C57.1978 21.8959 56.5958 23.8103 54.7898 23.8103Z" fill="#222220"/>
<path d="M50.9249 15.7261C51.5991 16.1114 52.1831 16.6352 52.6406 17.2613C52.9838 17.791 53.4714 18.2124 54.0493 18.4653C54.266 18.5375 54.5008 18.5736 54.7296 18.5736C55.6506 18.5736 56.4935 18.0499 56.9149 17.2312L57.264 16.4486L56.4152 16.4004C55.5001 16.2318 54.6754 15.7623 54.0674 15.0579C53.6159 14.5703 52.9838 14.2873 52.3155 14.2813C51.7978 14.2873 51.2981 14.4439 50.8647 14.7208L50.0821 15.2686L50.9249 15.7261ZM52.3336 14.8653L52.3155 14.8713C52.8272 14.8713 53.3088 15.094 53.652 15.4733C54.3563 16.28 55.3195 16.8158 56.3791 16.9904C56.054 17.5984 55.4219 17.9776 54.7296 17.9837C54.561 17.9837 54.3925 17.9536 54.2299 17.8994C53.2547 17.5683 52.9115 16.0934 51.2199 15.2024C51.551 14.9857 51.9363 14.8713 52.3336 14.8653ZM51.3222 23.486L51.3102 23.474C50.8166 19.5007 47.9329 16.6292 44.7243 14.8894C44.4293 14.7268 44.1523 14.5944 43.8875 14.468C45.2119 14.7389 46.5905 14.4138 47.656 13.583C47.656 13.583 45.7958 14.9496 41.9911 13.7094C43.0447 14.3957 45.0915 15.3589 46.9637 16.9241C51.6353 21.0298 48.2942 25.0392 48.2942 25.0392C49.6908 23.7148 50.1784 21.692 49.5523 19.874C50.5396 21.5174 51.0152 23.4198 50.9129 25.3342C50.7804 28.4887 49.0286 31.2459 47.2226 33.4432C46.6808 34.1355 46.3075 34.9482 46.151 35.8151C46.458 34.9542 46.9216 34.1596 47.5236 33.4733C49.4801 31.1797 51.1356 28.8017 51.3704 25.3763C51.5751 25.9783 52.4059 27.7302 53.7303 28.3863C53.7303 28.3863 52.0687 27.387 51.3222 23.486ZM26.3992 38.169C26.1102 37.5549 25.9537 36.8807 25.9477 36.2004C25.9296 34.9542 25.4179 33.7683 24.5269 32.9014C24.7075 32.8171 24.8761 32.7088 25.0266 32.5763C25.5985 32.0887 25.9296 31.3783 25.9236 30.6258L25.8875 30.09H25.3456C24.1055 30.1502 22.9015 29.6385 22.0888 28.6934C21.9142 28.4887 21.7577 28.2659 21.6192 28.0312C22.155 28.1937 22.7089 28.272 23.2687 28.272H23.8166C24.4727 28.2057 25.0928 27.9409 25.5925 27.5134L26.1523 27.0017L25.5142 26.5924C24.0814 25.6773 22.6186 23.9435 23.7443 20.8974C24.4727 18.9168 26.1523 17.1288 28.8915 15.4071C29.8125 14.8051 30.3182 14.1369 30.3182 13.4807C30.3182 12.4693 29.4694 12.066 28.8493 11.783C28.5664 11.6746 28.3075 11.5181 28.0788 11.3195C27.5972 10.7596 28.0005 9.69402 28.452 9.11609L29.054 8.36358L28.1269 8.18298C27.9162 8.14686 27.6995 8.13482 27.4828 8.13482C26.3089 8.0987 25.1771 8.55022 24.3463 9.37496C23.6661 10.0432 23.3109 10.9823 23.3771 11.9335H23.0159C21.6614 11.9335 21.0232 10.5007 20.9992 10.4405L20.6199 9.54352L20.0179 10.2961C19.458 11.0305 19.1992 11.9516 19.3015 12.8726C19.5062 13.89 20.1383 14.769 21.0413 15.2807C21.1256 15.3348 21.2099 15.395 21.2821 15.4613C19.3798 16.0633 18.3142 17.4359 17.1945 18.8626L17.0319 19.0673C15.9604 20.4338 14.335 21.2526 12.6012 21.3128H11.7764L12.0293 22.1014C12.0293 22.1977 12.7878 24.4312 14.9851 24.4312H15.0935C15.2982 24.4251 15.4968 24.4011 15.6955 24.3589C15.6052 25.5629 15.1597 27.8265 13.137 28.6633L12.535 28.9161L12.8661 29.5181C13.4079 30.3549 14.341 30.8486 15.3403 30.8365C15.9483 30.8425 16.5443 30.7041 17.0861 30.4272C17.1704 31.1255 17.3269 31.8118 17.5497 32.474C17.9289 33.4914 17.9289 34.6171 17.5497 35.6345L17.2487 36.2726L17.9349 36.4532C18.248 36.5255 18.5731 36.5676 18.8982 36.5676C19.1149 36.5676 19.3316 36.5435 19.5423 36.4954C19.9878 36.393 20.3972 36.1884 20.7463 35.8934C20.957 36.5676 21.3182 37.1877 21.8059 37.6994C22.751 38.6686 24.1055 39.1502 25.8694 39.1562H26.941L26.3992 38.169ZM25.8814 38.5061C21.0112 38.5061 21.1316 34.3282 21.1316 34.3282C20.8727 35.1047 20.2346 35.6947 19.4339 35.8874C19.2714 35.9295 19.0968 35.9476 18.9283 35.9476C18.6513 35.9476 18.3804 35.9114 18.1156 35.8452C18.555 34.6833 18.555 33.395 18.1156 32.2332C17.7724 31.27 17.6099 30.2466 17.6279 29.2231C17.0741 29.9034 16.2253 30.2767 15.3463 30.2225H15.3162C14.5336 30.2345 13.7992 29.8432 13.3717 29.193C16.6166 27.8445 16.2975 23.492 16.2975 23.492C15.9242 23.7208 15.4908 23.8412 15.0513 23.8352H14.9851C13.1791 23.8352 12.5771 21.9208 12.5771 21.9208H12.6132C14.5216 21.8606 16.3095 20.9576 17.4895 19.4586C18.7296 17.8874 19.741 16.5027 21.7457 15.9609L21.9443 15.9248L21.9865 15.7262C22.0406 15.4191 21.8299 15.1241 21.3844 14.8231C18.6212 13.0171 20.4995 10.7054 20.4995 10.7054C20.4995 10.7054 21.2821 12.5536 23.058 12.5536H23.1423C23.347 12.5476 23.5456 12.5295 23.7443 12.4934L24.0694 12.4272C23.7925 11.488 24.0694 10.4706 24.7798 9.79637C25.4781 9.07395 26.4473 8.67061 27.4527 8.68265C27.6273 8.68265 27.8079 8.69469 27.9824 8.72479C27.3804 9.52546 26.9349 10.8499 27.6393 11.6626C28.2413 12.367 29.7343 12.3971 29.7343 13.4686C29.7343 13.9141 29.3189 14.4318 28.5784 14.8954C26.339 16.3041 24.1176 18.1763 23.1965 20.6807C22.0467 23.8051 23.347 25.882 25.2012 27.068C24.7978 27.4051 24.2982 27.6158 23.7744 27.67H23.2747C22.3055 27.7121 21.3483 27.4171 20.5717 26.8332C20.7283 27.6579 21.0955 28.4285 21.6433 29.0606C22.5644 30.1261 23.9309 30.7161 25.3396 30.6559C25.3276 31.2278 25.0747 31.7696 24.6353 32.1369C24.1537 32.4619 23.6058 32.6666 23.0279 32.7389C23.0279 32.7389 25.1289 33.1663 25.3577 36.2666C25.3517 37.0552 25.5443 37.8318 25.9115 38.5302L25.8814 38.5061Z" fill="#222220"/>
<path d="M15.0273 18.5676H15.0334C15.2621 18.5676 15.4969 18.5315 15.7136 18.4593C16.2916 18.2064 16.7792 17.785 17.1223 17.2552C17.5738 16.6292 18.1578 16.1054 18.832 15.7201L19.6748 15.2686L18.8922 14.7208C18.4588 14.4439 17.9591 14.2873 17.4474 14.2813C16.7792 14.2873 16.1471 14.5703 15.6956 15.0639C15.0936 15.7623 14.2628 16.2379 13.3538 16.4064L12.5049 16.4486L12.8481 17.2312C13.2695 18.0499 14.1063 18.5616 15.0273 18.5676ZM16.111 15.4733C16.4481 15.094 16.9297 14.8713 17.4414 14.8713C17.8327 14.8773 18.218 14.9977 18.5491 15.2084C16.8454 16.1174 16.4902 17.5743 15.5391 17.9054C15.3825 17.9596 15.214 17.9897 15.0454 17.9897C14.3471 17.9897 13.709 17.6044 13.3839 16.9904C14.4434 16.8158 15.4066 16.28 16.111 15.4733ZM18.8622 25.3583C18.7599 23.4439 19.2295 21.5415 20.2228 19.8981C19.5967 21.7161 20.0843 23.7389 21.481 25.0633C21.481 25.0633 18.1338 21.0539 22.8114 16.9482C24.6836 15.383 26.7245 14.4198 27.778 13.7335C23.9733 14.9736 22.1131 13.6071 22.1131 13.6071C23.1786 14.4379 24.5512 14.7629 25.8756 14.492C25.6107 14.6185 25.3338 14.7569 25.0388 14.9134C21.8301 16.6593 18.9285 19.5308 18.4529 23.5041V23.474C17.7064 27.375 16.0449 28.3743 16.0449 28.3743C17.3632 27.7241 18.2 25.9663 18.3987 25.3643C18.6214 28.7957 20.295 31.1736 22.2515 33.4613C22.8475 34.1475 23.3171 34.9422 23.6241 35.8031C23.4616 34.9422 23.0883 34.1295 22.5405 33.4432C20.7345 31.2459 18.9887 28.4887 18.8622 25.3583ZM33.7798 18.1101C33.9905 17.9054 34.2855 17.8091 34.5805 17.8452V18.983C34.5745 19.2659 34.5022 19.5368 34.3638 19.7837H35.5016C35.3631 19.5368 35.2909 19.2659 35.2849 18.983V17.8452C35.5738 17.8091 35.8688 17.9054 36.0795 18.1101V17.3215H33.7798V18.1101ZM33.3043 12.6499H33.2923C33.4669 12.8004 33.6716 12.9208 33.8943 12.993L34.0388 13.0593V12.3128L32.7023 11.7529C32.7685 12.1261 32.9853 12.4512 33.3043 12.6499ZM36.477 12.6439L36.471 12.6499C36.79 12.4512 37.0067 12.1261 37.073 11.7529L35.7365 12.3128V13.0532L35.875 12.987C36.0977 12.9148 36.3024 12.7944 36.477 12.6439Z" fill="#222220"/>
<path d="M38.8725 9.62749C38.8725 8.50173 36.9762 7.49036 34.8872 7.49036C32.7982 7.49036 30.9019 8.50173 30.9019 9.62749L30.9441 9.90441L31.7808 14.7205L30.9441 15.2081L28.7588 16.4483C28.7588 16.4483 28.2711 16.7011 28.0424 16.8516C27.2176 17.4536 27.0431 18.2603 27.5186 18.6095C27.639 17.7907 28.3554 17.1887 29.1862 17.2128C29.8785 17.2309 30.5227 17.58 30.914 18.1519C31.0344 18.2964 31.1427 18.4529 31.239 18.6095C31.3655 18.8141 31.4919 18.9947 31.6183 19.1693H26.0437C26.5133 19.976 26.7842 20.885 26.8444 21.8182V34.2014C26.8444 37.2115 29.1501 38.6262 31.6604 38.6262C33.5869 38.6262 33.8457 38.5359 34.9053 39.5954C35.9648 38.5359 36.2237 38.6262 38.1501 38.6262C40.6424 38.6262 42.9661 37.1994 42.9661 34.2014V21.8302C43.0263 20.8971 43.2972 19.9881 43.7668 19.1814H38.132C38.2584 19.0068 38.3849 18.8262 38.5113 18.6215C38.6136 18.465 38.722 18.3085 38.8364 18.164C39.2337 17.5921 39.8778 17.2429 40.5701 17.2248C41.4009 17.2008 42.1173 17.8028 42.2377 18.6215C42.7193 18.2784 42.5447 17.4175 41.714 16.8636C41.4912 16.7071 41.0036 16.4603 41.0036 16.4603L38.8364 15.184L37.9996 14.6964L38.8364 9.88033L38.8725 9.62749ZM31.7086 10.1814L34.6464 11.1747V15.7861L32.4852 14.6422L31.7086 10.1814ZM27.2477 19.982H32.3106C32.7019 20.3914 33.1835 20.7165 33.7133 20.9212C33.5989 21.3185 33.629 21.7459 33.7915 22.1252C33.9842 22.5285 34.3273 22.8416 34.7487 23.0041C34.827 23.6964 35.2966 24.2743 35.9527 24.5031C35.5915 24.8703 35.2364 25.2135 35.0919 25.3519L31.7267 25.2978C31.6123 25.2436 31.522 25.1593 31.4618 25.0509V25.0088L32.0096 25.0991H32.0457C32.1541 25.0991 32.2444 25.0269 32.2625 24.9185C32.2805 24.7981 32.2022 24.6897 32.0818 24.6656L31.4076 24.5573L32.1541 21.9687L31.4437 20.4757L30.3059 21.6797L30.2337 24.3707L29.4691 24.2503C29.3487 24.2262 29.2404 24.3044 29.2163 24.4248V24.4309C29.1982 24.5513 29.2765 24.6596 29.3969 24.6837L29.716 24.7319C29.6016 24.7981 29.5233 24.8462 29.5173 24.8583L29.4511 24.9064V24.9847C29.3006 25.671 29.5775 26.3814 30.1434 26.7907V26.8871C30.1073 27.1218 30.2698 27.3446 30.5046 27.3867H30.5768C30.7755 27.3867 30.9501 27.2483 30.9922 27.0496C31.1367 27.0556 31.2752 27.0556 31.4196 27.0496H31.5099L35.9226 27.8503L35.9949 27.8021C36.3441 27.5553 37.6865 26.5981 38.126 26.2549C38.2524 26.3633 38.3969 26.4596 38.5474 26.5319C38.3427 27.164 38.4992 27.8563 38.9568 28.3379H27.6511V21.8302C27.627 21.1981 27.4885 20.572 27.2477 19.982ZM37.7467 25.9359C37.2892 26.273 36.1635 27.0917 35.7541 27.3807L31.7507 26.6824V26.574C31.817 26.3031 31.8531 26.0262 31.8591 25.7493L35.2303 25.8034L35.2966 25.7372C35.3507 25.683 36.4163 24.6536 36.9581 24.0576C37.1026 24.2382 37.2711 24.3887 37.4638 24.5091C37.3675 25.0028 37.4698 25.5145 37.7467 25.9359ZM31.0584 25.2135V25.2315C31.1487 25.4001 31.2812 25.5446 31.4437 25.6409C31.4377 25.8877 31.4136 26.1285 31.3715 26.3693C31.3715 26.4235 31.3715 26.4777 31.3293 26.5319V26.6161C31.0524 26.6161 30.7815 26.574 30.5166 26.4897C30.035 26.2309 29.7641 25.7011 29.8424 25.1593C30.0591 25.0088 30.3059 24.9125 30.5648 24.8763C30.7875 24.8703 30.9862 25.0028 31.0584 25.2135ZM30.6431 24.4128L30.7093 21.8663L31.3113 21.2643L31.6785 22.0289L30.9621 24.5091L30.6431 24.4128ZM37.7166 37.8255H37.1387L37.5902 36.3506C37.6624 36.1459 37.2892 35.881 37.1327 35.6462C37.4999 35.869 37.8792 36.0676 38.2705 36.2482C38.2705 36.2964 37.7166 37.8255 37.7166 37.8255ZM39.2638 36.176L39.2156 36.1339L38.9026 37.7593C38.7039 37.7593 38.4932 37.8014 38.3006 37.8135L38.6317 36.2482C38.728 35.7847 37.4818 35.6462 36.8678 34.7252C36.4645 35.0623 35.9467 35.2188 35.429 35.1646C34.9715 35.1586 34.52 35.1105 34.0745 35.0202C33.9962 35.0141 33.918 35.0141 33.8397 35.0202C33.6531 35.0081 33.4725 35.1044 33.3762 35.267L33.2859 35.4175L31.5701 35.0021L31.1608 35.7125C31.0946 35.8088 31.1066 35.9412 31.1909 36.0255L31.3053 36.1519C31.1909 36.3747 31.0464 36.5794 30.8718 36.7539L30.619 36.4409C30.4263 36.1278 30.4444 35.7245 30.6611 35.4295L31.3354 34.2917L32.7742 34.5085L32.5514 33.9967C32.2504 33.3225 32.7079 32.4616 32.7561 31.968C32.7561 32.1185 32.5996 32.1486 32.4431 32.1486H32.0277C31.9976 32.1426 31.9614 32.1426 31.9313 32.1486L31.54 32.3834L31.233 32.1004C31.1849 32.0101 31.2029 31.9018 31.2752 31.8355L31.9855 31.0349L31.1427 30.0536L32.3467 30.6556L32.7079 30.2222C32.8043 30.3185 32.7621 30.5713 32.7621 30.5713C33.635 30.7881 34.2431 31.5827 34.219 32.4857V32.6603C34.3394 32.8529 34.532 32.9854 34.7487 33.0396L36.3802 33.2021C36.7053 33.0998 37.0364 33.0335 37.3735 32.9914C37.6624 32.9914 37.9514 33.0817 38.1922 33.2382C38.3066 33.16 38.4451 33.1118 38.5835 33.1058H38.6377C39.3661 33.1058 39.6731 33.768 40.0645 34.3098C40.3594 34.7252 40.7568 35.3513 40.7568 35.3513C40.6424 35.5198 40.4558 35.6222 40.2511 35.6222C40.1788 35.6282 40.1126 35.6282 40.0404 35.6222C39.2578 35.4777 39.1434 33.8643 38.6979 33.7379H38.6257C38.5414 33.7379 38.4631 33.786 38.421 33.8643C38.6257 34.4121 38.5053 34.6349 38.728 35.0683C38.8905 35.3272 39.0952 35.562 39.33 35.7606C39.33 35.7606 39.2999 36.0014 39.2638 36.176ZM30.4926 34.5988H30.4805L30.5528 34.7854C30.5046 34.9479 29.9507 35.1827 29.9507 35.1827L29.8303 34.9178C29.6738 34.5386 29.7882 34.1051 30.1193 33.8583L31.0283 33.3044L31.9976 33.5091C31.9915 33.7018 32.0517 33.8884 32.1661 34.0449L31.1487 33.8523L30.5467 34.2737C30.4504 34.358 30.4323 34.4904 30.4926 34.5988ZM42.1354 34.2074C42.2016 35.881 41.0397 37.3499 39.3962 37.675L39.6731 36.2182C39.6731 36.1339 39.7032 36.0315 39.7153 35.9472C39.7996 35.9834 39.8839 36.0074 39.9681 36.0255C40.0645 36.0315 40.1608 36.0315 40.2571 36.0255C40.5882 36.0255 40.9012 35.875 41.0999 35.6101L41.3166 35.3573L41.136 35.1105C41.136 35.1105 40.7327 34.4723 40.4317 34.0509L40.2631 33.7981C39.926 33.2924 39.4986 32.6543 38.6497 32.6543H38.5715C38.4511 32.6603 38.3247 32.6844 38.2103 32.7265C37.9514 32.6001 37.6685 32.5339 37.3795 32.5339C37.0905 32.5399 36.8016 32.5941 36.5307 32.6964L36.3862 32.7386L34.7969 32.582C34.7307 32.5519 34.6765 32.5038 34.6344 32.4436L34.9775 32.3051C34.8812 31.1553 33.7735 30.4509 33.1715 30.2161C33.1414 30.0897 33.0812 29.9814 32.9909 29.8911L32.6477 29.566L32.3467 29.9272L32.1962 30.1078L29.9688 29.1927L31.4196 30.9988L30.8477 31.8656C30.7273 31.986 30.7213 32.1847 30.8477 32.3111L31.4497 32.7205L32.0517 32.4917H32.1119C32.1119 32.582 32.0457 32.9493 32.0156 33.0516L30.9681 32.871L29.8484 33.473C29.3307 33.8462 29.1501 34.5325 29.421 35.1105L29.5474 35.3814L29.722 35.7666L30.1133 35.6041C29.9688 35.9954 30.029 36.4289 30.2818 36.76L30.5166 37.061L30.8297 37.4583L31.1788 37.085C31.4076 36.8563 31.5882 36.5914 31.7146 36.2964L31.7869 36.0556L31.6183 35.869V35.8329L31.8109 35.5198L33.2016 35.8449L33.5146 35.9171L33.6832 35.6402L33.7735 35.4897C33.7735 35.4596 33.7735 35.4536 33.8578 35.4536H34.0083C34.4839 35.5499 34.9655 35.5981 35.4471 35.6041C35.7721 35.6222 36.0972 35.586 36.4103 35.4897L37.1808 36.3687L36.7233 37.7773V37.8616C36.037 37.8496 35.3808 38.1325 34.9173 38.6322C34.1768 37.8977 33.6531 37.8195 31.6725 37.8195C29.2946 37.8195 27.6872 36.4289 27.6872 34.2074V28.7894H42.1354V34.2074ZM42.5267 19.982C42.2798 20.566 42.1474 21.1921 42.1233 21.8302V25.8877C41.5996 25.7733 41.2083 25.3279 41.1721 24.7921V24.6054H40.9915C40.6785 24.5814 40.3895 24.4369 40.1728 24.2141C39.9079 23.9071 39.7634 23.5218 39.7574 23.1185C39.4986 23.5399 39.5226 24.0817 39.8237 24.479C40.0584 24.774 40.4016 24.9727 40.7748 25.0208C40.8832 25.7192 41.443 26.261 42.1414 26.3513V28.3379H39.6129C38.9507 28.0008 38.6738 27.2121 38.9688 26.5319L39.0651 26.3151L38.8424 26.2309C38.12 25.978 37.7226 25.2014 37.9514 24.467L37.9996 24.2864L37.831 24.2081C37.1989 23.8409 36.8497 23.1245 36.9521 22.4021C36.621 22.7392 36.5367 23.2509 36.7474 23.6723C36.627 23.8108 36.4705 23.9733 36.2959 24.1539C35.6638 24.0215 35.2063 23.4737 35.1822 22.8295V22.679L35.0437 22.6248C34.6765 22.5165 34.3755 22.2636 34.2009 21.9265C34.0865 21.6496 34.0624 21.3366 34.1407 21.0476C34.2611 21.0717 34.3815 21.0897 34.5019 21.1018C34.6223 21.1078 34.7487 21.1078 34.8691 21.1018C35.8444 21.1018 36.7715 20.6804 37.4216 19.958L42.5267 19.982ZM38.6257 15.8764L39.6129 16.4784L39.8598 16.6228C39.3481 16.7613 38.8845 17.0382 38.5173 17.4235L38.4752 17.4596C38.3909 17.5499 38.3126 17.6402 38.2344 17.7366L38.1862 17.7968C38.1079 17.8931 38.0357 17.9954 37.9695 18.1038L37.9334 18.158C37.8491 18.2784 37.7708 18.4108 37.6925 18.5432C37.1447 19.6329 36.0792 20.3613 34.8691 20.4817C33.6591 20.3613 32.5936 19.6329 32.0457 18.5432C31.9675 18.4108 31.8892 18.2844 31.8109 18.158L31.7628 18.0917L31.5701 17.7787L31.516 17.7125C31.4377 17.6162 31.3594 17.5258 31.2812 17.4416L31.239 17.3994C30.8718 17.0141 30.4083 16.7372 29.8966 16.5988L30.1494 16.4543L31.1427 15.8523L32.1601 15.2503L34.8752 16.7252L37.5902 15.2984L38.6257 15.8764ZM37.2892 14.6723L35.128 15.8101V11.1807L38.0598 10.1874L37.2892 14.6723ZM34.8812 10.6931L31.6665 9.40474C31.9374 8.75458 33.2016 8.20073 34.8812 8.20073C36.5608 8.20073 37.825 8.75458 38.0959 9.40474L34.8812 10.6931Z" fill="#222220"/>
</svg>
