<svg width="201" height="50" viewBox="0 0 201 50" fill="none" xmlns="http://www.w3.org/2000/svg">
<path d="M57.4047 7L55.6768 11.7398H79.6136L81.3416 7H57.4047ZM54.8138 14.1076L53.0859 18.8464H77.0227L78.7507 14.1076H54.8138ZM52.2279 21.2152L50.5 25.953H74.4369L76.1628 21.2142C76.1638 21.2152 52.2279 21.2152 52.2279 21.2152Z" fill="#009FDF"/>
<path d="M100.822 27.4405V27.5389C101.897 27.9337 102.925 28.6249 103.462 29.0689C105.124 30.4513 105.858 32.2766 105.858 34.6455C105.858 38.5464 103.805 41.3583 100.43 42.2474C99.4025 42.5438 98.3275 42.6422 96.3233 42.6422H86.1064V14.1133H95.152C97.0105 14.1133 98.2803 14.2117 99.4045 14.5071C102.681 15.3962 104.832 17.6666 104.832 21.2691C104.832 23.195 104.148 24.8244 103.024 25.9094C102.535 26.4027 101.851 26.9954 100.824 27.4394L100.822 27.4405ZM91.7775 30.4513V37.9537H95.6894C96.8618 37.9537 97.9388 37.8553 98.7203 37.1149C99.5029 36.3745 99.8445 35.4362 99.8445 34.2025C99.8445 33.2662 99.5994 32.3771 99.1111 31.7352C98.2803 30.6984 97.2526 30.4513 95.4935 30.4513H91.7765H91.7775ZM91.7272 25.5146H94.9058C95.8833 25.5146 96.3726 25.5146 96.8608 25.3669C98.1819 24.9711 99.0127 23.7887 99.0127 22.1592C99.0127 20.2344 98.1326 19.3945 96.8608 19.0007C96.3223 18.852 95.7859 18.8038 94.7099 18.8038H91.7272V25.5156V25.5146ZM114.365 42.6432V18.9013H106.201V14.1143H128.888L127.274 18.9013H120.037V42.6432H114.365ZM130.648 42.6432V14.1143H149.032L147.419 18.9013H136.272V25.2203H140.82C144.486 25.2203 146.393 26.1093 147.714 27.2435C148.742 28.1326 150.501 30.1057 150.501 34.0066C150.501 37.8563 148.693 39.978 147.176 41.065C145.416 42.2976 143.558 42.6442 139.792 42.6442H130.649H130.648V42.6432ZM136.271 37.8543H140.524C142.138 37.8543 143.115 37.4594 143.799 36.5704C144.141 36.1273 144.63 35.3357 144.63 33.8559C144.63 32.3761 144.141 31.3383 143.163 30.5979C142.578 30.1549 141.794 29.9088 140.474 29.9088H136.269V37.8543H136.271Z" fill="#0A2973"/>
</svg>
