<?xml version="1.0" standalone="no"?>
<!DOCTYPE svg PUBLIC "-//W3C//DTD SVG 20010904//EN"
 "http://www.w3.org/TR/2001/REC-SVG-20010904/DTD/svg10.dtd">
<svg version="1.0" xmlns="http://www.w3.org/2000/svg"
 width="128.000000pt" height="128.000000pt" viewBox="0 0 128.000000 128.000000"
 preserveAspectRatio="xMidYMid meet">
<metadata>
Created by potrace 1.14, written by Peter Selinger 2001-2017
</metadata>
<g transform="translate(0.000000,128.000000) scale(0.100000,-0.100000)"
fill="#000000" stroke="none">
<path d="M440 1054 c-68 -19 -136 -58 -174 -101 -16 -18 -34 -30 -39 -26 -6 3
-7 2 -4 -4 4 -6 -1 -19 -9 -29 -9 -10 -13 -14 -10 -7 4 6 1 15 -6 19 -7 4 -10
4 -6 -1 4 -4 3 -14 -3 -22 -8 -9 -8 -13 -1 -13 6 0 9 -7 5 -16 -3 -8 -12 -13
-21 -9 -12 4 -13 3 -2 -10 10 -12 9 -15 -6 -15 -11 0 -15 -3 -8 -8 7 -5 7 -18
-1 -45 -6 -21 -13 -36 -15 -33 -3 2 -5 -38 -5 -90 0 -52 3 -94 7 -94 5 0 8 -5
8 -10 0 -7 -6 -7 -20 0 -11 6 -20 7 -20 3 0 -5 10 -13 22 -18 12 -6 22 -17 24
-25 4 -27 22 -68 34 -75 5 -3 8 -10 6 -14 -3 -4 4 -17 14 -29 11 -12 20 -25
20 -31 0 -5 8 -12 17 -16 17 -6 17 -7 -1 -21 -11 -7 -16 -17 -13 -21 4 -3 7
-3 7 2 0 4 8 1 18 -6 15 -13 16 -12 3 4 -12 15 -11 17 9 14 13 -2 28 -10 34
-18 10 -12 75 -48 101 -55 6 -2 21 -6 35 -10 14 -3 55 -8 92 -9 37 -2 72 -6
79 -11 8 -5 10 -3 4 6 -6 10 -1 12 18 8 15 -3 24 -1 21 3 -3 5 9 9 25 9 17 0
31 -4 31 -10 0 -5 6 -7 14 -4 8 3 17 0 21 -5 3 -6 11 -9 16 -6 5 3 40 8 77 9
122 7 225 75 281 188 31 63 12 68 -21 5 -49 -90 -126 -157 -202 -173 -46 -10
-138 -4 -159 11 -12 8 -17 15 -10 15 35 0 149 151 141 187 -3 13 -11 4 -27
-28 -27 -57 -79 -118 -118 -141 -29 -17 -30 -16 -64 13 -19 16 -31 29 -26 29
4 0 -2 9 -13 20 -12 12 -18 25 -15 30 3 4 1 10 -4 12 -5 1 -11 12 -13 23 -1
11 -7 23 -12 26 -5 4 -5 13 0 20 12 19 14 40 4 34 -14 -8 -21 11 -25 66 -3 41
-1 50 10 45 8 -3 17 0 21 6 4 7 3 8 -4 4 -7 -4 -12 -2 -12 4 0 6 -4 9 -9 5 -5
-3 -12 -1 -16 5 -3 5 -2 10 4 10 6 0 8 7 5 15 -4 8 -1 15 5 15 6 0 11 5 11 11
0 5 -4 8 -8 5 -5 -3 -9 13 -8 34 0 22 4 40 7 40 4 0 5 14 4 31 -2 21 1 29 10
25 7 -2 16 1 19 9 3 9 0 12 -10 8 -10 -4 -12 0 -8 11 3 9 11 13 18 9 6 -3 6
-1 -1 8 -11 11 -8 15 15 26 18 9 20 11 5 7 -20 -4 -21 -3 -10 20 7 14 16 26
20 26 5 0 5 5 2 10 -3 6 1 10 10 10 9 0 14 4 11 9 -3 4 6 21 19 37 19 23 25
25 25 12 0 -10 5 -18 11 -18 5 0 7 6 3 13 -3 6 7 -1 23 -18 27 -27 28 -31 14
-43 -14 -11 -13 -12 8 -6 19 5 23 3 18 -10 -3 -8 -1 -18 5 -22 7 -4 8 -3 4 4
-4 7 -5 12 -1 12 12 0 22 -45 12 -58 -7 -9 -6 -11 7 -6 10 4 16 1 17 -7 1 -20
7 -49 13 -65 10 -25 24 -6 20 26 -2 19 0 29 6 25 6 -3 10 -1 10 4 0 6 -4 11
-8 11 -16 0 -8 114 8 128 13 11 13 11 -1 7 -12 -5 -15 2 -14 32 1 34 3 38 25
35 59 -7 161 -86 145 -111 -3 -6 -3 -10 2 -9 4 2 10 -1 12 -7 2 -5 11 -15 19
-21 9 -7 13 -18 9 -28 -4 -9 -3 -15 2 -12 5 4 15 -16 22 -44 7 -27 16 -50 20
-50 4 0 8 63 8 140 0 127 -6 159 -24 129 -4 -6 -14 -8 -22 -5 -8 3 -11 1 -8
-5 9 -13 -50 -3 -123 22 -40 14 -72 17 -140 13 -112 -6 -132 -6 -222 0 -51 4
-92 1 -130 -10z m203 -13 c11 -11 -3 -15 -40 -14 -7 0 -11 -4 -10 -9 1 -5 -6
-15 -16 -21 -23 -15 -118 -104 -97 -92 13 8 13 6 1 -8 -7 -9 -17 -14 -22 -11
-5 3 -6 -3 -2 -12 5 -13 3 -15 -7 -9 -8 5 -11 4 -6 -3 9 -15 -15 -63 -28 -55
-7 4 -7 1 1 -7 13 -14 -3 -63 -18 -54 -5 3 -9 0 -9 -5 0 -6 3 -11 8 -11 4 0 7
-13 7 -29 0 -16 -3 -27 -8 -24 -4 2 -4 -13 -1 -34 3 -21 7 -56 9 -79 1 -22 8
-51 14 -62 7 -12 9 -22 5 -22 -3 0 -1 -7 6 -15 7 -8 9 -15 4 -15 -5 0 -2 -5 6
-10 13 -8 13 -10 -2 -10 -9 0 -20 -4 -23 -10 -4 -6 4 -9 17 -7 17 1 23 -3 21
-16 -1 -12 4 -17 14 -13 8 3 11 1 8 -4 -3 -6 -1 -10 4 -10 6 0 11 -6 11 -14 0
-8 7 -16 15 -20 8 -3 15 -11 15 -17 0 -8 -7 -6 -18 5 -18 15 -20 15 -37 -4
-17 -18 -17 -20 -2 -14 9 3 17 10 17 16 0 5 5 6 10 3 6 -4 8 -10 5 -15 -3 -5
6 -7 20 -4 18 3 36 -3 56 -20 16 -14 38 -28 49 -31 11 -4 17 -11 14 -17 -4 -6
-10 -5 -15 3 -5 8 -9 9 -9 3 0 -16 -90 -18 -90 -2 0 10 -2 10 -9 -1 -7 -11
-18 -9 -57 12 -27 13 -48 29 -46 36 1 6 -3 10 -9 9 -6 -2 -22 13 -37 31 -15
19 -20 31 -12 27 8 -4 6 0 -4 8 -11 9 -16 16 -12 16 5 0 1 11 -8 25 -20 31
-20 35 2 36 16 1 16 2 0 6 -21 5 -40 67 -32 106 2 16 1 26 -4 23 -5 -3 -9 1
-9 9 0 8 4 12 8 9 4 -2 10 0 14 6 3 5 0 10 -7 10 -8 0 -14 9 -14 20 0 11 5 18
11 16 5 -2 9 -10 7 -17 -3 -11 -1 -11 9 -2 6 6 19 9 28 6 9 -4 13 -3 9 1 -3 4
-14 9 -25 11 -10 2 -20 4 -22 4 -2 1 3 9 10 19 13 15 12 16 -3 3 -12 -9 -18
-10 -18 -2 0 6 0 14 0 19 0 4 9 7 19 7 11 0 23 3 27 7 3 4 -3 5 -15 3 -15 -3
-21 0 -18 8 3 7 10 11 16 9 7 -1 10 2 7 7 -4 5 0 12 6 14 9 4 10 6 1 6 -6 1
-15 -3 -18 -9 -11 -17 -21 -11 -21 14 0 14 6 23 14 22 8 -1 17 5 19 12 3 6 0
12 -7 12 -6 0 -8 -6 -4 -12 5 -10 4 -10 -5 -2 -10 9 -10 17 -2 32 6 10 7 23 3
27 -4 5 -1 4 7 0 11 -6 13 -4 8 7 -3 9 1 27 8 41 7 14 11 28 8 31 -3 3 2 8 11
12 9 3 14 10 11 14 -7 12 74 82 87 74 6 -4 8 -3 4 4 -3 6 6 14 21 20 36 12
152 7 166 -7z m180 2 c-6 -14 -10 -15 -48 -15 -46 0 -56 2 -50 12 4 6 10 8 14
6 4 -3 12 -2 18 2 21 13 71 9 66 -5z"/>
<path d="M510 1000 c0 -5 5 -10 11 -10 5 0 7 5 4 10 -3 6 -8 10 -11 10 -2 0
-4 -4 -4 -10z"/>
<path d="M435 939 c-3 -4 2 -6 10 -5 21 3 28 13 10 13 -9 0 -18 -4 -20 -8z"/>
<path d="M350 893 c5 -2 8 -9 5 -13 -3 -5 -1 -11 4 -14 5 -4 8 2 7 11 -2 9 -8
18 -15 19 -6 1 -7 0 -1 -3z"/>
<path d="M387 859 c7 -7 15 -10 18 -7 3 3 -2 9 -12 12 -14 6 -15 5 -6 -5z"/>
<path d="M360 775 c-7 -9 -11 -17 -9 -20 3 -2 10 5 17 15 14 24 10 26 -8 5z"/>
<path d="M393 775 c0 -8 4 -12 9 -9 4 3 8 9 8 15 0 5 -4 9 -8 9 -5 0 -9 -7 -9
-15z"/>
<path d="M355 693 c1 -10 -1 -23 -6 -28 -5 -7 0 -11 14 -12 12 0 17 1 10 4 -6
2 -9 15 -7 29 2 13 0 24 -5 24 -5 0 -8 -8 -6 -17z"/>
<path d="M371 607 c-13 -21 -12 -21 5 -5 10 10 16 20 13 22 -3 3 -11 -5 -18
-17z"/>
<path d="M317 593 c-12 -11 -8 -22 11 -32 14 -7 19 -6 19 4 0 8 -7 11 -15 7
-11 -4 -14 -1 -9 11 7 18 5 21 -6 10z"/>
<path d="M382 588 c-8 -8 -9 -15 -1 -25 8 -9 8 -13 0 -13 -6 0 -11 -5 -11 -12
0 -7 7 -5 18 6 13 14 14 20 4 23 -10 4 -10 8 -1 19 14 17 8 19 -9 2z"/>
<path d="M310 540 c-9 -6 -10 -10 -3 -10 6 0 15 5 18 10 8 12 4 12 -15 0z"/>
<path d="M325 519 c-3 -4 2 -6 10 -5 21 3 28 13 10 13 -9 0 -18 -4 -20 -8z"/>
<path d="M387 516 c-5 -12 -3 -15 5 -10 7 5 9 2 5 -9 -3 -8 1 -21 9 -28 12 -9
12 -15 2 -28 -12 -14 -11 -14 4 -2 10 7 15 18 11 25 -4 6 -8 16 -9 23 -1 6 -6
19 -11 28 -9 16 -10 16 -16 1z"/>
<path d="M435 399 c-4 -6 -5 -12 -2 -15 2 -3 7 2 10 11 7 17 1 20 -8 4z"/>
<path d="M415 360 c3 -5 8 -10 11 -10 2 0 4 5 4 10 0 6 -5 10 -11 10 -5 0 -7
-4 -4 -10z"/>
<path d="M454 344 c-18 -14 -18 -15 4 -4 12 6 22 13 22 15 0 8 -5 6 -26 -11z"/>
<path d="M544 285 c8 -8 18 -15 22 -15 3 0 1 7 -6 15 -7 8 -17 15 -22 15 -5 0
-3 -7 6 -15z"/>
<path d="M515 270 c-3 -6 1 -7 9 -4 18 7 21 14 7 14 -6 0 -13 -4 -16 -10z"/>
<path d="M676 965 c10 -8 23 -15 28 -15 6 0 1 7 -10 15 -10 8 -23 15 -28 15
-6 0 -1 -7 10 -15z"/>
<path d="M712 966 c7 -8 15 -12 17 -11 5 6 -10 25 -20 25 -5 0 -4 -6 3 -14z"/>
<path d="M995 950 c-4 -6 -11 -7 -17 -4 -7 4 -8 2 -4 -5 6 -9 11 -9 22 0 14
11 18 19 10 19 -3 0 -8 -5 -11 -10z"/>
<path d="M655 940 c-3 -6 1 -7 9 -4 18 7 21 14 7 14 -6 0 -13 -4 -16 -10z"/>
<path d="M700 916 c-10 -17 -10 -19 0 -9 9 8 19 9 32 2 23 -12 23 -8 0 12 -18
15 -20 15 -32 -5z"/>
<path d="M890 926 c0 -2 7 -7 16 -10 8 -3 12 -2 9 4 -6 10 -25 14 -25 6z"/>
<path d="M630 911 c0 -9 30 -24 36 -18 2 1 -6 8 -16 15 -11 7 -20 8 -20 3z"/>
<path d="M1015 889 c-4 -6 -5 -12 -2 -15 2 -3 7 2 10 11 7 17 1 20 -8 4z"/>
<path d="M750 881 c0 -6 4 -13 10 -16 6 -3 7 1 4 9 -7 18 -14 21 -14 7z"/>
<path d="M615 860 c-3 -6 1 -7 9 -4 18 7 21 14 7 14 -6 0 -13 -4 -16 -10z"/>
<path d="M610 805 c0 -8 4 -15 10 -15 5 0 7 7 4 15 -4 8 -8 15 -10 15 -2 0 -4
-7 -4 -15z"/>
<path d="M130 779 c0 -5 5 -7 10 -4 6 3 10 8 10 11 0 2 -4 4 -10 4 -5 0 -10
-5 -10 -11z"/>
<path d="M571 787 c2 -1 15 -11 29 -22 l25 -20 -19 23 c-11 12 -24 22 -29 22
-6 0 -8 -1 -6 -3z"/>
<path d="M575 740 c3 -5 8 -10 11 -10 2 0 4 5 4 10 0 6 -5 10 -11 10 -5 0 -7
-4 -4 -10z"/>
<path d="M596 713 c-6 -14 -5 -15 5 -6 7 7 10 15 7 18 -3 3 -9 -2 -12 -12z"/>
<path d="M570 640 c0 -5 5 -10 11 -10 5 0 7 5 4 10 -3 6 -8 10 -11 10 -2 0 -4
-4 -4 -10z"/>
<path d="M107 619 c7 -7 15 -10 18 -7 3 3 -2 9 -12 12 -14 6 -15 5 -6 -5z"/>
<path d="M570 570 c-8 -5 -12 -12 -9 -15 4 -3 12 1 19 10 14 17 11 19 -10 5z"/>
<path d="M572 520 c0 -14 2 -19 5 -12 2 6 2 18 0 25 -3 6 -5 1 -5 -13z"/>
<path d="M142 470 c7 -10 14 -18 15 -16 6 6 -9 36 -18 36 -5 0 -4 -9 3 -20z"/>
<path d="M110 466 c0 -2 7 -7 16 -10 8 -3 12 -2 9 4 -6 10 -25 14 -25 6z"/>
<path d="M154 429 c-10 -17 9 -30 26 -18 12 9 12 10 -4 5 -13 -5 -17 -2 -12 9
6 17 0 20 -10 4z"/>
<path d="M183 385 c0 -8 4 -12 9 -9 5 3 6 10 3 15 -9 13 -12 11 -12 -6z"/>
<path d="M155 380 c-3 -5 -1 -10 4 -10 6 0 11 5 11 10 0 6 -2 10 -4 10 -3 0
-8 -4 -11 -10z"/>
<path d="M184 355 c-18 -13 -18 -14 4 -8 21 5 28 -4 23 -30 -1 -5 3 -6 9 -2 8
5 1 33 -15 52 -1 2 -10 -4 -21 -12z"/>
<path d="M300 250 c6 -11 13 -20 16 -20 2 0 0 9 -6 20 -6 11 -13 20 -16 20 -2
0 0 -9 6 -20z"/>
<path d="M333 246 c0 -7 6 -13 14 -13 7 0 13 4 13 8 0 4 -6 9 -13 12 -8 3 -14
0 -14 -7z"/>
<path d="M590 159 c0 -5 5 -7 10 -4 6 3 10 8 10 11 0 2 -4 4 -10 4 -5 0 -10
-5 -10 -11z"/>
</g>
</svg>
